<svg width="334" height="317" viewBox="0 0 334 317" fill="none" xmlns="http://www.w3.org/2000/svg">
<path d="M70.3168 0H61.5273V8.79277H70.3168V0Z" fill="#030730"/>
<path d="M79.1059 0H70.3164V8.79277H79.1059V0Z" fill="#030730"/>
<path d="M87.8949 0H79.1055V8.79277H87.8949V0Z" fill="#030730"/>
<path d="M96.684 0H87.8945V8.79277H96.684V0Z" fill="#030730"/>
<path d="M105.473 0H96.6836V8.79277H105.473V0Z" fill="#030730"/>
<path d="M114.262 0H105.473V8.79277H114.262V0Z" fill="#030730"/>
<path d="M123.053 0H114.264V8.79277H123.053V0Z" fill="#030730"/>
<path d="M131.842 0H123.053V8.79277H131.842V0Z" fill="#030730"/>
<path d="M140.631 0H131.842V8.79277H140.631V0Z" fill="#030730"/>
<path d="M149.42 0H140.631V8.79277H149.42V0Z" fill="#030730"/>
<path d="M158.209 0H149.42V8.79277H158.209V0Z" fill="#030730"/>
<path d="M167 0H158.211V8.79277H167V0Z" fill="#030730"/>
<path d="M175.789 0H167V8.79277H175.789V0Z" fill="#030730"/>
<path d="M184.579 0H175.789V8.79277H184.579V0Z" fill="#030730"/>
<path d="M193.37 0H184.58V8.79277H193.37V0Z" fill="#030730"/>
<path d="M202.159 0H193.369V8.79277H202.159V0Z" fill="#030730"/>
<path d="M210.948 0H202.158V8.79277H210.948V0Z" fill="#030730"/>
<path d="M219.737 0H210.947V8.79277H219.737V0Z" fill="#030730"/>
<path d="M228.526 0H219.736V8.79277H228.526V0Z" fill="#030730"/>
<path d="M237.317 0H228.527V8.79277H237.317V0Z" fill="#030730"/>
<path d="M246.106 0H237.316V8.79277H246.106V0Z" fill="#030730"/>
<path d="M254.895 0H246.105V8.79277H254.895V0Z" fill="#030730"/>
<path d="M263.684 0H254.895V8.79277H263.684V0Z" fill="#030730"/>
<path d="M272.473 0H263.684V8.79277H272.473V0Z" fill="#030730"/>
<path d="M61.5258 8.79346H52.7363V17.5862H61.5258V8.79346Z" fill="#030730"/>
<path d="M70.3168 8.79346H61.5273V17.5862H70.3168V8.79346Z" fill="#B6B2CA"/>
<path d="M79.1059 8.79346H70.3164V17.5862H79.1059V8.79346Z" fill="#B6B2CA"/>
<path d="M87.8949 8.79346H79.1055V17.5862H87.8949V8.79346Z" fill="#B6B2CA"/>
<path d="M96.684 8.79346H87.8945V17.5862H96.684V8.79346Z" fill="#B6B2CA"/>
<path d="M105.473 8.79346H96.6836V17.5862H105.473V8.79346Z" fill="#B6B2CA"/>
<path d="M114.262 8.79346H105.473V17.5862H114.262V8.79346Z" fill="#B6B2CA"/>
<path d="M123.053 8.79346H114.264V17.5862H123.053V8.79346Z" fill="#B6B2CA"/>
<path d="M131.842 8.79346H123.053V17.5862H131.842V8.79346Z" fill="#B6B2CA"/>
<path d="M140.631 8.79346H131.842V17.5862H140.631V8.79346Z" fill="#B6B2CA"/>
<path d="M149.42 8.79346H140.631V17.5862H149.42V8.79346Z" fill="#B6B2CA"/>
<path d="M158.209 8.79346H149.42V17.5862H158.209V8.79346Z" fill="#B6B2CA"/>
<path d="M167 8.79346H158.211V17.5862H167V8.79346Z" fill="#B6B2CA"/>
<path d="M175.789 8.79346H167V17.5862H175.789V8.79346Z" fill="#B6B2CA"/>
<path d="M184.579 8.79346H175.789V17.5862H184.579V8.79346Z" fill="#B6B2CA"/>
<path d="M193.37 8.79346H184.58V17.5862H193.37V8.79346Z" fill="#B6B2CA"/>
<path d="M202.159 8.79346H193.369V17.5862H202.159V8.79346Z" fill="#B6B2CA"/>
<path d="M210.948 8.79346H202.158V17.5862H210.948V8.79346Z" fill="#B6B2CA"/>
<path d="M219.737 8.79346H210.947V17.5862H219.737V8.79346Z" fill="#B6B2CA"/>
<path d="M228.526 8.79346H219.736V17.5862H228.526V8.79346Z" fill="#B6B2CA"/>
<path d="M237.317 8.79346H228.527V17.5862H237.317V8.79346Z" fill="#B6B2CA"/>
<path d="M246.106 8.79346H237.316V17.5862H246.106V8.79346Z" fill="#B6B2CA"/>
<path d="M254.895 8.79346H246.105V17.5862H254.895V8.79346Z" fill="#B6B2CA"/>
<path d="M263.684 8.79346H254.895V17.5862H263.684V8.79346Z" fill="#B6B2CA"/>
<path d="M272.473 8.79346H263.684V17.5862H272.473V8.79346Z" fill="#B6B2CA"/>
<path d="M281.262 8.79346H272.473V17.5862H281.262V8.79346Z" fill="#030730"/>
<path d="M52.737 17.5852H43.9475V26.378H52.737V17.5852Z" fill="#030730"/>
<path d="M61.5258 17.5854H52.7363V26.3782H61.5258V17.5854Z" fill="#B6B2CA"/>
<path d="M70.3168 17.5854H61.5273V26.3782H70.3168V17.5854Z" fill="#B6B2CA"/>
<path d="M79.1059 17.5854H70.3164V26.3782H79.1059V17.5854Z" fill="#5F5A78"/>
<path d="M87.8949 17.5854H79.1055V26.3782H87.8949V17.5854Z" fill="#030730"/>
<path d="M96.684 17.5854H87.8945V26.3782H96.684V17.5854Z" fill="#030730"/>
<path d="M105.473 17.5854H96.6836V26.3782H105.473V17.5854Z" fill="#030730"/>
<path d="M114.262 17.5854H105.473V26.3782H114.262V17.5854Z" fill="#030730"/>
<path d="M123.053 17.5854H114.264V26.3782H123.053V17.5854Z" fill="#030730"/>
<path d="M131.842 17.5854H123.053V26.3782H131.842V17.5854Z" fill="#030730"/>
<path d="M140.631 17.5854H131.842V26.3782H140.631V17.5854Z" fill="#030730"/>
<path d="M149.42 17.5854H140.631V26.3782H149.42V17.5854Z" fill="#030730"/>
<path d="M158.209 17.5854H149.42V26.3782H158.209V17.5854Z" fill="#030730"/>
<path d="M167 17.5852H158.211V26.378H167V17.5852Z" fill="#030730"/>
<path d="M175.789 17.5852H167V26.378H175.789V17.5852Z" fill="#030730"/>
<path d="M184.579 17.5854H175.789V26.3782H184.579V17.5854Z" fill="#030730"/>
<path d="M193.37 17.5854H184.58V26.3782H193.37V17.5854Z" fill="#030730"/>
<path d="M202.159 17.5854H193.369V26.3782H202.159V17.5854Z" fill="#030730"/>
<path d="M210.948 17.5854H202.158V26.3782H210.948V17.5854Z" fill="#030730"/>
<path d="M219.737 17.5854H210.947V26.3782H219.737V17.5854Z" fill="#030730"/>
<path d="M228.526 17.5854H219.736V26.3782H228.526V17.5854Z" fill="#030730"/>
<path d="M237.317 17.5854H228.527V26.3782H237.317V17.5854Z" fill="#030730"/>
<path d="M246.106 17.5854H237.316V26.3782H246.106V17.5854Z" fill="#030730"/>
<path d="M254.895 17.5854H246.105V26.3782H254.895V17.5854Z" fill="#030730"/>
<path d="M263.684 17.5854H254.895V26.3782H263.684V17.5854Z" fill="#5F5A78"/>
<path d="M272.473 17.5854H263.684V26.3782H272.473V17.5854Z" fill="#B6B2CA"/>
<path d="M281.262 17.5854H272.473V26.3782H281.262V17.5854Z" fill="#B6B2CA"/>
<path d="M290.053 17.5854H281.264V26.3782H290.053V17.5854Z" fill="#030730"/>
<path d="M52.737 26.3789H43.9475V35.1717H52.737V26.3789Z" fill="#030730"/>
<path d="M61.5258 26.3789H52.7363V35.1717H61.5258V26.3789Z" fill="#B6B2CA"/>
<path d="M70.3168 26.3789H61.5273V35.1717H70.3168V26.3789Z" fill="#5F5A78"/>
<path d="M79.1059 26.3789H70.3164V35.1717H79.1059V26.3789Z" fill="#030730"/>
<path d="M87.8949 26.3789H79.1055V35.1717H87.8949V26.3789Z" fill="#7E97A3"/>
<path d="M96.684 26.3789H87.8945V35.1717H96.684V26.3789Z" fill="#7E97A3"/>
<path d="M105.473 26.3789H96.6836V35.1717H105.473V26.3789Z" fill="#7E97A3"/>
<path d="M114.262 26.3789H105.473V35.1717H114.262V26.3789Z" fill="#7E97A3"/>
<path d="M123.053 26.3789H114.264V35.1717H123.053V26.3789Z" fill="#7E97A3"/>
<path d="M131.842 26.3789H123.053V35.1717H131.842V26.3789Z" fill="#7E97A3"/>
<path d="M140.631 26.3789H131.842V35.1717H140.631V26.3789Z" fill="#7E97A3"/>
<path d="M149.42 26.3789H140.631V35.1717H149.42V26.3789Z" fill="#7E97A3"/>
<path d="M158.209 26.3789H149.42V35.1717H158.209V26.3789Z" fill="#7E97A3"/>
<path d="M167 26.3789H158.211V35.1717H167V26.3789Z" fill="#7E97A3"/>
<path d="M175.789 26.3789H167V35.1717H175.789V26.3789Z" fill="#7E97A3"/>
<path d="M184.579 26.3789H175.789V35.1717H184.579V26.3789Z" fill="#7E97A3"/>
<path d="M193.37 26.3789H184.58V35.1717H193.37V26.3789Z" fill="#7E97A3"/>
<path d="M202.159 26.3789H193.369V35.1717H202.159V26.3789Z" fill="#7E97A3"/>
<path d="M210.948 26.3789H202.158V35.1717H210.948V26.3789Z" fill="#7E97A3"/>
<path d="M219.737 26.3789H210.947V35.1717H219.737V26.3789Z" fill="#7E97A3"/>
<path d="M228.526 26.3789H219.736V35.1717H228.526V26.3789Z" fill="#7E97A3"/>
<path d="M237.317 26.3789H228.527V35.1717H237.317V26.3789Z" fill="#7E97A3"/>
<path d="M246.106 26.3789H237.316V35.1717H246.106V26.3789Z" fill="#7E97A3"/>
<path d="M254.895 26.3789H246.105V35.1717H254.895V26.3789Z" fill="#7E97A3"/>
<path d="M263.684 26.3789H254.895V35.1717H263.684V26.3789Z" fill="#030730"/>
<path d="M272.473 26.3789H263.684V35.1717H272.473V26.3789Z" fill="#5F5A78"/>
<path d="M281.262 26.3789H272.473V35.1717H281.262V26.3789Z" fill="#B6B2CA"/>
<path d="M290.053 26.3789H281.264V35.1717H290.053V26.3789Z" fill="#030730"/>
<path d="M52.737 35.1707H43.9475V43.9634H52.737V35.1707Z" fill="#030730"/>
<path d="M61.5258 35.1704H52.7363V43.9632H61.5258V35.1704Z" fill="#5F5A78"/>
<path d="M70.3168 35.1704H61.5273V43.9632H70.3168V35.1704Z" fill="#030730"/>
<path d="M79.1059 35.1704H70.3164V43.9632H79.1059V35.1704Z" fill="#7E97A3"/>
<path d="M87.8949 35.1704H79.1055V43.9632H87.8949V35.1704Z" fill="#7E97A3"/>
<path d="M96.684 35.1704H87.8945V43.9632H96.684V35.1704Z" fill="#C1D3DC"/>
<path d="M105.473 35.1704H96.6836V43.9632H105.473V35.1704Z" fill="#C1D3DC"/>
<path d="M114.262 35.1704H105.473V43.9632H114.262V35.1704Z" fill="#C1D3DC"/>
<path d="M123.053 35.1704H114.264V43.9632H123.053V35.1704Z" fill="#C1D3DC"/>
<path d="M131.842 35.1704H123.053V43.9632H131.842V35.1704Z" fill="#C1D3DC"/>
<path d="M140.631 35.1704H131.842V43.9632H140.631V35.1704Z" fill="#C1D3DC"/>
<path d="M149.42 35.1704H140.631V43.9632H149.42V35.1704Z" fill="#C1D3DC"/>
<path d="M158.209 35.1704H149.42V43.9632H158.209V35.1704Z" fill="#C1D3DC"/>
<path d="M167 35.1707H158.211V43.9634H167V35.1707Z" fill="#C1D3DC"/>
<path d="M175.789 35.1707H167V43.9634H175.789V35.1707Z" fill="white"/>
<path d="M184.579 35.1704H175.789V43.9632H184.579V35.1704Z" fill="white"/>
<path d="M193.37 35.1704H184.58V43.9632H193.37V35.1704Z" fill="#C1D3DC"/>
<path d="M202.159 35.1704H193.369V43.9632H202.159V35.1704Z" fill="#C1D3DC"/>
<path d="M210.948 35.1704H202.158V43.9632H210.948V35.1704Z" fill="#C1D3DC"/>
<path d="M219.737 35.1704H210.947V43.9632H219.737V35.1704Z" fill="white"/>
<path d="M228.526 35.1704H219.736V43.9632H228.526V35.1704Z" fill="#C1D3DC"/>
<path d="M237.317 35.1704H228.527V43.9632H237.317V35.1704Z" fill="#C1D3DC"/>
<path d="M246.106 35.1704H237.316V43.9632H246.106V35.1704Z" fill="#C1D3DC"/>
<path d="M254.895 35.1704H246.105V43.9632H254.895V35.1704Z" fill="#7E97A3"/>
<path d="M263.684 35.1704H254.895V43.9632H263.684V35.1704Z" fill="#7E97A3"/>
<path d="M272.473 35.1704H263.684V43.9632H272.473V35.1704Z" fill="#030730"/>
<path d="M281.262 35.1704H272.473V43.9632H281.262V35.1704Z" fill="#5F5A78"/>
<path d="M290.053 35.1704H281.264V43.9632H290.053V35.1704Z" fill="#030730"/>
<path d="M52.737 43.9641H43.9475V52.7569H52.737V43.9641Z" fill="#030730"/>
<path d="M61.5258 43.9644H52.7363V52.7571H61.5258V43.9644Z" fill="#5F5A78"/>
<path d="M70.3168 43.9644H61.5273V52.7571H70.3168V43.9644Z" fill="#030730"/>
<path d="M79.1059 43.9644H70.3164V52.7571H79.1059V43.9644Z" fill="#C1D3DC"/>
<path d="M87.8949 43.9644H79.1055V52.7571H87.8949V43.9644Z" fill="#C1D3DC"/>
<path d="M96.684 43.9644H87.8945V52.7571H96.684V43.9644Z" fill="#C1D3DC"/>
<path d="M105.473 43.9644H96.6836V52.7571H105.473V43.9644Z" fill="#C1D3DC"/>
<path d="M114.262 43.9644H105.473V52.7571H114.262V43.9644Z" fill="#C1D3DC"/>
<path d="M123.053 43.9644H114.264V52.7571H123.053V43.9644Z" fill="#C1D3DC"/>
<path d="M131.842 43.9644H123.053V52.7571H131.842V43.9644Z" fill="#C1D3DC"/>
<path d="M140.631 43.9644H131.842V52.7571H140.631V43.9644Z" fill="#C1D3DC"/>
<path d="M149.42 43.9644H140.631V52.7571H149.42V43.9644Z" fill="#C1D3DC"/>
<path d="M158.209 43.9644H149.42V52.7571H158.209V43.9644Z" fill="#C1D3DC"/>
<path d="M167 43.9641H158.211V52.7569H167V43.9641Z" fill="white"/>
<path d="M175.789 43.9641H167V52.7569H175.789V43.9641Z" fill="white"/>
<path d="M184.579 43.9644H175.789V52.7571H184.579V43.9644Z" fill="#C1D3DC"/>
<path d="M193.37 43.9644H184.58V52.7571H193.37V43.9644Z" fill="#C1D3DC"/>
<path d="M202.159 43.9644H193.369V52.7571H202.159V43.9644Z" fill="#C1D3DC"/>
<path d="M210.948 43.9644H202.158V52.7571H210.948V43.9644Z" fill="white"/>
<path d="M219.737 43.9644H210.947V52.7571H219.737V43.9644Z" fill="#C1D3DC"/>
<path d="M228.526 43.9644H219.736V52.7571H228.526V43.9644Z" fill="#C1D3DC"/>
<path d="M237.317 43.9644H228.527V52.7571H237.317V43.9644Z" fill="#C1D3DC"/>
<path d="M246.106 43.9644H237.316V52.7571H246.106V43.9644Z" fill="#C1D3DC"/>
<path d="M254.895 43.9644H246.105V52.7571H254.895V43.9644Z" fill="#C1D3DC"/>
<path d="M263.684 43.9644H254.895V52.7571H263.684V43.9644Z" fill="#C1D3DC"/>
<path d="M272.473 43.9644H263.684V52.7571H272.473V43.9644Z" fill="#030730"/>
<path d="M281.262 43.9644H272.473V52.7571H281.262V43.9644Z" fill="#5F5A78"/>
<path d="M290.053 43.9644H281.264V52.7571H290.053V43.9644Z" fill="#030730"/>
<path d="M52.737 52.7576H43.9475V61.5503H52.737V52.7576Z" fill="#030730"/>
<path d="M61.5258 52.7578H52.7363V61.5506H61.5258V52.7578Z" fill="#5F5A78"/>
<path d="M70.3168 52.7578H61.5273V61.5506H70.3168V52.7578Z" fill="#030730"/>
<path d="M79.1059 52.7578H70.3164V61.5506H79.1059V52.7578Z" fill="#C1D3DC"/>
<path d="M87.8949 52.7578H79.1055V61.5506H87.8949V52.7578Z" fill="#C1D3DC"/>
<path d="M96.684 52.7578H87.8945V61.5506H96.684V52.7578Z" fill="#C1D3DC"/>
<path d="M105.473 52.7578H96.6836V61.5506H105.473V52.7578Z" fill="#C1D3DC"/>
<path d="M114.262 52.7578H105.473V61.5506H114.262V52.7578Z" fill="#C1D3DC"/>
<path d="M123.053 52.7578H114.264V61.5506H123.053V52.7578Z" fill="#C1D3DC"/>
<path d="M131.842 52.7578H123.053V61.5506H131.842V52.7578Z" fill="#C1D3DC"/>
<path d="M140.631 52.7578H131.842V61.5506H140.631V52.7578Z" fill="#C1D3DC"/>
<path d="M149.42 52.7578H140.631V61.5506H149.42V52.7578Z" fill="#C1D3DC"/>
<path d="M158.209 52.7578H149.42V61.5506H158.209V52.7578Z" fill="#C1D3DC"/>
<path d="M167 52.7576H158.211V61.5503H167V52.7576Z" fill="white"/>
<path d="M175.789 52.7576H167V61.5503H175.789V52.7576Z" fill="white"/>
<path d="M184.579 52.7578H175.789V61.5506H184.579V52.7578Z" fill="#C1D3DC"/>
<path d="M193.37 52.7578H184.58V61.5506H193.37V52.7578Z" fill="#C1D3DC"/>
<path d="M202.159 52.7578H193.369V61.5506H202.159V52.7578Z" fill="#C1D3DC"/>
<path d="M210.948 52.7578H202.158V61.5506H210.948V52.7578Z" fill="white"/>
<path d="M219.737 52.7578H210.947V61.5506H219.737V52.7578Z" fill="#C1D3DC"/>
<path d="M228.526 52.7578H219.736V61.5506H228.526V52.7578Z" fill="#C1D3DC"/>
<path d="M237.317 52.7578H228.527V61.5506H237.317V52.7578Z" fill="#C1D3DC"/>
<path d="M246.106 52.7578H237.316V61.5506H246.106V52.7578Z" fill="#C1D3DC"/>
<path d="M254.895 52.7578H246.105V61.5506H254.895V52.7578Z" fill="#C1D3DC"/>
<path d="M263.684 52.7578H254.895V61.5506H263.684V52.7578Z" fill="#C1D3DC"/>
<path d="M272.473 52.7578H263.684V61.5506H272.473V52.7578Z" fill="#030730"/>
<path d="M281.262 52.7578H272.473V61.5506H281.262V52.7578Z" fill="#5F5A78"/>
<path d="M290.053 52.7578H281.264V61.5506H290.053V52.7578Z" fill="#030730"/>
<path d="M52.737 61.5493H43.9475V70.3421H52.737V61.5493Z" fill="#030730"/>
<path d="M61.5258 61.5493H52.7363V70.3421H61.5258V61.5493Z" fill="#5F5A78"/>
<path d="M70.3168 61.5493H61.5273V70.3421H70.3168V61.5493Z" fill="#030730"/>
<path d="M79.1059 61.5493H70.3164V70.3421H79.1059V61.5493Z" fill="#C1D3DC"/>
<path d="M87.8949 61.5493H79.1055V70.3421H87.8949V61.5493Z" fill="#C1D3DC"/>
<path d="M96.684 61.5493H87.8945V70.3421H96.684V61.5493Z" fill="#C1D3DC"/>
<path d="M105.473 61.5493H96.6836V70.3421H105.473V61.5493Z" fill="#C1D3DC"/>
<path d="M114.262 61.5493H105.473V70.3421H114.262V61.5493Z" fill="#C1D3DC"/>
<path d="M123.053 61.5493H114.264V70.3421H123.053V61.5493Z" fill="#C1D3DC"/>
<path d="M131.842 61.5493H123.053V70.3421H131.842V61.5493Z" fill="#C1D3DC"/>
<path d="M140.631 61.5493H131.842V70.3421H140.631V61.5493Z" fill="#C1D3DC"/>
<path d="M149.42 61.5493H140.631V70.3421H149.42V61.5493Z" fill="#C1D3DC"/>
<path d="M158.209 61.5493H149.42V70.3421H158.209V61.5493Z" fill="white"/>
<path d="M167 61.5493H158.211V70.3421H167V61.5493Z" fill="white"/>
<path d="M175.789 61.5493H167V70.3421H175.789V61.5493Z" fill="#C1D3DC"/>
<path d="M184.579 61.5493H175.789V70.3421H184.579V61.5493Z" fill="#C1D3DC"/>
<path d="M193.37 61.5493H184.58V70.3421H193.37V61.5493Z" fill="#C1D3DC"/>
<path d="M202.159 61.5493H193.369V70.3421H202.159V61.5493Z" fill="white"/>
<path d="M210.948 61.5493H202.158V70.3421H210.948V61.5493Z" fill="#C1D3DC"/>
<path d="M219.737 61.5493H210.947V70.3421H219.737V61.5493Z" fill="#C1D3DC"/>
<path d="M228.526 61.5493H219.736V70.3421H228.526V61.5493Z" fill="#C1D3DC"/>
<path d="M237.317 61.5493H228.527V70.3421H237.317V61.5493Z" fill="#C1D3DC"/>
<path d="M246.106 61.5493H237.316V70.3421H246.106V61.5493Z" fill="#C1D3DC"/>
<path d="M254.895 61.5493H246.105V70.3421H254.895V61.5493Z" fill="#C1D3DC"/>
<path d="M263.684 61.5493H254.895V70.3421H263.684V61.5493Z" fill="#C1D3DC"/>
<path d="M272.473 61.5493H263.684V70.3421H272.473V61.5493Z" fill="#030730"/>
<path d="M281.262 61.5493H272.473V70.3421H281.262V61.5493Z" fill="#5F5A78"/>
<path d="M290.053 61.5493H281.264V70.3421H290.053V61.5493Z" fill="#030730"/>
<path d="M52.737 70.3413H43.9475V79.1341H52.737V70.3413Z" fill="#030730"/>
<path d="M61.5258 70.3413H52.7363V79.1341H61.5258V70.3413Z" fill="#5F5A78"/>
<path d="M70.3168 70.3413H61.5273V79.1341H70.3168V70.3413Z" fill="#030730"/>
<path d="M79.1059 70.3413H70.3164V79.1341H79.1059V70.3413Z" fill="#C1D3DC"/>
<path d="M87.8949 70.3413H79.1055V79.1341H87.8949V70.3413Z" fill="#C1D3DC"/>
<path d="M96.684 70.3413H87.8945V79.1341H96.684V70.3413Z" fill="#C1D3DC"/>
<path d="M105.473 70.3413H96.6836V79.1341H105.473V70.3413Z" fill="#C1D3DC"/>
<path d="M114.262 70.3413H105.473V79.1341H114.262V70.3413Z" fill="#C1D3DC"/>
<path d="M123.053 70.3413H114.264V79.1341H123.053V70.3413Z" fill="#C1D3DC"/>
<path d="M131.842 70.3413H123.053V79.1341H131.842V70.3413Z" fill="#C1D3DC"/>
<path d="M140.631 70.3413H131.842V79.1341H140.631V70.3413Z" fill="#C1D3DC"/>
<path d="M149.42 70.3413H140.631V79.1341H149.42V70.3413Z" fill="#C1D3DC"/>
<path d="M158.209 70.3413H149.42V79.1341H158.209V70.3413Z" fill="white"/>
<path d="M167 70.3413H158.211V79.1341H167V70.3413Z" fill="white"/>
<path d="M175.789 70.3413H167V79.1341H175.789V70.3413Z" fill="#C1D3DC"/>
<path d="M184.579 70.3413H175.789V79.1341H184.579V70.3413Z" fill="#C1D3DC"/>
<path d="M193.37 70.3413H184.58V79.1341H193.37V70.3413Z" fill="#C1D3DC"/>
<path d="M202.159 70.3413H193.369V79.1341H202.159V70.3413Z" fill="white"/>
<path d="M210.948 70.3413H202.158V79.1341H210.948V70.3413Z" fill="#C1D3DC"/>
<path d="M219.737 70.3413H210.947V79.1341H219.737V70.3413Z" fill="#C1D3DC"/>
<path d="M228.526 70.3413H219.736V79.1341H228.526V70.3413Z" fill="#C1D3DC"/>
<path d="M237.317 70.3413H228.527V79.1341H237.317V70.3413Z" fill="#C1D3DC"/>
<path d="M246.106 70.3413H237.316V79.1341H246.106V70.3413Z" fill="#C1D3DC"/>
<path d="M254.895 70.3413H246.105V79.1341H254.895V70.3413Z" fill="#C1D3DC"/>
<path d="M263.684 70.3413H254.895V79.1341H263.684V70.3413Z" fill="#C1D3DC"/>
<path d="M272.473 70.3413H263.684V79.1341H272.473V70.3413Z" fill="#030730"/>
<path d="M281.262 70.3413H272.473V79.1341H281.262V70.3413Z" fill="#5F5A78"/>
<path d="M290.053 70.3413H281.264V79.1341H290.053V70.3413Z" fill="#030730"/>
<path d="M52.737 79.1348H43.9475V87.9275H52.737V79.1348Z" fill="#030730"/>
<path d="M61.5258 79.1348H52.7363V87.9275H61.5258V79.1348Z" fill="#5F5A78"/>
<path d="M70.3168 79.1348H61.5273V87.9275H70.3168V79.1348Z" fill="#030730"/>
<path d="M79.1059 79.1348H70.3164V87.9275H79.1059V79.1348Z" fill="#C1D3DC"/>
<path d="M87.8949 79.1348H79.1055V87.9275H87.8949V79.1348Z" fill="#C1D3DC"/>
<path d="M96.684 79.1348H87.8945V87.9275H96.684V79.1348Z" fill="#C1D3DC"/>
<path d="M105.473 79.1348H96.6836V87.9275H105.473V79.1348Z" fill="#C1D3DC"/>
<path d="M114.262 79.1348H105.473V87.9275H114.262V79.1348Z" fill="#C1D3DC"/>
<path d="M123.053 79.1348H114.264V87.9275H123.053V79.1348Z" fill="#C1D3DC"/>
<path d="M131.842 79.1348H123.053V87.9275H131.842V79.1348Z" fill="#C1D3DC"/>
<path d="M140.631 79.1348H131.842V87.9275H140.631V79.1348Z" fill="#C1D3DC"/>
<path d="M149.42 79.1348H140.631V87.9275H149.42V79.1348Z" fill="white"/>
<path d="M158.209 79.1348H149.42V87.9275H158.209V79.1348Z" fill="white"/>
<path d="M167 79.1348H158.211V87.9275H167V79.1348Z" fill="#C1D3DC"/>
<path d="M175.789 79.1348H167V87.9275H175.789V79.1348Z" fill="#C1D3DC"/>
<path d="M184.579 79.1348H175.789V87.9275H184.579V79.1348Z" fill="#C1D3DC"/>
<path d="M193.37 79.1348H184.58V87.9275H193.37V79.1348Z" fill="white"/>
<path d="M202.159 79.1348H193.369V87.9275H202.159V79.1348Z" fill="#C1D3DC"/>
<path d="M210.948 79.1348H202.158V87.9275H210.948V79.1348Z" fill="#C1D3DC"/>
<path d="M219.737 79.1348H210.947V87.9275H219.737V79.1348Z" fill="#C1D3DC"/>
<path d="M228.526 79.1348H219.736V87.9275H228.526V79.1348Z" fill="#C1D3DC"/>
<path d="M237.317 79.1348H228.527V87.9275H237.317V79.1348Z" fill="#C1D3DC"/>
<path d="M246.106 79.1348H237.316V87.9275H246.106V79.1348Z" fill="#C1D3DC"/>
<path d="M254.895 79.1348H246.105V87.9275H254.895V79.1348Z" fill="#C1D3DC"/>
<path d="M263.684 79.1348H254.895V87.9275H263.684V79.1348Z" fill="#C1D3DC"/>
<path d="M272.473 79.1348H263.684V87.9275H272.473V79.1348Z" fill="#030730"/>
<path d="M281.262 79.1348H272.473V87.9275H281.262V79.1348Z" fill="#5F5A78"/>
<path d="M290.053 79.1348H281.264V87.9275H290.053V79.1348Z" fill="#030730"/>
<path d="M52.737 87.9282H43.9475V96.721H52.737V87.9282Z" fill="#030730"/>
<path d="M61.5258 87.9282H52.7363V96.721H61.5258V87.9282Z" fill="#5F5A78"/>
<path d="M70.3168 87.9282H61.5273V96.721H70.3168V87.9282Z" fill="#030730"/>
<path d="M79.1059 87.9282H70.3164V96.721H79.1059V87.9282Z" fill="#C1D3DC"/>
<path d="M87.8949 87.9282H79.1055V96.721H87.8949V87.9282Z" fill="#C1D3DC"/>
<path d="M96.684 87.9282H87.8945V96.721H96.684V87.9282Z" fill="#C1D3DC"/>
<path d="M105.473 87.9282H96.6836V96.721H105.473V87.9282Z" fill="#C1D3DC"/>
<path d="M114.262 87.9282H105.473V96.721H114.262V87.9282Z" fill="#C1D3DC"/>
<path d="M123.053 87.9282H114.264V96.721H123.053V87.9282Z" fill="#C1D3DC"/>
<path d="M131.842 87.9282H123.053V96.721H131.842V87.9282Z" fill="#C1D3DC"/>
<path d="M140.631 87.9282H131.842V96.721H140.631V87.9282Z" fill="white"/>
<path d="M149.42 87.9282H140.631V96.721H149.42V87.9282Z" fill="white"/>
<path d="M158.209 87.9282H149.42V96.721H158.209V87.9282Z" fill="#C1D3DC"/>
<path d="M167 87.9282H158.211V96.721H167V87.9282Z" fill="#C1D3DC"/>
<path d="M175.789 87.9282H167V96.721H175.789V87.9282Z" fill="#C1D3DC"/>
<path d="M184.579 87.9282H175.789V96.721H184.579V87.9282Z" fill="white"/>
<path d="M193.37 87.9282H184.58V96.721H193.37V87.9282Z" fill="#C1D3DC"/>
<path d="M202.159 87.9282H193.369V96.721H202.159V87.9282Z" fill="#C1D3DC"/>
<path d="M210.948 87.9282H202.158V96.721H210.948V87.9282Z" fill="#C1D3DC"/>
<path d="M219.737 87.9282H210.947V96.721H219.737V87.9282Z" fill="#C1D3DC"/>
<path d="M228.526 87.9282H219.736V96.721H228.526V87.9282Z" fill="#C1D3DC"/>
<path d="M237.317 87.9282H228.527V96.721H237.317V87.9282Z" fill="#C1D3DC"/>
<path d="M246.106 87.9282H237.316V96.721H246.106V87.9282Z" fill="#C1D3DC"/>
<path d="M254.895 87.9282H246.105V96.721H254.895V87.9282Z" fill="#C1D3DC"/>
<path d="M263.684 87.9282H254.895V96.721H263.684V87.9282Z" fill="#C1D3DC"/>
<path d="M272.473 87.9282H263.684V96.721H272.473V87.9282Z" fill="#030730"/>
<path d="M281.262 87.9282H272.473V96.721H281.262V87.9282Z" fill="#5F5A78"/>
<path d="M290.053 87.9282H281.264V96.721H290.053V87.9282Z" fill="#030730"/>
<path d="M52.737 96.72H43.9475V105.513H52.737V96.72Z" fill="#030730"/>
<path d="M61.5258 96.7202H52.7363V105.513H61.5258V96.7202Z" fill="#5F5A78"/>
<path d="M70.3168 96.7202H61.5273V105.513H70.3168V96.7202Z" fill="#030730"/>
<path d="M79.1059 96.7202H70.3164V105.513H79.1059V96.7202Z" fill="#C1D3DC"/>
<path d="M87.8949 96.7202H79.1055V105.513H87.8949V96.7202Z" fill="#C1D3DC"/>
<path d="M96.684 96.7202H87.8945V105.513H96.684V96.7202Z" fill="#C1D3DC"/>
<path d="M105.473 96.7202H96.6836V105.513H105.473V96.7202Z" fill="#C1D3DC"/>
<path d="M114.262 96.7202H105.473V105.513H114.262V96.7202Z" fill="#C1D3DC"/>
<path d="M123.053 96.7202H114.264V105.513H123.053V96.7202Z" fill="#C1D3DC"/>
<path d="M131.842 96.7202H123.053V105.513H131.842V96.7202Z" fill="#C1D3DC"/>
<path d="M140.631 96.7202H131.842V105.513H140.631V96.7202Z" fill="white"/>
<path d="M149.42 96.7202H140.631V105.513H149.42V96.7202Z" fill="white"/>
<path d="M158.209 96.7202H149.42V105.513H158.209V96.7202Z" fill="#C1D3DC"/>
<path d="M167 96.72H158.211V105.513H167V96.72Z" fill="#C1D3DC"/>
<path d="M175.789 96.72H167V105.513H175.789V96.72Z" fill="#C1D3DC"/>
<path d="M184.579 96.7202H175.789V105.513H184.579V96.7202Z" fill="white"/>
<path d="M193.37 96.7202H184.58V105.513H193.37V96.7202Z" fill="#C1D3DC"/>
<path d="M202.159 96.7202H193.369V105.513H202.159V96.7202Z" fill="#C1D3DC"/>
<path d="M210.948 96.7202H202.158V105.513H210.948V96.7202Z" fill="#C1D3DC"/>
<path d="M219.737 96.7202H210.947V105.513H219.737V96.7202Z" fill="#C1D3DC"/>
<path d="M228.526 96.7202H219.736V105.513H228.526V96.7202Z" fill="#C1D3DC"/>
<path d="M237.317 96.7202H228.527V105.513H237.317V96.7202Z" fill="#C1D3DC"/>
<path d="M246.106 96.7202H237.316V105.513H246.106V96.7202Z" fill="#C1D3DC"/>
<path d="M254.895 96.7202H246.105V105.513H254.895V96.7202Z" fill="#C1D3DC"/>
<path d="M263.684 96.7202H254.895V105.513H263.684V96.7202Z" fill="#C1D3DC"/>
<path d="M272.473 96.7202H263.684V105.513H272.473V96.7202Z" fill="#030730"/>
<path d="M281.262 96.7202H272.473V105.513H281.262V96.7202Z" fill="#5F5A78"/>
<path d="M290.053 96.7202H281.264V105.513H290.053V96.7202Z" fill="#030730"/>
<path d="M52.737 105.513H43.9475V114.306H52.737V105.513Z" fill="#030730"/>
<path d="M61.5258 105.514H52.7363V114.306H61.5258V105.514Z" fill="#5F5A78"/>
<path d="M70.3168 105.514H61.5273V114.306H70.3168V105.514Z" fill="#030730"/>
<path d="M79.1059 105.514H70.3164V114.306H79.1059V105.514Z" fill="#C1D3DC"/>
<path d="M87.8949 105.514H79.1055V114.306H87.8949V105.514Z" fill="#C1D3DC"/>
<path d="M96.684 105.514H87.8945V114.306H96.684V105.514Z" fill="#C1D3DC"/>
<path d="M105.473 105.514H96.6836V114.306H105.473V105.514Z" fill="#C1D3DC"/>
<path d="M114.262 105.514H105.473V114.306H114.262V105.514Z" fill="#C1D3DC"/>
<path d="M123.053 105.514H114.264V114.306H123.053V105.514Z" fill="#C1D3DC"/>
<path d="M131.842 105.514H123.053V114.306H131.842V105.514Z" fill="white"/>
<path d="M140.631 105.514H131.842V114.306H140.631V105.514Z" fill="white"/>
<path d="M149.42 105.514H140.631V114.306H149.42V105.514Z" fill="#C1D3DC"/>
<path d="M158.209 105.514H149.42V114.306H158.209V105.514Z" fill="#C1D3DC"/>
<path d="M167 105.513H158.211V114.306H167V105.513Z" fill="#C1D3DC"/>
<path d="M175.789 105.513H167V114.306H175.789V105.513Z" fill="white"/>
<path d="M184.579 105.514H175.789V114.306H184.579V105.514Z" fill="#C1D3DC"/>
<path d="M193.37 105.514H184.58V114.306H193.37V105.514Z" fill="#C1D3DC"/>
<path d="M202.159 105.514H193.369V114.306H202.159V105.514Z" fill="#C1D3DC"/>
<path d="M210.948 105.514H202.158V114.306H210.948V105.514Z" fill="#C1D3DC"/>
<path d="M219.737 105.514H210.947V114.306H219.737V105.514Z" fill="#C1D3DC"/>
<path d="M228.526 105.514H219.736V114.306H228.526V105.514Z" fill="#C1D3DC"/>
<path d="M237.317 105.514H228.527V114.306H237.317V105.514Z" fill="#C1D3DC"/>
<path d="M246.106 105.514H237.316V114.306H246.106V105.514Z" fill="#C1D3DC"/>
<path d="M254.895 105.514H246.105V114.306H254.895V105.514Z" fill="#C1D3DC"/>
<path d="M263.684 105.514H254.895V114.306H263.684V105.514Z" fill="#C1D3DC"/>
<path d="M272.473 105.514H263.684V114.306H272.473V105.514Z" fill="#030730"/>
<path d="M281.262 105.514H272.473V114.306H281.262V105.514Z" fill="#5F5A78"/>
<path d="M290.053 105.514H281.264V114.306H290.053V105.514Z" fill="#030730"/>
<path d="M52.737 114.305H43.9475V123.098H52.737V114.305Z" fill="#030730"/>
<path d="M61.5258 114.305H52.7363V123.098H61.5258V114.305Z" fill="#5F5A78"/>
<path d="M70.3168 114.305H61.5273V123.098H70.3168V114.305Z" fill="#030730"/>
<path d="M79.1059 114.305H70.3164V123.098H79.1059V114.305Z" fill="#C1D3DC"/>
<path d="M87.8949 114.305H79.1055V123.098H87.8949V114.305Z" fill="#C1D3DC"/>
<path d="M96.684 114.305H87.8945V123.098H96.684V114.305Z" fill="#C1D3DC"/>
<path d="M105.473 114.305H96.6836V123.098H105.473V114.305Z" fill="#C1D3DC"/>
<path d="M114.262 114.305H105.473V123.098H114.262V114.305Z" fill="#C1D3DC"/>
<path d="M123.053 114.305H114.264V123.098H123.053V114.305Z" fill="#C1D3DC"/>
<path d="M131.842 114.305H123.053V123.098H131.842V114.305Z" fill="white"/>
<path d="M140.631 114.305H131.842V123.098H140.631V114.305Z" fill="white"/>
<path d="M149.42 114.305H140.631V123.098H149.42V114.305Z" fill="#C1D3DC"/>
<path d="M158.209 114.305H149.42V123.098H158.209V114.305Z" fill="#C1D3DC"/>
<path d="M167 114.305H158.211V123.098H167V114.305Z" fill="#C1D3DC"/>
<path d="M175.789 114.305H167V123.098H175.789V114.305Z" fill="white"/>
<path d="M184.579 114.305H175.789V123.098H184.579V114.305Z" fill="#C1D3DC"/>
<path d="M193.37 114.305H184.58V123.098H193.37V114.305Z" fill="#C1D3DC"/>
<path d="M202.159 114.305H193.369V123.098H202.159V114.305Z" fill="#C1D3DC"/>
<path d="M210.948 114.305H202.158V123.098H210.948V114.305Z" fill="#C1D3DC"/>
<path d="M219.737 114.305H210.947V123.098H219.737V114.305Z" fill="#C1D3DC"/>
<path d="M228.526 114.305H219.736V123.098H228.526V114.305Z" fill="#C1D3DC"/>
<path d="M237.317 114.305H228.527V123.098H237.317V114.305Z" fill="#C1D3DC"/>
<path d="M246.106 114.305H237.316V123.098H246.106V114.305Z" fill="#C1D3DC"/>
<path d="M254.895 114.305H246.105V123.098H254.895V114.305Z" fill="#C1D3DC"/>
<path d="M263.684 114.305H254.895V123.098H263.684V114.305Z" fill="#C1D3DC"/>
<path d="M272.473 114.305H263.684V123.098H272.473V114.305Z" fill="#030730"/>
<path d="M281.262 114.305H272.473V123.098H281.262V114.305Z" fill="#5F5A78"/>
<path d="M290.053 114.305H281.264V123.098H290.053V114.305Z" fill="#030730"/>
<path d="M52.737 123.099H43.9475V131.892H52.737V123.099Z" fill="#030730"/>
<path d="M61.5258 123.099H52.7363V131.891H61.5258V123.099Z" fill="#5F5A78"/>
<path d="M70.3168 123.099H61.5273V131.891H70.3168V123.099Z" fill="#030730"/>
<path d="M79.1059 123.099H70.3164V131.891H79.1059V123.099Z" fill="#C1D3DC"/>
<path d="M87.8949 123.099H79.1055V131.891H87.8949V123.099Z" fill="#C1D3DC"/>
<path d="M96.684 123.099H87.8945V131.891H96.684V123.099Z" fill="#C1D3DC"/>
<path d="M105.473 123.099H96.6836V131.891H105.473V123.099Z" fill="#C1D3DC"/>
<path d="M114.262 123.099H105.473V131.891H114.262V123.099Z" fill="#C1D3DC"/>
<path d="M123.053 123.099H114.264V131.891H123.053V123.099Z" fill="white"/>
<path d="M131.842 123.099H123.053V131.891H131.842V123.099Z" fill="white"/>
<path d="M140.631 123.099H131.842V131.891H140.631V123.099Z" fill="#C1D3DC"/>
<path d="M149.42 123.099H140.631V131.891H149.42V123.099Z" fill="#C1D3DC"/>
<path d="M158.209 123.099H149.42V131.891H158.209V123.099Z" fill="#C1D3DC"/>
<path d="M167 123.099H158.211V131.892H167V123.099Z" fill="white"/>
<path d="M175.789 123.099H167V131.892H175.789V123.099Z" fill="#C1D3DC"/>
<path d="M184.579 123.099H175.789V131.891H184.579V123.099Z" fill="#C1D3DC"/>
<path d="M193.37 123.099H184.58V131.891H193.37V123.099Z" fill="#C1D3DC"/>
<path d="M202.159 123.099H193.369V131.891H202.159V123.099Z" fill="#C1D3DC"/>
<path d="M210.948 123.099H202.158V131.891H210.948V123.099Z" fill="#C1D3DC"/>
<path d="M219.737 123.099H210.947V131.891H219.737V123.099Z" fill="#C1D3DC"/>
<path d="M228.526 123.099H219.736V131.891H228.526V123.099Z" fill="#C1D3DC"/>
<path d="M237.317 123.099H228.527V131.891H237.317V123.099Z" fill="#C1D3DC"/>
<path d="M246.106 123.099H237.316V131.891H246.106V123.099Z" fill="#C1D3DC"/>
<path d="M254.895 123.099H246.105V131.891H254.895V123.099Z" fill="#C1D3DC"/>
<path d="M263.684 123.099H254.895V131.891H263.684V123.099Z" fill="#C1D3DC"/>
<path d="M272.473 123.099H263.684V131.891H272.473V123.099Z" fill="#030730"/>
<path d="M281.262 123.099H272.473V131.891H281.262V123.099Z" fill="#5F5A78"/>
<path d="M290.053 123.099H281.264V131.891H290.053V123.099Z" fill="#030730"/>
<path d="M52.737 131.892H43.9475V140.685H52.737V131.892Z" fill="#030730"/>
<path d="M61.5258 131.893H52.7363V140.685H61.5258V131.893Z" fill="#47435C"/>
<path d="M70.3168 131.893H61.5273V140.685H70.3168V131.893Z" fill="#030730"/>
<path d="M79.1059 131.893H70.3164V140.685H79.1059V131.893Z" fill="#C1D3DC"/>
<path d="M87.8949 131.893H79.1055V140.685H87.8949V131.893Z" fill="#C1D3DC"/>
<path d="M96.684 131.893H87.8945V140.685H96.684V131.893Z" fill="#C1D3DC"/>
<path d="M105.473 131.893H96.6836V140.685H105.473V131.893Z" fill="#C1D3DC"/>
<path d="M114.262 131.893H105.473V140.685H114.262V131.893Z" fill="#C1D3DC"/>
<path d="M123.053 131.893H114.264V140.685H123.053V131.893Z" fill="white"/>
<path d="M131.842 131.893H123.053V140.685H131.842V131.893Z" fill="white"/>
<path d="M140.631 131.893H131.842V140.685H140.631V131.893Z" fill="#C1D3DC"/>
<path d="M149.42 131.893H140.631V140.685H149.42V131.893Z" fill="#C1D3DC"/>
<path d="M158.209 131.893H149.42V140.685H158.209V131.893Z" fill="#C1D3DC"/>
<path d="M167 131.892H158.211V140.685H167V131.892Z" fill="white"/>
<path d="M175.789 131.892H167V140.685H175.789V131.892Z" fill="#C1D3DC"/>
<path d="M184.579 131.893H175.789V140.685H184.579V131.893Z" fill="#C1D3DC"/>
<path d="M193.37 131.893H184.58V140.685H193.37V131.893Z" fill="#C1D3DC"/>
<path d="M202.159 131.893H193.369V140.685H202.159V131.893Z" fill="#C1D3DC"/>
<path d="M210.948 131.893H202.158V140.685H210.948V131.893Z" fill="#C1D3DC"/>
<path d="M219.737 131.893H210.947V140.685H219.737V131.893Z" fill="#C1D3DC"/>
<path d="M228.526 131.893H219.736V140.685H228.526V131.893Z" fill="#C1D3DC"/>
<path d="M237.317 131.893H228.527V140.685H237.317V131.893Z" fill="#C1D3DC"/>
<path d="M246.106 131.893H237.316V140.685H246.106V131.893Z" fill="#C1D3DC"/>
<path d="M254.895 131.893H246.105V140.685H254.895V131.893Z" fill="#C1D3DC"/>
<path d="M263.684 131.893H254.895V140.685H263.684V131.893Z" fill="#C1D3DC"/>
<path d="M272.473 131.893H263.684V140.685H272.473V131.893Z" fill="#030730"/>
<path d="M281.262 131.893H272.473V140.685H281.262V131.893Z" fill="#47435C"/>
<path d="M290.053 131.893H281.264V140.685H290.053V131.893Z" fill="#030730"/>
<path d="M52.737 140.684H43.9475V149.477H52.737V140.684Z" fill="#030730"/>
<path d="M61.5258 140.684H52.7363V149.477H61.5258V140.684Z" fill="#47435C"/>
<path d="M70.3168 140.684H61.5273V149.477H70.3168V140.684Z" fill="#47435C"/>
<path d="M79.1059 140.684H70.3164V149.477H79.1059V140.684Z" fill="#030730"/>
<path d="M87.8949 140.684H79.1055V149.477H87.8949V140.684Z" fill="#C1D3DC"/>
<path d="M96.684 140.684H87.8945V149.477H96.684V140.684Z" fill="#C1D3DC"/>
<path d="M105.473 140.684H96.6836V149.477H105.473V140.684Z" fill="#C1D3DC"/>
<path d="M114.262 140.684H105.473V149.477H114.262V140.684Z" fill="white"/>
<path d="M123.053 140.684H114.264V149.477H123.053V140.684Z" fill="white"/>
<path d="M131.842 140.684H123.053V149.477H131.842V140.684Z" fill="#C1D3DC"/>
<path d="M140.631 140.684H131.842V149.477H140.631V140.684Z" fill="#C1D3DC"/>
<path d="M149.42 140.684H140.631V149.477H149.42V140.684Z" fill="#C1D3DC"/>
<path d="M158.209 140.684H149.42V149.477H158.209V140.684Z" fill="white"/>
<path d="M167 140.684H158.211V149.477H167V140.684Z" fill="#C1D3DC"/>
<path d="M175.789 140.684H167V149.477H175.789V140.684Z" fill="#C1D3DC"/>
<path d="M184.579 140.684H175.789V149.477H184.579V140.684Z" fill="#C1D3DC"/>
<path d="M193.37 140.684H184.58V149.477H193.37V140.684Z" fill="#C1D3DC"/>
<path d="M202.159 140.684H193.369V149.477H202.159V140.684Z" fill="#C1D3DC"/>
<path d="M210.948 140.684H202.158V149.477H210.948V140.684Z" fill="#C1D3DC"/>
<path d="M219.737 140.684H210.947V149.477H219.737V140.684Z" fill="#C1D3DC"/>
<path d="M228.526 140.684H219.736V149.477H228.526V140.684Z" fill="#C1D3DC"/>
<path d="M237.317 140.684H228.527V149.477H237.317V140.684Z" fill="#C1D3DC"/>
<path d="M246.106 140.684H237.316V149.477H246.106V140.684Z" fill="#C1D3DC"/>
<path d="M254.895 140.684H246.105V149.477H254.895V140.684Z" fill="#C1D3DC"/>
<path d="M263.684 140.684H254.895V149.477H263.684V140.684Z" fill="#030730"/>
<path d="M272.473 140.684H263.684V149.477H272.473V140.684Z" fill="#47435C"/>
<path d="M281.262 140.684H272.473V149.477H281.262V140.684Z" fill="#47435C"/>
<path d="M290.053 140.684H281.264V149.477H290.053V140.684Z" fill="#030730"/>
<path d="M52.737 149.478H43.9475V158.27H52.737V149.478Z" fill="#030730"/>
<path d="M61.5258 149.478H52.7363V158.27H61.5258V149.478Z" fill="#47435C"/>
<path d="M70.3168 149.478H61.5273V158.27H70.3168V149.478Z" fill="#47435C"/>
<path d="M79.1059 149.478H70.3164V158.27H79.1059V149.478Z" fill="#47435C"/>
<path d="M87.8949 149.478H79.1055V158.27H87.8949V149.478Z" fill="#030730"/>
<path d="M96.684 149.478H87.8945V158.27H96.684V149.478Z" fill="#030730"/>
<path d="M105.473 149.478H96.6836V158.27H105.473V149.478Z" fill="#030730"/>
<path d="M114.262 149.478H105.473V158.27H114.262V149.478Z" fill="#030730"/>
<path d="M123.053 149.478H114.264V158.27H123.053V149.478Z" fill="#030730"/>
<path d="M131.842 149.478H123.053V158.27H131.842V149.478Z" fill="#030730"/>
<path d="M140.631 149.478H131.842V158.27H140.631V149.478Z" fill="#030730"/>
<path d="M149.42 149.478H140.631V158.27H149.42V149.478Z" fill="#030730"/>
<path d="M158.209 149.478H149.42V158.27H158.209V149.478Z" fill="#030730"/>
<path d="M167 149.478H158.211V158.27H167V149.478Z" fill="#030730"/>
<path d="M175.789 149.478H167V158.27H175.789V149.478Z" fill="#030730"/>
<path d="M184.579 149.478H175.789V158.27H184.579V149.478Z" fill="#030730"/>
<path d="M193.37 149.478H184.58V158.27H193.37V149.478Z" fill="#030730"/>
<path d="M202.159 149.478H193.369V158.27H202.159V149.478Z" fill="#030730"/>
<path d="M210.948 149.478H202.158V158.27H210.948V149.478Z" fill="#030730"/>
<path d="M219.737 149.478H210.947V158.27H219.737V149.478Z" fill="#030730"/>
<path d="M228.526 149.478H219.736V158.27H228.526V149.478Z" fill="#030730"/>
<path d="M237.317 149.478H228.527V158.27H237.317V149.478Z" fill="#030730"/>
<path d="M246.106 149.478H237.316V158.27H246.106V149.478Z" fill="#030730"/>
<path d="M254.895 149.478H246.105V158.27H254.895V149.478Z" fill="#030730"/>
<path d="M263.684 149.478H254.895V158.27H263.684V149.478Z" fill="#47435C"/>
<path d="M272.473 149.478H263.684V158.27H272.473V149.478Z" fill="#47435C"/>
<path d="M281.262 149.478H272.473V158.27H281.262V149.478Z" fill="#47435C"/>
<path d="M290.053 149.478H281.264V158.27H290.053V149.478Z" fill="#030730"/>
<path d="M61.5258 158.27H52.7363V167.062H61.5258V158.27Z" fill="#030730"/>
<path d="M70.3168 158.27H61.5273V167.062H70.3168V158.27Z" fill="#47435C"/>
<path d="M79.1059 158.27H70.3164V167.062H79.1059V158.27Z" fill="#47435C"/>
<path d="M87.8949 158.27H79.1055V167.062H87.8949V158.27Z" fill="#47435C"/>
<path d="M96.684 158.27H87.8945V167.062H96.684V158.27Z" fill="#47435C"/>
<path d="M105.473 158.27H96.6836V167.062H105.473V158.27Z" fill="#47435C"/>
<path d="M114.262 158.27H105.473V167.062H114.262V158.27Z" fill="#47435C"/>
<path d="M123.053 158.27H114.264V167.062H123.053V158.27Z" fill="#47435C"/>
<path d="M131.842 158.27H123.053V167.062H131.842V158.27Z" fill="#47435C"/>
<path d="M140.631 158.27H131.842V167.062H140.631V158.27Z" fill="#47435C"/>
<path d="M149.42 158.27H140.631V167.062H149.42V158.27Z" fill="#47435C"/>
<path d="M158.209 158.27H149.42V167.062H158.209V158.27Z" fill="#47435C"/>
<path d="M167 158.27H158.211V167.062H167V158.27Z" fill="#47435C"/>
<path d="M175.789 158.27H167V167.062H175.789V158.27Z" fill="#47435C"/>
<path d="M184.579 158.27H175.789V167.062H184.579V158.27Z" fill="#47435C"/>
<path d="M193.37 158.27H184.58V167.062H193.37V158.27Z" fill="#47435C"/>
<path d="M202.159 158.27H193.369V167.062H202.159V158.27Z" fill="#47435C"/>
<path d="M210.948 158.27H202.158V167.062H210.948V158.27Z" fill="#47435C"/>
<path d="M219.737 158.27H210.947V167.062H219.737V158.27Z" fill="#47435C"/>
<path d="M228.526 158.27H219.736V167.062H228.526V158.27Z" fill="#47435C"/>
<path d="M237.317 158.27H228.527V167.062H237.317V158.27Z" fill="#47435C"/>
<path d="M246.106 158.27H237.316V167.062H246.106V158.27Z" fill="#47435C"/>
<path d="M254.895 158.27H246.105V167.062H254.895V158.27Z" fill="#47435C"/>
<path d="M263.684 158.27H254.895V167.062H263.684V158.27Z" fill="#47435C"/>
<path d="M272.473 158.27H263.684V167.062H272.473V158.27Z" fill="#47435C"/>
<path d="M281.262 158.27H272.473V167.062H281.262V158.27Z" fill="#030730"/>
<path d="M70.3168 167.063H61.5273V175.856H70.3168V167.063Z" fill="#030730"/>
<path d="M79.1059 167.063H70.3164V175.856H79.1059V167.063Z" fill="#030730"/>
<path d="M87.8949 167.063H79.1055V175.856H87.8949V167.063Z" fill="#030730"/>
<path d="M96.684 167.063H87.8945V175.856H96.684V167.063Z" fill="#030730"/>
<path d="M105.473 167.063H96.6836V175.856H105.473V167.063Z" fill="#030730"/>
<path d="M114.262 167.063H105.473V175.856H114.262V167.063Z" fill="#030730"/>
<path d="M123.053 167.063H114.264V175.856H123.053V167.063Z" fill="#030730"/>
<path d="M131.842 167.063H123.053V175.856H131.842V167.063Z" fill="#030730"/>
<path d="M140.631 167.063H131.842V175.856H140.631V167.063Z" fill="#030730"/>
<path d="M149.42 167.063H140.631V175.856H149.42V167.063Z" fill="#030730"/>
<path d="M158.209 167.063H149.42V175.856H158.209V167.063Z" fill="#030730"/>
<path d="M167 167.063H158.211V175.856H167V167.063Z" fill="#030730"/>
<path d="M175.789 167.063H167V175.856H175.789V167.063Z" fill="#030730"/>
<path d="M184.579 167.063H175.789V175.856H184.579V167.063Z" fill="#030730"/>
<path d="M193.37 167.063H184.58V175.856H193.37V167.063Z" fill="#030730"/>
<path d="M202.159 167.063H193.369V175.856H202.159V167.063Z" fill="#030730"/>
<path d="M210.948 167.063H202.158V175.856H210.948V167.063Z" fill="#030730"/>
<path d="M219.737 167.063H210.947V175.856H219.737V167.063Z" fill="#030730"/>
<path d="M228.526 167.063H219.736V175.856H228.526V167.063Z" fill="#030730"/>
<path d="M237.317 167.063H228.527V175.856H237.317V167.063Z" fill="#030730"/>
<path d="M246.106 167.063H237.316V175.856H246.106V167.063Z" fill="#030730"/>
<path d="M254.895 167.063H246.105V175.856H254.895V167.063Z" fill="#030730"/>
<path d="M263.684 167.063H254.895V175.856H263.684V167.063Z" fill="#030730"/>
<path d="M272.473 167.063H263.684V175.856H272.473V167.063Z" fill="#030730"/>
<path d="M61.5258 175.856H52.7363V184.649H61.5258V175.856Z" fill="#030730"/>
<path d="M70.3168 175.856H61.5273V184.649H70.3168V175.856Z" fill="#C9D5E5"/>
<path d="M79.1059 175.856H70.3164V184.649H79.1059V175.856Z" fill="#C9D5E5"/>
<path d="M87.8949 175.856H79.1055V184.649H87.8949V175.856Z" fill="#C9D5E5"/>
<path d="M96.684 175.856H87.8945V184.649H96.684V175.856Z" fill="#C9D5E5"/>
<path d="M105.473 175.856H96.6836V184.649H105.473V175.856Z" fill="#C9D5E5"/>
<path d="M114.262 175.856H105.473V184.649H114.262V175.856Z" fill="#C9D5E5"/>
<path d="M123.053 175.856H114.264V184.649H123.053V175.856Z" fill="#C9D5E5"/>
<path d="M131.842 175.856H123.053V184.649H131.842V175.856Z" fill="#C9D5E5"/>
<path d="M140.631 175.856H131.842V184.649H140.631V175.856Z" fill="#C9D5E5"/>
<path d="M149.42 175.856H140.631V184.649H149.42V175.856Z" fill="#C9D5E5"/>
<path d="M158.209 175.856H149.42V184.649H158.209V175.856Z" fill="#C9D5E5"/>
<path d="M167 175.856H158.211V184.649H167V175.856Z" fill="#C9D5E5"/>
<path d="M175.789 175.856H167V184.649H175.789V175.856Z" fill="#C9D5E5"/>
<path d="M184.579 175.856H175.789V184.649H184.579V175.856Z" fill="#C9D5E5"/>
<path d="M193.37 175.856H184.58V184.649H193.37V175.856Z" fill="#C9D5E5"/>
<path d="M202.159 175.856H193.369V184.649H202.159V175.856Z" fill="#C9D5E5"/>
<path d="M210.948 175.856H202.158V184.649H210.948V175.856Z" fill="#C9D5E5"/>
<path d="M219.737 175.856H210.947V184.649H219.737V175.856Z" fill="#C9D5E5"/>
<path d="M228.526 175.856H219.736V184.649H228.526V175.856Z" fill="#C9D5E5"/>
<path d="M237.317 175.856H228.527V184.649H237.317V175.856Z" fill="#C9D5E5"/>
<path d="M246.106 175.856H237.316V184.649H246.106V175.856Z" fill="#C9D5E5"/>
<path d="M254.895 175.856H246.105V184.649H254.895V175.856Z" fill="#C9D5E5"/>
<path d="M263.684 175.856H254.895V184.649H263.684V175.856Z" fill="#C9D5E5"/>
<path d="M272.473 175.856H263.684V184.649H272.473V175.856Z" fill="#C9D5E5"/>
<path d="M281.262 175.856H272.473V184.649H281.262V175.856Z" fill="#030730"/>
<path d="M52.737 184.648H43.9475V193.441H52.737V184.648Z" fill="#030730"/>
<path d="M61.5258 184.648H52.7363V193.441H61.5258V184.648Z" fill="#C9D5E5"/>
<path d="M70.3168 184.648H61.5273V193.441H70.3168V184.648Z" fill="#C9D5E5"/>
<path d="M79.1059 184.648H70.3164V193.441H79.1059V184.648Z" fill="#C9D5E5"/>
<path d="M87.8949 184.648H79.1055V193.441H87.8949V184.648Z" fill="#030730"/>
<path d="M96.684 184.648H87.8945V193.441H96.684V184.648Z" fill="#030730"/>
<path d="M105.473 184.648H96.6836V193.441H105.473V184.648Z" fill="#030730"/>
<path d="M114.262 184.648H105.473V193.441H114.262V184.648Z" fill="#030730"/>
<path d="M123.053 184.648H114.264V193.441H123.053V184.648Z" fill="#030730"/>
<path d="M131.842 184.648H123.053V193.441H131.842V184.648Z" fill="#030730"/>
<path d="M140.631 184.648H131.842V193.441H140.631V184.648Z" fill="#030730"/>
<path d="M149.42 184.648H140.631V193.441H149.42V184.648Z" fill="#030730"/>
<path d="M158.209 184.648H149.42V193.441H158.209V184.648Z" fill="#030730"/>
<path d="M167 184.648H158.211V193.441H167V184.648Z" fill="#030730"/>
<path d="M175.789 184.648H167V193.441H175.789V184.648Z" fill="#030730"/>
<path d="M184.579 184.648H175.789V193.441H184.579V184.648Z" fill="#030730"/>
<path d="M193.37 184.648H184.58V193.441H193.37V184.648Z" fill="#030730"/>
<path d="M202.159 184.648H193.369V193.441H202.159V184.648Z" fill="#030730"/>
<path d="M210.948 184.648H202.158V193.441H210.948V184.648Z" fill="#030730"/>
<path d="M219.737 184.648H210.947V193.441H219.737V184.648Z" fill="#030730"/>
<path d="M228.526 184.648H219.736V193.441H228.526V184.648Z" fill="#030730"/>
<path d="M237.317 184.648H228.527V193.441H237.317V184.648Z" fill="#030730"/>
<path d="M246.106 184.648H237.316V193.441H246.106V184.648Z" fill="#030730"/>
<path d="M254.895 184.648H246.105V193.441H254.895V184.648Z" fill="#030730"/>
<path d="M263.684 184.648H254.895V193.441H263.684V184.648Z" fill="#C9D5E5"/>
<path d="M272.473 184.648H263.684V193.441H272.473V184.648Z" fill="#C9D5E5"/>
<path d="M281.262 184.648H272.473V193.441H281.262V184.648Z" fill="#C9D5E5"/>
<path d="M290.053 184.648H281.264V193.441H290.053V184.648Z" fill="#030730"/>
<path d="M43.9477 193.44H35.1582V202.233H43.9477V193.44Z" fill="#030730"/>
<path d="M52.737 193.44H43.9475V202.233H52.737V193.44Z" fill="#C9D5E5"/>
<path d="M61.5258 193.44H52.7363V202.233H61.5258V193.44Z" fill="#C9D5E5"/>
<path d="M70.3168 193.44H61.5273V202.233H70.3168V193.44Z" fill="#C9D5E5"/>
<path d="M79.1059 193.44H70.3164V202.233H79.1059V193.44Z" fill="#030730"/>
<path d="M87.8949 193.44H79.1055V202.233H87.8949V193.44Z" fill="#030730"/>
<path d="M96.684 193.44H87.8945V202.233H96.684V193.44Z" fill="#030730"/>
<path d="M105.473 193.44H96.6836V202.233H105.473V193.44Z" fill="#030730"/>
<path d="M114.262 193.44H105.473V202.233H114.262V193.44Z" fill="#030730"/>
<path d="M123.053 193.44H114.264V202.233H123.053V193.44Z" fill="#030730"/>
<path d="M131.842 193.44H123.053V202.233H131.842V193.44Z" fill="#030730"/>
<path d="M140.631 193.44H131.842V202.233H140.631V193.44Z" fill="#030730"/>
<path d="M149.42 193.44H140.631V202.233H149.42V193.44Z" fill="#030730"/>
<path d="M158.209 193.44H149.42V202.233H158.209V193.44Z" fill="#030730"/>
<path d="M167 193.44H158.211V202.233H167V193.44Z" fill="#030730"/>
<path d="M175.789 193.44H167V202.233H175.789V193.44Z" fill="#030730"/>
<path d="M184.579 193.44H175.789V202.233H184.579V193.44Z" fill="#030730"/>
<path d="M193.37 193.44H184.58V202.233H193.37V193.44Z" fill="#030730"/>
<path d="M202.159 193.44H193.369V202.233H202.159V193.44Z" fill="#030730"/>
<path d="M210.948 193.44H202.158V202.233H210.948V193.44Z" fill="#030730"/>
<path d="M219.737 193.44H210.947V202.233H219.737V193.44Z" fill="#030730"/>
<path d="M228.526 193.44H219.736V202.233H228.526V193.44Z" fill="#030730"/>
<path d="M237.317 193.44H228.527V202.233H237.317V193.44Z" fill="#030730"/>
<path d="M246.106 193.44H237.316V202.233H246.106V193.44Z" fill="#030730"/>
<path d="M254.895 193.44H246.105V202.233H254.895V193.44Z" fill="#030730"/>
<path d="M263.684 193.44H254.895V202.233H263.684V193.44Z" fill="#030730"/>
<path d="M272.473 193.44H263.684V202.233H272.473V193.44Z" fill="#C9D5E5"/>
<path d="M281.262 193.44H272.473V202.233H281.262V193.44Z" fill="#C9D5E5"/>
<path d="M290.053 193.44H281.264V202.233H290.053V193.44Z" fill="#C9D5E5"/>
<path d="M298.842 193.44H290.053V202.233H298.842V193.44Z" fill="#030730"/>
<path d="M35.1586 202.233H26.3691V211.026H35.1586V202.233Z" fill="#030730"/>
<path d="M43.9477 202.233H35.1582V211.026H43.9477V202.233Z" fill="#C9D5E5"/>
<path d="M52.737 202.234H43.9475V211.026H52.737V202.234Z" fill="#C9D5E5"/>
<path d="M61.5258 202.233H52.7363V211.026H61.5258V202.233Z" fill="#C9D5E5"/>
<path d="M70.3168 202.233H61.5273V211.026H70.3168V202.233Z" fill="#030730"/>
<path d="M79.1059 202.233H70.3164V211.026H79.1059V202.233Z" fill="#8099B9"/>
<path d="M87.8949 202.233H79.1055V211.026H87.8949V202.233Z" fill="#8099B9"/>
<path d="M96.684 202.233H87.8945V211.026H96.684V202.233Z" fill="#8099B9"/>
<path d="M105.473 202.233H96.6836V211.026H105.473V202.233Z" fill="#030730"/>
<path d="M114.262 202.233H105.473V211.026H114.262V202.233Z" fill="#8099B9"/>
<path d="M123.053 202.233H114.264V211.026H123.053V202.233Z" fill="#8099B9"/>
<path d="M131.842 202.233H123.053V211.026H131.842V202.233Z" fill="#030730"/>
<path d="M140.631 202.233H131.842V211.026H140.631V202.233Z" fill="#8099B9"/>
<path d="M149.42 202.233H140.631V211.026H149.42V202.233Z" fill="#8099B9"/>
<path d="M158.209 202.233H149.42V211.026H158.209V202.233Z" fill="#030730"/>
<path d="M167 202.234H158.211V211.026H167V202.234Z" fill="#8099B9"/>
<path d="M175.789 202.234H167V211.026H175.789V202.234Z" fill="#8099B9"/>
<path d="M184.579 202.233H175.789V211.026H184.579V202.233Z" fill="#030730"/>
<path d="M193.37 202.233H184.58V211.026H193.37V202.233Z" fill="#8099B9"/>
<path d="M202.159 202.233H193.369V211.026H202.159V202.233Z" fill="#8099B9"/>
<path d="M210.948 202.233H202.158V211.026H210.948V202.233Z" fill="#030730"/>
<path d="M219.737 202.233H210.947V211.026H219.737V202.233Z" fill="#8099B9"/>
<path d="M228.526 202.233H219.736V211.026H228.526V202.233Z" fill="#8099B9"/>
<path d="M237.317 202.233H228.527V211.026H237.317V202.233Z" fill="#030730"/>
<path d="M246.106 202.233H237.316V211.026H246.106V202.233Z" fill="#8099B9"/>
<path d="M254.895 202.233H246.105V211.026H254.895V202.233Z" fill="#8099B9"/>
<path d="M263.684 202.233H254.895V211.026H263.684V202.233Z" fill="#8099B9"/>
<path d="M272.473 202.233H263.684V211.026H272.473V202.233Z" fill="#030730"/>
<path d="M281.262 202.233H272.473V211.026H281.262V202.233Z" fill="#C9D5E5"/>
<path d="M290.053 202.233H281.264V211.026H290.053V202.233Z" fill="#C9D5E5"/>
<path d="M298.842 202.233H290.053V211.026H298.842V202.233Z" fill="#C9D5E5"/>
<path d="M307.631 202.233H298.842V211.026H307.631V202.233Z" fill="#030730"/>
<path d="M26.3696 211.027H17.5801V219.82H26.3696V211.027Z" fill="#030730"/>
<path d="M35.1586 211.027H26.3691V219.82H35.1586V211.027Z" fill="#C9D5E5"/>
<path d="M43.9477 211.027H35.1582V219.82H43.9477V211.027Z" fill="#C9D5E5"/>
<path d="M52.737 211.027H43.9475V219.82H52.737V211.027Z" fill="#C9D5E5"/>
<path d="M61.5258 211.027H52.7363V219.82H61.5258V211.027Z" fill="#030730"/>
<path d="M70.3168 211.027H61.5273V219.82H70.3168V211.027Z" fill="#030730"/>
<path d="M79.1059 211.027H70.3164V219.82H79.1059V211.027Z" fill="#030730"/>
<path d="M87.8949 211.027H79.1055V219.82H87.8949V211.027Z" fill="#030730"/>
<path d="M96.684 211.027H87.8945V219.82H96.684V211.027Z" fill="#030730"/>
<path d="M105.473 211.027H96.6836V219.82H105.473V211.027Z" fill="#030730"/>
<path d="M114.262 211.027H105.473V219.82H114.262V211.027Z" fill="#030730"/>
<path d="M123.053 211.027H114.264V219.82H123.053V211.027Z" fill="#030730"/>
<path d="M131.842 211.027H123.053V219.82H131.842V211.027Z" fill="#030730"/>
<path d="M140.631 211.027H131.842V219.82H140.631V211.027Z" fill="#030730"/>
<path d="M149.42 211.027H140.631V219.82H149.42V211.027Z" fill="#030730"/>
<path d="M158.209 211.027H149.42V219.82H158.209V211.027Z" fill="#030730"/>
<path d="M167 211.027H158.211V219.82H167V211.027Z" fill="#030730"/>
<path d="M175.789 211.027H167V219.82H175.789V211.027Z" fill="#030730"/>
<path d="M184.579 211.027H175.789V219.82H184.579V211.027Z" fill="#030730"/>
<path d="M193.37 211.027H184.58V219.82H193.37V211.027Z" fill="#030730"/>
<path d="M202.159 211.027H193.369V219.82H202.159V211.027Z" fill="#030730"/>
<path d="M210.948 211.027H202.158V219.82H210.948V211.027Z" fill="#030730"/>
<path d="M219.737 211.027H210.947V219.82H219.737V211.027Z" fill="#030730"/>
<path d="M228.526 211.027H219.736V219.82H228.526V211.027Z" fill="#030730"/>
<path d="M237.317 211.027H228.527V219.82H237.317V211.027Z" fill="#030730"/>
<path d="M246.106 211.027H237.316V219.82H246.106V211.027Z" fill="#030730"/>
<path d="M254.895 211.027H246.105V219.82H254.895V211.027Z" fill="#030730"/>
<path d="M263.684 211.027H254.895V219.82H263.684V211.027Z" fill="#030730"/>
<path d="M272.473 211.027H263.684V219.82H272.473V211.027Z" fill="#030730"/>
<path d="M281.262 211.027H272.473V219.82H281.262V211.027Z" fill="#030730"/>
<path d="M290.053 211.027H281.264V219.82H290.053V211.027Z" fill="#C9D5E5"/>
<path d="M298.842 211.027H290.053V219.82H298.842V211.027Z" fill="#C9D5E5"/>
<path d="M307.631 211.027H298.842V219.82H307.631V211.027Z" fill="#C9D5E5"/>
<path d="M316.42 211.027H307.631V219.82H316.42V211.027Z" fill="#030730"/>
<path d="M26.3696 219.819H17.5801V228.612H26.3696V219.819Z" fill="#030730"/>
<path d="M35.1586 219.819H26.3691V228.612H35.1586V219.819Z" fill="#C9D5E5"/>
<path d="M43.9477 219.819H35.1582V228.612H43.9477V219.819Z" fill="#C9D5E5"/>
<path d="M52.737 219.819H43.9475V228.612H52.737V219.819Z" fill="#030730"/>
<path d="M61.5258 219.819H52.7363V228.612H61.5258V219.819Z" fill="#030730"/>
<path d="M70.3168 219.819H61.5273V228.612H70.3168V219.819Z" fill="#030730"/>
<path d="M79.1059 219.819H70.3164V228.612H79.1059V219.819Z" fill="#8099B9"/>
<path d="M87.8949 219.819H79.1055V228.612H87.8949V219.819Z" fill="#8099B9"/>
<path d="M96.684 219.819H87.8945V228.612H96.684V219.819Z" fill="#030730"/>
<path d="M105.473 219.819H96.6836V228.612H105.473V219.819Z" fill="#8099B9"/>
<path d="M114.262 219.819H105.473V228.612H114.262V219.819Z" fill="#8099B9"/>
<path d="M123.053 219.819H114.264V228.612H123.053V219.819Z" fill="#030730"/>
<path d="M131.842 219.819H123.053V228.612H131.842V219.819Z" fill="#8099B9"/>
<path d="M140.631 219.819H131.842V228.612H140.631V219.819Z" fill="#8099B9"/>
<path d="M149.42 219.819H140.631V228.612H149.42V219.819Z" fill="#030730"/>
<path d="M158.209 219.819H149.42V228.612H158.209V219.819Z" fill="#8099B9"/>
<path d="M167 219.819H158.211V228.612H167V219.819Z" fill="#8099B9"/>
<path d="M175.789 219.819H167V228.612H175.789V219.819Z" fill="#8099B9"/>
<path d="M184.579 219.819H175.789V228.612H184.579V219.819Z" fill="#8099B9"/>
<path d="M193.37 219.819H184.58V228.612H193.37V219.819Z" fill="#030730"/>
<path d="M202.159 219.819H193.369V228.612H202.159V219.819Z" fill="#8099B9"/>
<path d="M210.948 219.819H202.158V228.612H210.948V219.819Z" fill="#8099B9"/>
<path d="M219.737 219.819H210.947V228.612H219.737V219.819Z" fill="#030730"/>
<path d="M228.526 219.819H219.736V228.612H228.526V219.819Z" fill="#8099B9"/>
<path d="M237.317 219.819H228.527V228.612H237.317V219.819Z" fill="#8099B9"/>
<path d="M246.106 219.819H237.316V228.612H246.106V219.819Z" fill="#030730"/>
<path d="M254.895 219.819H246.105V228.612H254.895V219.819Z" fill="#8099B9"/>
<path d="M263.684 219.819H254.895V228.612H263.684V219.819Z" fill="#8099B9"/>
<path d="M272.473 219.819H263.684V228.612H272.473V219.819Z" fill="#030730"/>
<path d="M281.262 219.819H272.473V228.612H281.262V219.819Z" fill="#030730"/>
<path d="M290.053 219.819H281.264V228.612H290.053V219.819Z" fill="#030730"/>
<path d="M298.842 219.819H290.053V228.612H298.842V219.819Z" fill="#C9D5E5"/>
<path d="M307.631 219.819H298.842V228.612H307.631V219.819Z" fill="#C9D5E5"/>
<path d="M316.42 219.819H307.631V228.612H316.42V219.819Z" fill="#030730"/>
<path d="M17.5785 228.612H8.78906V237.405H17.5785V228.612Z" fill="#030730"/>
<path d="M26.3696 228.612H17.5801V237.405H26.3696V228.612Z" fill="#C9D5E5"/>
<path d="M35.1586 228.612H26.3691V237.405H35.1586V228.612Z" fill="#C9D5E5"/>
<path d="M43.9477 228.612H35.1582V237.405H43.9477V228.612Z" fill="#030730"/>
<path d="M52.737 228.612H43.9475V237.405H52.737V228.612Z" fill="#030730"/>
<path d="M61.5258 228.612H52.7363V237.405H61.5258V228.612Z" fill="#030730"/>
<path d="M70.3168 228.612H61.5273V237.405H70.3168V228.612Z" fill="#030730"/>
<path d="M79.1059 228.612H70.3164V237.405H79.1059V228.612Z" fill="#030730"/>
<path d="M87.8949 228.612H79.1055V237.405H87.8949V228.612Z" fill="#030730"/>
<path d="M96.684 228.612H87.8945V237.405H96.684V228.612Z" fill="#030730"/>
<path d="M105.473 228.612H96.6836V237.405H105.473V228.612Z" fill="#030730"/>
<path d="M114.262 228.612H105.473V237.405H114.262V228.612Z" fill="#030730"/>
<path d="M123.053 228.612H114.264V237.405H123.053V228.612Z" fill="#030730"/>
<path d="M131.842 228.612H123.053V237.405H131.842V228.612Z" fill="#030730"/>
<path d="M140.631 228.612H131.842V237.405H140.631V228.612Z" fill="#030730"/>
<path d="M149.42 228.612H140.631V237.405H149.42V228.612Z" fill="#030730"/>
<path d="M158.209 228.612H149.42V237.405H158.209V228.612Z" fill="#030730"/>
<path d="M167 228.612H158.211V237.405H167V228.612Z" fill="#030730"/>
<path d="M175.789 228.612H167V237.405H175.789V228.612Z" fill="#030730"/>
<path d="M184.579 228.612H175.789V237.405H184.579V228.612Z" fill="#030730"/>
<path d="M193.37 228.612H184.58V237.405H193.37V228.612Z" fill="#030730"/>
<path d="M202.159 228.612H193.369V237.405H202.159V228.612Z" fill="#030730"/>
<path d="M210.948 228.612H202.158V237.405H210.948V228.612Z" fill="#030730"/>
<path d="M219.737 228.612H210.947V237.405H219.737V228.612Z" fill="#030730"/>
<path d="M228.526 228.612H219.736V237.405H228.526V228.612Z" fill="#030730"/>
<path d="M237.317 228.612H228.527V237.405H237.317V228.612Z" fill="#030730"/>
<path d="M246.106 228.612H237.316V237.405H246.106V228.612Z" fill="#030730"/>
<path d="M254.895 228.612H246.105V237.405H254.895V228.612Z" fill="#030730"/>
<path d="M263.684 228.612H254.895V237.405H263.684V228.612Z" fill="#030730"/>
<path d="M272.473 228.612H263.684V237.405H272.473V228.612Z" fill="#030730"/>
<path d="M281.262 228.612H272.473V237.405H281.262V228.612Z" fill="#030730"/>
<path d="M290.053 228.612H281.264V237.405H290.053V228.612Z" fill="#030730"/>
<path d="M298.842 228.612H290.053V237.405H298.842V228.612Z" fill="#030730"/>
<path d="M307.631 228.612H298.842V237.405H307.631V228.612Z" fill="#C9D5E5"/>
<path d="M316.42 228.612H307.631V237.405H316.42V228.612Z" fill="#C9D5E5"/>
<path d="M325.209 228.612H316.42V237.405H325.209V228.612Z" fill="#030730"/>
<path d="M17.5785 237.404H8.78906V246.197H17.5785V237.404Z" fill="#030730"/>
<path d="M26.3696 237.404H17.5801V246.197H26.3696V237.404Z" fill="#C9D5E5"/>
<path d="M35.1586 237.404H26.3691V246.197H35.1586V237.404Z" fill="#C9D5E5"/>
<path d="M43.9477 237.404H35.1582V246.197H43.9477V237.404Z" fill="#C9D5E5"/>
<path d="M52.737 237.404H43.9475V246.197H52.737V237.404Z" fill="#C9D5E5"/>
<path d="M61.5258 237.404H52.7363V246.197H61.5258V237.404Z" fill="#C9D5E5"/>
<path d="M70.3168 237.404H61.5273V246.197H70.3168V237.404Z" fill="#C9D5E5"/>
<path d="M79.1059 237.404H70.3164V246.197H79.1059V237.404Z" fill="#C9D5E5"/>
<path d="M87.8949 237.404H79.1055V246.197H87.8949V237.404Z" fill="#C9D5E5"/>
<path d="M96.684 237.404H87.8945V246.197H96.684V237.404Z" fill="#C9D5E5"/>
<path d="M105.473 237.404H96.6836V246.197H105.473V237.404Z" fill="#C9D5E5"/>
<path d="M114.262 237.404H105.473V246.197H114.262V237.404Z" fill="#C9D5E5"/>
<path d="M123.053 237.404H114.264V246.197H123.053V237.404Z" fill="#C9D5E5"/>
<path d="M131.842 237.404H123.053V246.197H131.842V237.404Z" fill="#C9D5E5"/>
<path d="M140.631 237.404H131.842V246.197H140.631V237.404Z" fill="#C9D5E5"/>
<path d="M149.42 237.404H140.631V246.197H149.42V237.404Z" fill="#C9D5E5"/>
<path d="M158.209 237.404H149.42V246.197H158.209V237.404Z" fill="#C9D5E5"/>
<path d="M167 237.404H158.211V246.197H167V237.404Z" fill="#C9D5E5"/>
<path d="M175.789 237.404H167V246.197H175.789V237.404Z" fill="#C9D5E5"/>
<path d="M184.579 237.404H175.789V246.197H184.579V237.404Z" fill="#C9D5E5"/>
<path d="M193.37 237.404H184.58V246.197H193.37V237.404Z" fill="#C9D5E5"/>
<path d="M202.159 237.404H193.369V246.197H202.159V237.404Z" fill="#C9D5E5"/>
<path d="M210.948 237.404H202.158V246.197H210.948V237.404Z" fill="#C9D5E5"/>
<path d="M219.737 237.404H210.947V246.197H219.737V237.404Z" fill="#C9D5E5"/>
<path d="M228.526 237.404H219.736V246.197H228.526V237.404Z" fill="#C9D5E5"/>
<path d="M237.317 237.404H228.527V246.197H237.317V237.404Z" fill="#C9D5E5"/>
<path d="M246.106 237.404H237.316V246.197H246.106V237.404Z" fill="#C9D5E5"/>
<path d="M254.895 237.404H246.105V246.197H254.895V237.404Z" fill="#C9D5E5"/>
<path d="M263.684 237.404H254.895V246.197H263.684V237.404Z" fill="#C9D5E5"/>
<path d="M272.473 237.404H263.684V246.197H272.473V237.404Z" fill="#C9D5E5"/>
<path d="M281.262 237.404H272.473V246.197H281.262V237.404Z" fill="#C9D5E5"/>
<path d="M290.053 237.404H281.264V246.197H290.053V237.404Z" fill="#C9D5E5"/>
<path d="M298.842 237.404H290.053V246.197H298.842V237.404Z" fill="#C9D5E5"/>
<path d="M307.631 237.404H298.842V246.197H307.631V237.404Z" fill="#C9D5E5"/>
<path d="M316.42 237.404H307.631V246.197H316.42V237.404Z" fill="#C9D5E5"/>
<path d="M325.209 237.404H316.42V246.197H325.209V237.404Z" fill="#030730"/>
<path d="M8.78948 246.197H0V254.99H8.78948V246.197Z" fill="#030730"/>
<path d="M17.5785 246.197H8.78906V254.99H17.5785V246.197Z" fill="#C9D5E5"/>
<path d="M26.3696 246.197H17.5801V254.99H26.3696V246.197Z" fill="#C9D5E5"/>
<path d="M35.1586 246.197H26.3691V254.99H35.1586V246.197Z" fill="#C9D5E5"/>
<path d="M43.9477 246.197H35.1582V254.99H43.9477V246.197Z" fill="#C9D5E5"/>
<path d="M52.7367 246.197H43.9473V254.99H52.7367V246.197Z" fill="#C9D5E5"/>
<path d="M61.5258 246.197H52.7363V254.99H61.5258V246.197Z" fill="#C9D5E5"/>
<path d="M70.3168 246.197H61.5273V254.99H70.3168V246.197Z" fill="#C9D5E5"/>
<path d="M79.1059 246.197H70.3164V254.99H79.1059V246.197Z" fill="#C9D5E5"/>
<path d="M87.8949 246.197H79.1055V254.99H87.8949V246.197Z" fill="#C9D5E5"/>
<path d="M96.684 246.197H87.8945V254.99H96.684V246.197Z" fill="#C9D5E5"/>
<path d="M105.473 246.197H96.6836V254.99H105.473V246.197Z" fill="#C9D5E5"/>
<path d="M114.262 246.197H105.473V254.99H114.262V246.197Z" fill="#C9D5E5"/>
<path d="M123.053 246.197H114.264V254.99H123.053V246.197Z" fill="#C9D5E5"/>
<path d="M131.842 246.197H123.053V254.99H131.842V246.197Z" fill="#C9D5E5"/>
<path d="M140.631 246.197H131.842V254.99H140.631V246.197Z" fill="#C9D5E5"/>
<path d="M149.42 246.197H140.631V254.99H149.42V246.197Z" fill="#8099B9"/>
<path d="M158.209 246.197H149.42V254.99H158.209V246.197Z" fill="#8099B9"/>
<path d="M167 246.197H158.211V254.99H167V246.197Z" fill="#8099B9"/>
<path d="M175.789 246.197H167V254.99H175.789V246.197Z" fill="#8099B9"/>
<path d="M184.579 246.197H175.789V254.99H184.579V246.197Z" fill="#8099B9"/>
<path d="M193.37 246.197H184.58V254.99H193.37V246.197Z" fill="#8099B9"/>
<path d="M202.159 246.197H193.369V254.99H202.159V246.197Z" fill="#C9D5E5"/>
<path d="M210.948 246.197H202.158V254.99H210.948V246.197Z" fill="#C9D5E5"/>
<path d="M219.737 246.197H210.947V254.99H219.737V246.197Z" fill="#C9D5E5"/>
<path d="M228.526 246.197H219.736V254.99H228.526V246.197Z" fill="#C9D5E5"/>
<path d="M237.317 246.197H228.527V254.99H237.317V246.197Z" fill="#C9D5E5"/>
<path d="M246.106 246.197H237.316V254.99H246.106V246.197Z" fill="#C9D5E5"/>
<path d="M254.895 246.197H246.105V254.99H254.895V246.197Z" fill="#C9D5E5"/>
<path d="M263.684 246.197H254.895V254.99H263.684V246.197Z" fill="#C9D5E5"/>
<path d="M272.473 246.197H263.684V254.99H272.473V246.197Z" fill="#C9D5E5"/>
<path d="M281.262 246.197H272.473V254.99H281.262V246.197Z" fill="#C9D5E5"/>
<path d="M290.053 246.197H281.264V254.99H290.053V246.197Z" fill="#C9D5E5"/>
<path d="M298.842 246.197H290.053V254.99H298.842V246.197Z" fill="#C9D5E5"/>
<path d="M307.631 246.197H298.842V254.99H307.631V246.197Z" fill="#C9D5E5"/>
<path d="M316.42 246.197H307.631V254.99H316.42V246.197Z" fill="#C9D5E5"/>
<path d="M325.209 246.197H316.42V254.99H325.209V246.197Z" fill="#C9D5E5"/>
<path d="M334 246.197H325.211V254.99H334V246.197Z" fill="#030730"/>
<path d="M8.78948 254.991H0V263.784H8.78948V254.991Z" fill="#030730"/>
<path d="M17.5785 254.991H8.78906V263.784H17.5785V254.991Z" fill="#C9D5E5"/>
<path d="M26.3696 254.991H17.5801V263.784H26.3696V254.991Z" fill="#C9D5E5"/>
<path d="M35.1586 254.991H26.3691V263.784H35.1586V254.991Z" fill="#C9D5E5"/>
<path d="M43.9477 254.991H35.1582V263.784H43.9477V254.991Z" fill="#C9D5E5"/>
<path d="M52.737 254.991H43.9475V263.784H52.737V254.991Z" fill="#C9D5E5"/>
<path d="M61.5258 254.991H52.7363V263.784H61.5258V254.991Z" fill="#C9D5E5"/>
<path d="M70.3168 254.991H61.5273V263.784H70.3168V254.991Z" fill="#C9D5E5"/>
<path d="M79.1059 254.991H70.3164V263.784H79.1059V254.991Z" fill="#C9D5E5"/>
<path d="M87.8949 254.991H79.1055V263.784H87.8949V254.991Z" fill="#C9D5E5"/>
<path d="M96.684 254.991H87.8945V263.784H96.684V254.991Z" fill="#C9D5E5"/>
<path d="M105.473 254.991H96.6836V263.784H105.473V254.991Z" fill="#C9D5E5"/>
<path d="M114.262 254.991H105.473V263.784H114.262V254.991Z" fill="#C9D5E5"/>
<path d="M123.053 254.991H114.264V263.784H123.053V254.991Z" fill="#C9D5E5"/>
<path d="M131.842 254.991H123.053V263.784H131.842V254.991Z" fill="#C9D5E5"/>
<path d="M140.631 254.991H131.842V263.784H140.631V254.991Z" fill="#C9D5E5"/>
<path d="M149.42 254.991H140.631V263.784H149.42V254.991Z" fill="#8099B9"/>
<path d="M158.209 254.991H149.42V263.784H158.209V254.991Z" fill="#8099B9"/>
<path d="M167 254.991H158.211V263.784H167V254.991Z" fill="#8099B9"/>
<path d="M175.789 254.991H167V263.784H175.789V254.991Z" fill="#8099B9"/>
<path d="M184.579 254.991H175.789V263.784H184.579V254.991Z" fill="#8099B9"/>
<path d="M193.37 254.991H184.58V263.784H193.37V254.991Z" fill="#8099B9"/>
<path d="M202.159 254.991H193.369V263.784H202.159V254.991Z" fill="#C9D5E5"/>
<path d="M210.948 254.991H202.158V263.784H210.948V254.991Z" fill="#C9D5E5"/>
<path d="M219.737 254.991H210.947V263.784H219.737V254.991Z" fill="#C9D5E5"/>
<path d="M228.526 254.991H219.736V263.784H228.526V254.991Z" fill="#C9D5E5"/>
<path d="M237.317 254.991H228.527V263.784H237.317V254.991Z" fill="#C9D5E5"/>
<path d="M246.106 254.991H237.316V263.784H246.106V254.991Z" fill="#C9D5E5"/>
<path d="M254.895 254.991H246.105V263.784H254.895V254.991Z" fill="#C9D5E5"/>
<path d="M263.684 254.991H254.895V263.784H263.684V254.991Z" fill="#C9D5E5"/>
<path d="M272.473 254.991H263.684V263.784H272.473V254.991Z" fill="#C9D5E5"/>
<path d="M281.262 254.991H272.473V263.784H281.262V254.991Z" fill="#C9D5E5"/>
<path d="M290.053 254.991H281.264V263.784H290.053V254.991Z" fill="#C9D5E5"/>
<path d="M298.842 254.991H290.053V263.784H298.842V254.991Z" fill="#C9D5E5"/>
<path d="M307.631 254.991H298.842V263.784H307.631V254.991Z" fill="#C9D5E5"/>
<path d="M316.42 254.991H307.631V263.784H316.42V254.991Z" fill="#C9D5E5"/>
<path d="M325.209 254.991H316.42V263.784H325.209V254.991Z" fill="#C9D5E5"/>
<path d="M334 254.991H325.211V263.784H334V254.991Z" fill="#030730"/>
<path d="M8.78948 263.783H0V272.576H8.78948V263.783Z" fill="#030730"/>
<path d="M17.5785 263.783H8.78906V272.576H17.5785V263.783Z" fill="#030730"/>
<path d="M26.3696 263.783H17.5801V272.576H26.3696V263.783Z" fill="#C9D5E5"/>
<path d="M35.1586 263.783H26.3691V272.576H35.1586V263.783Z" fill="#C9D5E5"/>
<path d="M43.9477 263.783H35.1582V272.576H43.9477V263.783Z" fill="#C9D5E5"/>
<path d="M52.737 263.783H43.9475V272.576H52.737V263.783Z" fill="#C9D5E5"/>
<path d="M61.5258 263.783H52.7363V272.576H61.5258V263.783Z" fill="#C9D5E5"/>
<path d="M70.3168 263.783H61.5273V272.576H70.3168V263.783Z" fill="#C9D5E5"/>
<path d="M79.1059 263.783H70.3164V272.576H79.1059V263.783Z" fill="#C9D5E5"/>
<path d="M87.8949 263.783H79.1055V272.576H87.8949V263.783Z" fill="#C9D5E5"/>
<path d="M96.684 263.783H87.8945V272.576H96.684V263.783Z" fill="#C9D5E5"/>
<path d="M105.473 263.783H96.6836V272.576H105.473V263.783Z" fill="#C9D5E5"/>
<path d="M114.262 263.783H105.473V272.576H114.262V263.783Z" fill="#C9D5E5"/>
<path d="M123.053 263.783H114.264V272.576H123.053V263.783Z" fill="#C9D5E5"/>
<path d="M131.842 263.783H123.053V272.576H131.842V263.783Z" fill="#C9D5E5"/>
<path d="M140.631 263.783H131.842V272.576H140.631V263.783Z" fill="#C9D5E5"/>
<path d="M149.42 263.783H140.631V272.576H149.42V263.783Z" fill="#C9D5E5"/>
<path d="M158.209 263.783H149.42V272.576H158.209V263.783Z" fill="#C9D5E5"/>
<path d="M167 263.783H158.211V272.576H167V263.783Z" fill="#C9D5E5"/>
<path d="M175.789 263.783H167V272.576H175.789V263.783Z" fill="#C9D5E5"/>
<path d="M184.579 263.783H175.789V272.576H184.579V263.783Z" fill="#C9D5E5"/>
<path d="M193.37 263.783H184.58V272.576H193.37V263.783Z" fill="#C9D5E5"/>
<path d="M202.159 263.783H193.369V272.576H202.159V263.783Z" fill="#C9D5E5"/>
<path d="M210.948 263.783H202.158V272.576H210.948V263.783Z" fill="#C9D5E5"/>
<path d="M219.737 263.783H210.947V272.576H219.737V263.783Z" fill="#C9D5E5"/>
<path d="M228.526 263.783H219.736V272.576H228.526V263.783Z" fill="#C9D5E5"/>
<path d="M237.317 263.783H228.527V272.576H237.317V263.783Z" fill="#C9D5E5"/>
<path d="M246.106 263.783H237.316V272.576H246.106V263.783Z" fill="#C9D5E5"/>
<path d="M254.895 263.783H246.105V272.576H254.895V263.783Z" fill="#C9D5E5"/>
<path d="M263.684 263.783H254.895V272.576H263.684V263.783Z" fill="#C9D5E5"/>
<path d="M272.473 263.783H263.684V272.576H272.473V263.783Z" fill="#C9D5E5"/>
<path d="M281.262 263.783H272.473V272.576H281.262V263.783Z" fill="#C9D5E5"/>
<path d="M290.053 263.783H281.264V272.576H290.053V263.783Z" fill="#C9D5E5"/>
<path d="M298.842 263.783H290.053V272.576H298.842V263.783Z" fill="#C9D5E5"/>
<path d="M307.631 263.783H298.842V272.576H307.631V263.783Z" fill="#C9D5E5"/>
<path d="M316.42 263.783H307.631V272.576H316.42V263.783Z" fill="#C9D5E5"/>
<path d="M325.209 263.783H316.42V272.576H325.209V263.783Z" fill="#030730"/>
<path d="M334 263.783H325.211V272.576H334V263.783Z" fill="#030730"/>
<path d="M8.78948 272.576H0V281.369H8.78948V272.576Z" fill="#030730"/>
<path d="M17.5785 272.576H8.78906V281.369H17.5785V272.576Z" fill="#5F5A78"/>
<path d="M26.3696 272.576H17.5801V281.369H26.3696V272.576Z" fill="#030730"/>
<path d="M35.1586 272.576H26.3691V281.369H35.1586V272.576Z" fill="#030730"/>
<path d="M43.9477 272.576H35.1582V281.369H43.9477V272.576Z" fill="#030730"/>
<path d="M52.7367 272.576H43.9473V281.369H52.7367V272.576Z" fill="#030730"/>
<path d="M61.5258 272.576H52.7363V281.369H61.5258V272.576Z" fill="#030730"/>
<path d="M70.3168 272.576H61.5273V281.369H70.3168V272.576Z" fill="#030730"/>
<path d="M79.1059 272.576H70.3164V281.369H79.1059V272.576Z" fill="#030730"/>
<path d="M87.8949 272.576H79.1055V281.369H87.8949V272.576Z" fill="#030730"/>
<path d="M96.684 272.576H87.8945V281.369H96.684V272.576Z" fill="#030730"/>
<path d="M105.473 272.576H96.6836V281.369H105.473V272.576Z" fill="#030730"/>
<path d="M114.262 272.576H105.473V281.369H114.262V272.576Z" fill="#030730"/>
<path d="M123.053 272.576H114.264V281.369H123.053V272.576Z" fill="#030730"/>
<path d="M131.842 272.576H123.053V281.369H131.842V272.576Z" fill="#030730"/>
<path d="M140.631 272.576H131.842V281.369H140.631V272.576Z" fill="#030730"/>
<path d="M149.42 272.576H140.631V281.369H149.42V272.576Z" fill="#030730"/>
<path d="M158.209 272.576H149.42V281.369H158.209V272.576Z" fill="#030730"/>
<path d="M167 272.576H158.211V281.369H167V272.576Z" fill="#030730"/>
<path d="M175.789 272.576H167V281.369H175.789V272.576Z" fill="#030730"/>
<path d="M184.579 272.576H175.789V281.369H184.579V272.576Z" fill="#030730"/>
<path d="M193.37 272.576H184.58V281.369H193.37V272.576Z" fill="#030730"/>
<path d="M202.159 272.576H193.369V281.369H202.159V272.576Z" fill="#030730"/>
<path d="M210.948 272.576H202.158V281.369H210.948V272.576Z" fill="#030730"/>
<path d="M219.737 272.576H210.947V281.369H219.737V272.576Z" fill="#030730"/>
<path d="M228.526 272.576H219.736V281.369H228.526V272.576Z" fill="#030730"/>
<path d="M237.317 272.576H228.527V281.369H237.317V272.576Z" fill="#030730"/>
<path d="M246.106 272.576H237.316V281.369H246.106V272.576Z" fill="#030730"/>
<path d="M254.895 272.576H246.105V281.369H254.895V272.576Z" fill="#030730"/>
<path d="M263.684 272.576H254.895V281.369H263.684V272.576Z" fill="#030730"/>
<path d="M272.473 272.576H263.684V281.369H272.473V272.576Z" fill="#030730"/>
<path d="M281.262 272.576H272.473V281.369H281.262V272.576Z" fill="#030730"/>
<path d="M290.053 272.576H281.264V281.369H290.053V272.576Z" fill="#030730"/>
<path d="M298.842 272.576H290.053V281.369H298.842V272.576Z" fill="#030730"/>
<path d="M307.631 272.576H298.842V281.369H307.631V272.576Z" fill="#030730"/>
<path d="M316.42 272.576H307.631V281.369H316.42V272.576Z" fill="#030730"/>
<path d="M325.209 272.576H316.42V281.369H325.209V272.576Z" fill="#5F5A78"/>
<path d="M334 272.576H325.211V281.369H334V272.576Z" fill="#030730"/>
<path d="M8.78948 281.368H0V290.161H8.78948V281.368Z" fill="#030730"/>
<path d="M17.5785 281.368H8.78906V290.161H17.5785V281.368Z" fill="#47435C"/>
<path d="M26.3696 281.368H17.5801V290.161H26.3696V281.368Z" fill="#5F5A78"/>
<path d="M35.1586 281.368H26.3691V290.161H35.1586V281.368Z" fill="#5F5A78"/>
<path d="M43.9477 281.368H35.1582V290.161H43.9477V281.368Z" fill="#5F5A78"/>
<path d="M52.737 281.368H43.9475V290.161H52.737V281.368Z" fill="#5F5A78"/>
<path d="M61.5258 281.368H52.7363V290.161H61.5258V281.368Z" fill="#5F5A78"/>
<path d="M70.3168 281.368H61.5273V290.161H70.3168V281.368Z" fill="#5F5A78"/>
<path d="M79.1059 281.368H70.3164V290.161H79.1059V281.368Z" fill="#5F5A78"/>
<path d="M87.8949 281.368H79.1055V290.161H87.8949V281.368Z" fill="#5F5A78"/>
<path d="M96.684 281.368H87.8945V290.161H96.684V281.368Z" fill="#5F5A78"/>
<path d="M105.473 281.368H96.6836V290.161H105.473V281.368Z" fill="#5F5A78"/>
<path d="M114.262 281.368H105.473V290.161H114.262V281.368Z" fill="#5F5A78"/>
<path d="M123.053 281.368H114.264V290.161H123.053V281.368Z" fill="#5F5A78"/>
<path d="M131.842 281.368H123.053V290.161H131.842V281.368Z" fill="#5F5A78"/>
<path d="M140.631 281.368H131.842V290.161H140.631V281.368Z" fill="#5F5A78"/>
<path d="M149.42 281.368H140.631V290.161H149.42V281.368Z" fill="#5F5A78"/>
<path d="M158.209 281.368H149.42V290.161H158.209V281.368Z" fill="#5F5A78"/>
<path d="M167 281.368H158.211V290.161H167V281.368Z" fill="#5F5A78"/>
<path d="M175.789 281.368H167V290.161H175.789V281.368Z" fill="#5F5A78"/>
<path d="M184.579 281.368H175.789V290.161H184.579V281.368Z" fill="#5F5A78"/>
<path d="M193.37 281.368H184.58V290.161H193.37V281.368Z" fill="#5F5A78"/>
<path d="M202.159 281.368H193.369V290.161H202.159V281.368Z" fill="#5F5A78"/>
<path d="M210.948 281.368H202.158V290.161H210.948V281.368Z" fill="#5F5A78"/>
<path d="M219.737 281.368H210.947V290.161H219.737V281.368Z" fill="#5F5A78"/>
<path d="M228.526 281.368H219.736V290.161H228.526V281.368Z" fill="#5F5A78"/>
<path d="M237.317 281.368H228.527V290.161H237.317V281.368Z" fill="#5F5A78"/>
<path d="M246.106 281.368H237.316V290.161H246.106V281.368Z" fill="#5F5A78"/>
<path d="M254.895 281.368H246.105V290.161H254.895V281.368Z" fill="#5F5A78"/>
<path d="M263.684 281.368H254.895V290.161H263.684V281.368Z" fill="#5F5A78"/>
<path d="M272.473 281.368H263.684V290.161H272.473V281.368Z" fill="#5F5A78"/>
<path d="M281.262 281.368H272.473V290.161H281.262V281.368Z" fill="#5F5A78"/>
<path d="M290.053 281.368H281.264V290.161H290.053V281.368Z" fill="#5F5A78"/>
<path d="M298.842 281.368H290.053V290.161H298.842V281.368Z" fill="#5F5A78"/>
<path d="M307.631 281.368H298.842V290.161H307.631V281.368Z" fill="#5F5A78"/>
<path d="M316.42 281.368H307.631V290.161H316.42V281.368Z" fill="#5F5A78"/>
<path d="M325.209 281.368H316.42V290.161H325.209V281.368Z" fill="#47435C"/>
<path d="M334 281.368H325.211V290.161H334V281.368Z" fill="#030730"/>
<path opacity="0.3" d="M8.78948 290.162H0V298.955H8.78948V290.162Z" fill="#303030"/>
<path d="M17.5785 290.162H8.78906V298.955H17.5785V290.162Z" fill="#030730"/>
<path d="M26.3696 290.162H17.5801V298.955H26.3696V290.162Z" fill="#47435C"/>
<path d="M35.1586 290.162H26.3691V298.955H35.1586V290.162Z" fill="#47435C"/>
<path d="M43.9477 290.162H35.1582V298.955H43.9477V290.162Z" fill="#47435C"/>
<path d="M52.7367 290.162H43.9473V298.955H52.7367V290.162Z" fill="#47435C"/>
<path d="M61.5258 290.162H52.7363V298.955H61.5258V290.162Z" fill="#47435C"/>
<path d="M70.3168 290.162H61.5273V298.955H70.3168V290.162Z" fill="#47435C"/>
<path d="M79.1059 290.162H70.3164V298.955H79.1059V290.162Z" fill="#47435C"/>
<path d="M87.8949 290.162H79.1055V298.955H87.8949V290.162Z" fill="#47435C"/>
<path d="M96.684 290.162H87.8945V298.955H96.684V290.162Z" fill="#47435C"/>
<path d="M105.473 290.162H96.6836V298.955H105.473V290.162Z" fill="#47435C"/>
<path d="M114.262 290.162H105.473V298.955H114.262V290.162Z" fill="#47435C"/>
<path d="M123.053 290.162H114.264V298.955H123.053V290.162Z" fill="#47435C"/>
<path d="M131.842 290.162H123.053V298.955H131.842V290.162Z" fill="#47435C"/>
<path d="M140.631 290.162H131.842V298.955H140.631V290.162Z" fill="#47435C"/>
<path d="M149.42 290.162H140.631V298.955H149.42V290.162Z" fill="#47435C"/>
<path d="M158.209 290.162H149.42V298.955H158.209V290.162Z" fill="#47435C"/>
<path d="M167 290.162H158.211V298.955H167V290.162Z" fill="#47435C"/>
<path d="M175.789 290.162H167V298.955H175.789V290.162Z" fill="#47435C"/>
<path d="M184.579 290.162H175.789V298.955H184.579V290.162Z" fill="#47435C"/>
<path d="M193.37 290.162H184.58V298.955H193.37V290.162Z" fill="#47435C"/>
<path d="M202.159 290.162H193.369V298.955H202.159V290.162Z" fill="#47435C"/>
<path d="M210.948 290.162H202.158V298.955H210.948V290.162Z" fill="#47435C"/>
<path d="M219.737 290.162H210.947V298.955H219.737V290.162Z" fill="#47435C"/>
<path d="M228.526 290.162H219.736V298.955H228.526V290.162Z" fill="#47435C"/>
<path d="M237.317 290.162H228.527V298.955H237.317V290.162Z" fill="#47435C"/>
<path d="M246.106 290.162H237.316V298.955H246.106V290.162Z" fill="#47435C"/>
<path d="M254.895 290.162H246.105V298.955H254.895V290.162Z" fill="#47435C"/>
<path d="M263.684 290.162H254.895V298.955H263.684V290.162Z" fill="#47435C"/>
<path d="M272.473 290.162H263.684V298.955H272.473V290.162Z" fill="#47435C"/>
<path d="M281.262 290.162H272.473V298.955H281.262V290.162Z" fill="#47435C"/>
<path d="M290.053 290.162H281.264V298.955H290.053V290.162Z" fill="#47435C"/>
<path d="M298.842 290.162H290.053V298.955H298.842V290.162Z" fill="#47435C"/>
<path d="M307.631 290.162H298.842V298.955H307.631V290.162Z" fill="#47435C"/>
<path d="M316.42 290.162H307.631V298.955H316.42V290.162Z" fill="#47435C"/>
<path d="M325.209 290.162H316.42V298.955H325.209V290.162Z" fill="#030730"/>
<path opacity="0.3" d="M334 290.162H325.211V298.955H334V290.162Z" fill="#303030"/>
<path opacity="0.3" d="M17.5785 298.953H8.78906V307.746H17.5785V298.953Z" fill="#303030"/>
<path d="M26.3696 298.953H17.5801V307.746H26.3696V298.953Z" fill="#030730"/>
<path d="M35.1586 298.953H26.3691V307.746H35.1586V298.953Z" fill="#030730"/>
<path d="M43.9477 298.953H35.1582V307.746H43.9477V298.953Z" fill="#030730"/>
<path d="M52.7367 298.953H43.9473V307.746H52.7367V298.953Z" fill="#030730"/>
<path d="M61.5258 298.953H52.7363V307.746H61.5258V298.953Z" fill="#030730"/>
<path d="M70.3168 298.953H61.5273V307.746H70.3168V298.953Z" fill="#030730"/>
<path d="M79.1059 298.953H70.3164V307.746H79.1059V298.953Z" fill="#030730"/>
<path d="M87.8949 298.953H79.1055V307.746H87.8949V298.953Z" fill="#030730"/>
<path d="M96.684 298.953H87.8945V307.746H96.684V298.953Z" fill="#030730"/>
<path d="M105.473 298.953H96.6836V307.746H105.473V298.953Z" fill="#030730"/>
<path d="M114.262 298.953H105.473V307.746H114.262V298.953Z" fill="#030730"/>
<path d="M123.053 298.953H114.264V307.746H123.053V298.953Z" fill="#030730"/>
<path d="M131.842 298.953H123.053V307.746H131.842V298.953Z" fill="#030730"/>
<path d="M140.631 298.953H131.842V307.746H140.631V298.953Z" fill="#030730"/>
<path d="M149.42 298.953H140.631V307.746H149.42V298.953Z" fill="#030730"/>
<path d="M158.209 298.953H149.42V307.746H158.209V298.953Z" fill="#030730"/>
<path d="M167 298.953H158.211V307.746H167V298.953Z" fill="#030730"/>
<path d="M175.789 298.953H167V307.746H175.789V298.953Z" fill="#030730"/>
<path d="M184.579 298.953H175.789V307.746H184.579V298.953Z" fill="#030730"/>
<path d="M193.37 298.953H184.58V307.746H193.37V298.953Z" fill="#030730"/>
<path d="M202.159 298.953H193.369V307.746H202.159V298.953Z" fill="#030730"/>
<path d="M210.948 298.953H202.158V307.746H210.948V298.953Z" fill="#030730"/>
<path d="M219.737 298.953H210.947V307.746H219.737V298.953Z" fill="#030730"/>
<path d="M228.526 298.953H219.736V307.746H228.526V298.953Z" fill="#030730"/>
<path d="M237.317 298.953H228.527V307.746H237.317V298.953Z" fill="#030730"/>
<path d="M246.106 298.953H237.316V307.746H246.106V298.953Z" fill="#030730"/>
<path d="M254.895 298.953H246.105V307.746H254.895V298.953Z" fill="#030730"/>
<path d="M263.684 298.953H254.895V307.746H263.684V298.953Z" fill="#030730"/>
<path d="M272.473 298.953H263.684V307.746H272.473V298.953Z" fill="#030730"/>
<path d="M281.262 298.953H272.473V307.746H281.262V298.953Z" fill="#030730"/>
<path d="M290.053 298.953H281.264V307.746H290.053V298.953Z" fill="#030730"/>
<path d="M298.842 298.953H290.053V307.746H298.842V298.953Z" fill="#030730"/>
<path d="M307.631 298.953H298.842V307.746H307.631V298.953Z" fill="#030730"/>
<path d="M316.42 298.953H307.631V307.746H316.42V298.953Z" fill="#030730"/>
<path opacity="0.3" d="M325.209 298.953H316.42V307.746H325.209V298.953Z" fill="#303030"/>
<path opacity="0.3" d="M26.3696 307.747H17.5801V316.54H26.3696V307.747Z" fill="#303030"/>
<path opacity="0.3" d="M35.1586 307.747H26.3691V316.54H35.1586V307.747Z" fill="#303030"/>
<path opacity="0.3" d="M43.9477 307.747H35.1582V316.54H43.9477V307.747Z" fill="#303030"/>
<path opacity="0.3" d="M52.737 307.747H43.9475V316.54H52.737V307.747Z" fill="#303030"/>
<path opacity="0.3" d="M61.5258 307.747H52.7363V316.54H61.5258V307.747Z" fill="#303030"/>
<path opacity="0.3" d="M70.3168 307.747H61.5273V316.54H70.3168V307.747Z" fill="#303030"/>
<path opacity="0.3" d="M79.1059 307.747H70.3164V316.54H79.1059V307.747Z" fill="#303030"/>
<path opacity="0.3" d="M87.8949 307.747H79.1055V316.54H87.8949V307.747Z" fill="#303030"/>
<path opacity="0.3" d="M96.684 307.747H87.8945V316.54H96.684V307.747Z" fill="#303030"/>
<path opacity="0.3" d="M105.473 307.747H96.6836V316.54H105.473V307.747Z" fill="#303030"/>
<path opacity="0.3" d="M114.262 307.747H105.473V316.54H114.262V307.747Z" fill="#303030"/>
<path opacity="0.3" d="M123.053 307.747H114.264V316.54H123.053V307.747Z" fill="#303030"/>
<path opacity="0.3" d="M131.842 307.747H123.053V316.54H131.842V307.747Z" fill="#303030"/>
<path opacity="0.3" d="M140.631 307.747H131.842V316.54H140.631V307.747Z" fill="#303030"/>
<path opacity="0.3" d="M149.42 307.747H140.631V316.54H149.42V307.747Z" fill="#303030"/>
<path opacity="0.3" d="M158.209 307.747H149.42V316.54H158.209V307.747Z" fill="#303030"/>
<path opacity="0.3" d="M167 307.747H158.211V316.54H167V307.747Z" fill="#303030"/>
<path opacity="0.3" d="M175.789 307.747H167V316.54H175.789V307.747Z" fill="#303030"/>
<path opacity="0.3" d="M184.579 307.747H175.789V316.54H184.579V307.747Z" fill="#303030"/>
<path opacity="0.3" d="M193.37 307.747H184.58V316.54H193.37V307.747Z" fill="#303030"/>
<path opacity="0.3" d="M202.159 307.747H193.369V316.54H202.159V307.747Z" fill="#303030"/>
<path opacity="0.3" d="M210.948 307.747H202.158V316.54H210.948V307.747Z" fill="#303030"/>
<path opacity="0.3" d="M219.737 307.747H210.947V316.54H219.737V307.747Z" fill="#303030"/>
<path opacity="0.3" d="M228.526 307.747H219.736V316.54H228.526V307.747Z" fill="#303030"/>
<path opacity="0.3" d="M237.317 307.747H228.527V316.54H237.317V307.747Z" fill="#303030"/>
<path opacity="0.3" d="M246.106 307.747H237.316V316.54H246.106V307.747Z" fill="#303030"/>
<path opacity="0.3" d="M254.895 307.747H246.105V316.54H254.895V307.747Z" fill="#303030"/>
<path opacity="0.3" d="M263.684 307.747H254.895V316.54H263.684V307.747Z" fill="#303030"/>
<path opacity="0.3" d="M272.473 307.747H263.684V316.54H272.473V307.747Z" fill="#303030"/>
<path opacity="0.3" d="M281.262 307.747H272.473V316.54H281.262V307.747Z" fill="#303030"/>
<path opacity="0.3" d="M290.053 307.747H281.264V316.54H290.053V307.747Z" fill="#303030"/>
<path opacity="0.3" d="M298.842 307.747H290.053V316.54H298.842V307.747Z" fill="#303030"/>
<path opacity="0.3" d="M307.631 307.747H298.842V316.54H307.631V307.747Z" fill="#303030"/>
<path opacity="0.3" d="M316.42 307.747H307.631V316.54H316.42V307.747Z" fill="#303030"/>
</svg>
