<svg width="324" height="130" viewBox="0 0 324 130" fill="none" xmlns="http://www.w3.org/2000/svg">
<rect width="324" height="130" fill="white"/>
<path d="M143.415 42.983L143.057 52.1875H139.784V46H137.943V42.983H143.415ZM121.17 46V19.8182H124.188V43.0852H137.688V19.8182H140.705V46H121.17ZM156.029 46.4091C154.137 46.4091 152.505 45.9915 151.133 45.1562C149.77 44.3125 148.717 43.1364 147.975 41.6278C147.243 40.1108 146.876 38.3466 146.876 36.3352C146.876 34.3239 147.243 32.5511 147.975 31.017C148.717 29.4744 149.748 28.2727 151.069 27.4119C152.399 26.5426 153.95 26.108 155.723 26.108C156.745 26.108 157.755 26.2784 158.752 26.6193C159.75 26.9602 160.657 27.5142 161.475 28.2812C162.294 29.0398 162.946 30.0455 163.431 31.2983C163.917 32.5511 164.16 34.0937 164.16 35.9261V37.2045H149.024V34.5966H161.092C161.092 33.4886 160.87 32.5 160.427 31.6307C159.993 30.7614 159.37 30.0753 158.561 29.5724C157.76 29.0696 156.814 28.8182 155.723 28.8182C154.521 28.8182 153.481 29.1165 152.603 29.7131C151.734 30.3011 151.065 31.0682 150.596 32.0142C150.127 32.9602 149.893 33.9744 149.893 35.0568V36.7955C149.893 38.2784 150.149 39.5355 150.66 40.5668C151.18 41.5895 151.9 42.3693 152.821 42.9062C153.741 43.4347 154.811 43.6989 156.029 43.6989C156.822 43.6989 157.538 43.5881 158.177 43.3665C158.825 43.1364 159.383 42.7955 159.852 42.3438C160.321 41.8835 160.683 41.3125 160.939 40.6307L163.853 41.4489C163.547 42.4375 163.031 43.3068 162.306 44.0568C161.582 44.7983 160.687 45.3778 159.622 45.7955C158.556 46.2045 157.359 46.4091 156.029 46.4091ZM181.892 34.8011V37.6136H171.051V34.8011H181.892ZM171.767 26.3636V46H168.75V26.3636H171.767ZM184.193 26.3636V46H181.176V26.3636H184.193ZM187.031 29.1761V26.3636H202.985V29.1761H196.542V46H193.525V29.1761H187.031ZM207.386 53.3636V26.3636H210.301V29.483H210.659C210.881 29.142 211.188 28.7074 211.58 28.179C211.98 27.642 212.551 27.1648 213.293 26.7472C214.043 26.321 215.057 26.108 216.335 26.108C217.989 26.108 219.446 26.5213 220.707 27.348C221.969 28.1747 222.953 29.3466 223.661 30.8636C224.368 32.3807 224.722 34.1705 224.722 36.233C224.722 38.3125 224.368 40.1151 223.661 41.6406C222.953 43.1577 221.973 44.3338 220.72 45.169C219.467 45.9957 218.023 46.4091 216.386 46.4091C215.125 46.4091 214.115 46.2003 213.357 45.7827C212.598 45.3565 212.014 44.875 211.605 44.3381C211.196 43.7926 210.881 43.3409 210.659 42.983H210.403V53.3636H207.386ZM210.352 36.1818C210.352 37.6648 210.57 38.973 211.004 40.1065C211.439 41.2315 212.074 42.1136 212.909 42.7528C213.744 43.3835 214.767 43.6989 215.977 43.6989C217.239 43.6989 218.291 43.3665 219.135 42.7017C219.987 42.0284 220.626 41.125 221.053 39.9915C221.487 38.8494 221.705 37.5795 221.705 36.1818C221.705 34.8011 221.491 33.5568 221.065 32.4489C220.648 31.3324 220.013 30.4503 219.161 29.8026C218.317 29.1463 217.256 28.8182 215.977 28.8182C214.75 28.8182 213.719 29.1293 212.884 29.7514C212.048 30.3651 211.418 31.2259 210.991 32.3338C210.565 33.4332 210.352 34.7159 210.352 36.1818ZM122.244 82H118.92L128.534 55.8182H131.807L141.42 82H138.097L130.273 59.9602H130.068L122.244 82ZM123.472 71.7727H136.869V74.5852H123.472V71.7727ZM143.351 82V79.1875H144.067C144.655 79.1875 145.145 79.0724 145.537 78.8423C145.929 78.6037 146.244 78.1903 146.483 77.6023C146.73 77.0057 146.918 76.179 147.045 75.1222C147.182 74.0568 147.28 72.7017 147.339 71.0568L147.697 62.3636H160.788V82H157.771V65.1761H150.561L150.254 72.1818C150.186 73.7926 150.041 75.2116 149.82 76.4389C149.607 77.6577 149.278 78.6804 148.835 79.5071C148.401 80.3338 147.821 80.956 147.097 81.3736C146.372 81.7912 145.464 82 144.374 82H143.351ZM177.062 77.9091L183.915 62.3636H186.778L178.29 82H175.835L167.5 62.3636H170.312L177.062 77.9091ZM169.341 62.3636V82H166.324V62.3636H169.341ZM184.784 82V62.3636H187.801V82H184.784ZM199.102 82.4602C197.858 82.4602 196.729 82.2259 195.714 81.7571C194.7 81.2798 193.895 80.5938 193.298 79.6989C192.702 78.7955 192.403 77.7045 192.403 76.4261C192.403 75.3011 192.625 74.3892 193.068 73.6903C193.511 72.983 194.104 72.429 194.845 72.0284C195.587 71.6278 196.405 71.3295 197.3 71.1335C198.203 70.929 199.111 70.767 200.023 70.6477C201.216 70.4943 202.183 70.3793 202.925 70.3026C203.675 70.2173 204.22 70.0767 204.561 69.8807C204.911 69.6847 205.085 69.3437 205.085 68.858V68.7557C205.085 67.4943 204.74 66.5142 204.05 65.8153C203.368 65.1165 202.332 64.767 200.943 64.767C199.503 64.767 198.374 65.0824 197.555 65.7131C196.737 66.3437 196.162 67.017 195.83 67.733L192.966 66.7102C193.477 65.517 194.159 64.5881 195.011 63.9233C195.872 63.25 196.81 62.7812 197.824 62.517C198.847 62.2443 199.852 62.108 200.841 62.108C201.472 62.108 202.196 62.1847 203.014 62.3381C203.841 62.483 204.638 62.7855 205.405 63.2457C206.18 63.706 206.824 64.4006 207.335 65.3295C207.847 66.2585 208.102 67.5028 208.102 69.0625V82H205.085V79.3409H204.932C204.727 79.767 204.386 80.223 203.909 80.7088C203.432 81.1946 202.797 81.608 202.004 81.9489C201.212 82.2898 200.244 82.4602 199.102 82.4602ZM199.562 79.75C200.756 79.75 201.761 79.5156 202.58 79.0469C203.406 78.5781 204.028 77.973 204.446 77.2315C204.872 76.4901 205.085 75.7102 205.085 74.892V72.1307C204.957 72.2841 204.676 72.4247 204.241 72.5526C203.815 72.6719 203.321 72.7784 202.759 72.8722C202.205 72.9574 201.663 73.0341 201.135 73.1023C200.615 73.1619 200.193 73.2131 199.869 73.2557C199.085 73.358 198.352 73.5241 197.67 73.7543C196.997 73.9759 196.452 74.3125 196.034 74.7642C195.625 75.2074 195.42 75.8125 195.42 76.5795C195.42 77.6278 195.808 78.4205 196.584 78.9574C197.368 79.4858 198.361 79.75 199.562 79.75ZM212.382 76.9886H215.603C215.672 77.875 216.072 78.5483 216.805 79.0085C217.547 79.4688 218.51 79.6989 219.694 79.6989C220.904 79.6989 221.94 79.4517 222.801 78.9574C223.662 78.4545 224.092 77.6449 224.092 76.5284C224.092 75.8722 223.93 75.3011 223.606 74.8153C223.282 74.321 222.826 73.9375 222.238 73.6648C221.65 73.392 220.956 73.2557 220.154 73.2557H216.779V70.5455H220.154C221.356 70.5455 222.243 70.2727 222.814 69.7273C223.393 69.1818 223.683 68.5 223.683 67.6818C223.683 66.804 223.372 66.1009 222.75 65.5724C222.127 65.0355 221.245 64.767 220.103 64.767C218.953 64.767 217.994 65.027 217.227 65.5469C216.46 66.0582 216.055 66.7187 216.012 67.5284H212.842C212.876 66.4716 213.2 65.5384 213.814 64.7287C214.427 63.9105 215.262 63.2713 216.319 62.8111C217.376 62.3423 218.586 62.108 219.95 62.108C221.331 62.108 222.528 62.3509 223.542 62.8366C224.565 63.3139 225.353 63.9659 225.907 64.7926C226.47 65.6108 226.751 66.5398 226.751 67.5795C226.751 68.6875 226.44 69.5824 225.818 70.2642C225.196 70.946 224.416 71.4318 223.478 71.7216V71.9261C224.22 71.9773 224.863 72.2159 225.409 72.642C225.963 73.0597 226.393 73.6094 226.7 74.2912C227.007 74.9645 227.16 75.7102 227.16 76.5284C227.16 77.7216 226.841 78.7614 226.201 79.6477C225.562 80.5256 224.684 81.2074 223.568 81.6932C222.451 82.1705 221.177 82.4091 219.745 82.4091C218.356 82.4091 217.112 82.1832 216.012 81.7315C214.913 81.2713 214.039 80.6364 213.392 79.8267C212.752 79.0085 212.416 78.0625 212.382 76.9886ZM239.375 82.4091C237.603 82.4091 236.047 81.9872 234.709 81.1435C233.38 80.2997 232.34 79.1193 231.59 77.6023C230.848 76.0852 230.478 74.3125 230.478 72.2841C230.478 70.2386 230.848 68.4531 231.59 66.9276C232.34 65.402 233.38 64.2173 234.709 63.3736C236.047 62.5298 237.603 62.108 239.375 62.108C241.148 62.108 242.699 62.5298 244.029 63.3736C245.367 64.2173 246.407 65.402 247.148 66.9276C247.898 68.4531 248.273 70.2386 248.273 72.2841C248.273 74.3125 247.898 76.0852 247.148 77.6023C246.407 79.1193 245.367 80.2997 244.029 81.1435C242.699 81.9872 241.148 82.4091 239.375 82.4091ZM239.375 79.6989C240.722 79.6989 241.83 79.3537 242.699 78.6634C243.569 77.973 244.212 77.0653 244.63 75.9403C245.047 74.8153 245.256 73.5966 245.256 72.2841C245.256 70.9716 245.047 69.7486 244.63 68.6151C244.212 67.4815 243.569 66.5653 242.699 65.8665C241.83 65.1676 240.722 64.8182 239.375 64.8182C238.029 64.8182 236.921 65.1676 236.051 65.8665C235.182 66.5653 234.539 67.4815 234.121 68.6151C233.703 69.7486 233.495 70.9716 233.495 72.2841C233.495 73.5966 233.703 74.8153 234.121 75.9403C234.539 77.0653 235.182 77.973 236.051 78.6634C236.921 79.3537 238.029 79.6989 239.375 79.6989ZM252.879 82V62.3636H260.907C263.021 62.3636 264.7 62.8409 265.944 63.7955C267.188 64.75 267.81 66.0114 267.81 67.5795C267.81 68.7727 267.457 69.6974 266.749 70.3537C266.042 71.0014 265.134 71.4403 264.026 71.6705C264.751 71.7727 265.454 72.0284 266.136 72.4375C266.826 72.8466 267.397 73.4091 267.849 74.125C268.3 74.8324 268.526 75.7017 268.526 76.733C268.526 77.7386 268.271 78.6378 267.759 79.4304C267.248 80.223 266.515 80.8494 265.56 81.3097C264.606 81.7699 263.464 82 262.134 82H252.879ZM255.742 79.2386H262.134C263.174 79.2386 263.988 78.9915 264.576 78.4972C265.164 78.0028 265.458 77.3295 265.458 76.4773C265.458 75.4631 265.164 74.6662 264.576 74.0866C263.988 73.4986 263.174 73.2045 262.134 73.2045H255.742V79.2386ZM255.742 70.5966H260.907C261.717 70.5966 262.411 70.4858 262.991 70.2642C263.57 70.0341 264.013 69.7102 264.32 69.2926C264.636 68.8665 264.793 68.3636 264.793 67.7841C264.793 66.9574 264.448 66.3097 263.758 65.8409C263.067 65.3636 262.117 65.125 260.907 65.125H255.742V70.5966ZM278.872 82.4602C277.627 82.4602 276.498 82.2259 275.484 81.7571C274.47 81.2798 273.664 80.5938 273.068 79.6989C272.471 78.7955 272.173 77.7045 272.173 76.4261C272.173 75.3011 272.395 74.3892 272.838 73.6903C273.281 72.983 273.873 72.429 274.615 72.0284C275.356 71.6278 276.174 71.3295 277.069 71.1335C277.973 70.929 278.88 70.767 279.792 70.6477C280.985 70.4943 281.953 70.3793 282.694 70.3026C283.444 70.2173 283.99 70.0767 284.331 69.8807C284.68 69.6847 284.855 69.3437 284.855 68.858V68.7557C284.855 67.4943 284.51 66.5142 283.819 65.8153C283.137 65.1165 282.102 64.767 280.713 64.767C279.272 64.767 278.143 65.0824 277.325 65.7131C276.507 66.3437 275.931 67.017 275.599 67.733L272.735 66.7102C273.247 65.517 273.929 64.5881 274.781 63.9233C275.642 63.25 276.579 62.7812 277.593 62.517C278.616 62.2443 279.622 62.108 280.61 62.108C281.241 62.108 281.966 62.1847 282.784 62.3381C283.61 62.483 284.407 62.7855 285.174 63.2457C285.95 63.706 286.593 64.4006 287.105 65.3295C287.616 66.2585 287.872 67.5028 287.872 69.0625V82H284.855V79.3409H284.701C284.497 79.767 284.156 80.223 283.679 80.7088C283.201 81.1946 282.566 81.608 281.774 81.9489C280.981 82.2898 280.014 82.4602 278.872 82.4602ZM279.332 79.75C280.525 79.75 281.531 79.5156 282.349 79.0469C283.176 78.5781 283.798 77.973 284.216 77.2315C284.642 76.4901 284.855 75.7102 284.855 74.892V72.1307C284.727 72.2841 284.446 72.4247 284.011 72.5526C283.585 72.6719 283.091 72.7784 282.528 72.8722C281.974 72.9574 281.433 73.0341 280.904 73.1023C280.385 73.1619 279.963 73.2131 279.639 73.2557C278.855 73.358 278.122 73.5241 277.44 73.7543C276.767 73.9759 276.221 74.3125 275.804 74.7642C275.395 75.2074 275.19 75.8125 275.19 76.5795C275.19 77.6278 275.578 78.4205 276.353 78.9574C277.137 79.4858 278.13 79.75 279.332 79.75Z" fill="#222222"/>
<path d="M122.773 103.182C121.985 103.182 121.294 102.994 120.699 102.619C120.108 102.244 119.646 101.72 119.312 101.045C118.983 100.371 118.818 99.5833 118.818 98.6818C118.818 97.7727 118.983 96.9792 119.312 96.3011C119.646 95.6231 120.108 95.0966 120.699 94.7216C121.294 94.3466 121.985 94.1591 122.773 94.1591C123.561 94.1591 124.25 94.3466 124.841 94.7216C125.436 95.0966 125.898 95.6231 126.227 96.3011C126.561 96.9792 126.727 97.7727 126.727 98.6818C126.727 99.5833 126.561 100.371 126.227 101.045C125.898 101.72 125.436 102.244 124.841 102.619C124.25 102.994 123.561 103.182 122.773 103.182ZM122.773 101.977C123.371 101.977 123.864 101.824 124.25 101.517C124.636 101.21 124.922 100.807 125.108 100.307C125.294 99.8068 125.386 99.2652 125.386 98.6818C125.386 98.0985 125.294 97.5549 125.108 97.0511C124.922 96.5473 124.636 96.1402 124.25 95.8295C123.864 95.5189 123.371 95.3636 122.773 95.3636C122.174 95.3636 121.682 95.5189 121.295 95.8295C120.909 96.1402 120.623 96.5473 120.438 97.0511C120.252 97.5549 120.159 98.0985 120.159 98.6818C120.159 99.2652 120.252 99.8068 120.438 100.307C120.623 100.807 120.909 101.21 121.295 101.517C121.682 101.824 122.174 101.977 122.773 101.977ZM135.251 91L135.933 91.8182C135.668 92.0758 135.361 92.2557 135.013 92.358C134.664 92.4602 134.27 92.5227 133.831 92.5455C133.392 92.5682 132.903 92.5909 132.365 92.6136C131.759 92.6364 131.257 92.7841 130.859 93.0568C130.462 93.3295 130.155 93.7235 129.939 94.2386C129.723 94.7538 129.585 95.3864 129.524 96.1364H129.638C129.933 95.5909 130.342 95.1894 130.865 94.9318C131.388 94.6742 131.948 94.5455 132.547 94.5455C133.229 94.5455 133.842 94.7045 134.388 95.0227C134.933 95.3409 135.365 95.8125 135.683 96.4375C136.001 97.0625 136.161 97.8333 136.161 98.75C136.161 99.6629 135.998 100.451 135.672 101.114C135.35 101.777 134.897 102.288 134.314 102.648C133.734 103.004 133.054 103.182 132.274 103.182C131.494 103.182 130.81 102.998 130.223 102.631C129.636 102.259 129.179 101.71 128.854 100.983C128.528 100.252 128.365 99.3485 128.365 98.2727V97.3409C128.365 95.3977 128.695 93.9242 129.354 92.9205C130.017 91.9167 131.013 91.3977 132.342 91.3636C132.812 91.3485 133.231 91.3447 133.598 91.3523C133.965 91.3598 134.286 91.3428 134.558 91.3011C134.831 91.2595 135.062 91.1591 135.251 91ZM132.274 101.977C132.801 101.977 133.253 101.845 133.632 101.58C134.015 101.314 134.308 100.941 134.513 100.46C134.717 99.9754 134.82 99.4053 134.82 98.75C134.82 98.1136 134.715 97.572 134.507 97.125C134.303 96.678 134.009 96.3371 133.626 96.1023C133.244 95.8674 132.786 95.75 132.251 95.75C131.861 95.75 131.511 95.8163 131.2 95.9489C130.89 96.0814 130.625 96.2765 130.405 96.5341C130.185 96.7917 130.015 97.1061 129.893 97.4773C129.776 97.8485 129.714 98.2727 129.706 98.75C129.706 99.7273 129.935 100.509 130.393 101.097C130.852 101.684 131.479 101.977 132.274 101.977ZM138.212 106.273V94.2727H139.507V95.6591H139.666C139.765 95.5076 139.901 95.3144 140.075 95.0795C140.253 94.8409 140.507 94.6288 140.837 94.4432C141.17 94.2538 141.621 94.1591 142.189 94.1591C142.924 94.1591 143.571 94.3428 144.132 94.7102C144.693 95.0777 145.13 95.5985 145.445 96.2727C145.759 96.947 145.916 97.7424 145.916 98.6591C145.916 99.5833 145.759 100.384 145.445 101.062C145.13 101.737 144.695 102.259 144.138 102.631C143.581 102.998 142.939 103.182 142.212 103.182C141.651 103.182 141.202 103.089 140.865 102.903C140.528 102.714 140.268 102.5 140.087 102.261C139.905 102.019 139.765 101.818 139.666 101.659H139.553V106.273H138.212ZM139.53 98.6364C139.53 99.2955 139.626 99.8769 139.82 100.381C140.013 100.881 140.295 101.273 140.666 101.557C141.037 101.837 141.492 101.977 142.03 101.977C142.59 101.977 143.058 101.83 143.433 101.534C143.812 101.235 144.096 100.833 144.286 100.33C144.479 99.822 144.575 99.2576 144.575 98.6364C144.575 98.0227 144.481 97.4697 144.291 96.9773C144.106 96.4811 143.823 96.089 143.445 95.8011C143.07 95.5095 142.598 95.3636 142.03 95.3636C141.484 95.3636 141.026 95.5019 140.655 95.7784C140.284 96.0511 140.003 96.4337 139.814 96.9261C139.625 97.4148 139.53 97.9848 139.53 98.6364ZM150.53 103.205C149.977 103.205 149.475 103.1 149.024 102.892C148.573 102.68 148.215 102.375 147.95 101.977C147.685 101.576 147.553 101.091 147.553 100.523C147.553 100.023 147.651 99.6174 147.848 99.3068C148.045 98.9924 148.308 98.7462 148.638 98.5682C148.967 98.3902 149.331 98.2576 149.729 98.1705C150.13 98.0795 150.534 98.0076 150.939 97.9545C151.469 97.8864 151.899 97.8352 152.229 97.8011C152.562 97.7633 152.804 97.7008 152.956 97.6136C153.111 97.5265 153.189 97.375 153.189 97.1591V97.1136C153.189 96.553 153.036 96.1174 152.729 95.8068C152.426 95.4962 151.965 95.3409 151.348 95.3409C150.708 95.3409 150.206 95.4811 149.842 95.7614C149.479 96.0417 149.223 96.3409 149.075 96.6591L147.803 96.2045C148.03 95.6742 148.333 95.2614 148.712 94.9659C149.094 94.6667 149.511 94.4583 149.962 94.3409C150.416 94.2197 150.863 94.1591 151.303 94.1591C151.583 94.1591 151.905 94.1932 152.268 94.2614C152.636 94.3258 152.99 94.4602 153.331 94.6648C153.676 94.8693 153.962 95.178 154.189 95.5909C154.416 96.0038 154.53 96.5568 154.53 97.25V103H153.189V101.818H153.121C153.03 102.008 152.878 102.21 152.666 102.426C152.454 102.642 152.172 102.826 151.82 102.977C151.467 103.129 151.037 103.205 150.53 103.205ZM150.734 102C151.265 102 151.712 101.896 152.075 101.688C152.443 101.479 152.719 101.21 152.905 100.881C153.094 100.551 153.189 100.205 153.189 99.8409V98.6136C153.132 98.6818 153.007 98.7443 152.814 98.8011C152.625 98.8542 152.405 98.9015 152.155 98.9432C151.909 98.9811 151.668 99.0152 151.433 99.0455C151.202 99.072 151.015 99.0947 150.871 99.1136C150.522 99.1591 150.196 99.233 149.893 99.3352C149.594 99.4337 149.352 99.5833 149.166 99.7841C148.984 99.9811 148.893 100.25 148.893 100.591C148.893 101.057 149.066 101.409 149.411 101.648C149.759 101.883 150.2 102 150.734 102ZM156.432 100.773H157.864C157.894 101.167 158.072 101.466 158.398 101.67C158.727 101.875 159.155 101.977 159.682 101.977C160.22 101.977 160.68 101.867 161.062 101.648C161.445 101.424 161.636 101.064 161.636 100.568C161.636 100.277 161.564 100.023 161.42 99.8068C161.277 99.5871 161.074 99.4167 160.812 99.2955C160.551 99.1742 160.242 99.1136 159.886 99.1136H158.386V97.9091H159.886C160.42 97.9091 160.814 97.7879 161.068 97.5455C161.326 97.303 161.455 97 161.455 96.6364C161.455 96.2462 161.316 95.9337 161.04 95.6989C160.763 95.4602 160.371 95.3409 159.864 95.3409C159.352 95.3409 158.926 95.4564 158.585 95.6875C158.244 95.9148 158.064 96.2083 158.045 96.5682H156.636C156.652 96.0985 156.795 95.6837 157.068 95.3239C157.341 94.9602 157.712 94.6761 158.182 94.4716C158.652 94.2633 159.189 94.1591 159.795 94.1591C160.409 94.1591 160.941 94.267 161.392 94.483C161.847 94.6951 162.197 94.9848 162.443 95.3523C162.693 95.7159 162.818 96.1288 162.818 96.5909C162.818 97.0833 162.68 97.4811 162.403 97.7841C162.127 98.0871 161.78 98.303 161.364 98.4318V98.5227C161.693 98.5455 161.979 98.6515 162.222 98.8409C162.468 99.0265 162.659 99.2708 162.795 99.5739C162.932 99.8731 163 100.205 163 100.568C163 101.098 162.858 101.561 162.574 101.955C162.29 102.345 161.9 102.648 161.403 102.864C160.907 103.076 160.341 103.182 159.705 103.182C159.087 103.182 158.534 103.081 158.045 102.881C157.557 102.676 157.169 102.394 156.881 102.034C156.597 101.67 156.447 101.25 156.432 100.773ZM168.429 103.182C167.641 103.182 166.95 102.994 166.355 102.619C165.764 102.244 165.302 101.72 164.969 101.045C164.639 100.371 164.474 99.5833 164.474 98.6818C164.474 97.7727 164.639 96.9792 164.969 96.3011C165.302 95.6231 165.764 95.0966 166.355 94.7216C166.95 94.3466 167.641 94.1591 168.429 94.1591C169.217 94.1591 169.906 94.3466 170.497 94.7216C171.092 95.0966 171.554 95.6231 171.884 96.3011C172.217 96.9792 172.384 97.7727 172.384 98.6818C172.384 99.5833 172.217 100.371 171.884 101.045C171.554 101.72 171.092 102.244 170.497 102.619C169.906 102.994 169.217 103.182 168.429 103.182ZM168.429 101.977C169.027 101.977 169.52 101.824 169.906 101.517C170.293 101.21 170.579 100.807 170.764 100.307C170.95 99.8068 171.043 99.2652 171.043 98.6818C171.043 98.0985 170.95 97.5549 170.764 97.0511C170.579 96.5473 170.293 96.1402 169.906 95.8295C169.52 95.5189 169.027 95.3636 168.429 95.3636C167.83 95.3636 167.338 95.5189 166.952 95.8295C166.565 96.1402 166.279 96.5473 166.094 97.0511C165.908 97.5549 165.815 98.0985 165.815 98.6818C165.815 99.2652 165.908 99.8068 166.094 100.307C166.279 100.807 166.565 101.21 166.952 101.517C167.338 101.824 167.83 101.977 168.429 101.977ZM174.43 103V94.2727H177.999C178.938 94.2727 179.684 94.4848 180.237 94.9091C180.79 95.3333 181.067 95.8939 181.067 96.5909C181.067 97.1212 180.91 97.5322 180.595 97.8239C180.281 98.1117 179.877 98.3068 179.385 98.4091C179.707 98.4545 180.019 98.5682 180.322 98.75C180.629 98.9318 180.883 99.1818 181.084 99.5C181.285 99.8144 181.385 100.201 181.385 100.659C181.385 101.106 181.271 101.506 181.044 101.858C180.817 102.21 180.491 102.489 180.067 102.693C179.643 102.898 179.135 103 178.544 103H174.43ZM175.703 101.773H178.544C179.006 101.773 179.368 101.663 179.629 101.443C179.891 101.223 180.021 100.924 180.021 100.545C180.021 100.095 179.891 99.7405 179.629 99.483C179.368 99.2216 179.006 99.0909 178.544 99.0909H175.703V101.773ZM175.703 97.9318H177.999C178.358 97.9318 178.667 97.8826 178.925 97.7841C179.182 97.6818 179.379 97.5379 179.516 97.3523C179.656 97.1629 179.726 96.9394 179.726 96.6818C179.726 96.3144 179.572 96.0265 179.266 95.8182C178.959 95.6061 178.536 95.5 177.999 95.5H175.703V97.9318ZM185.983 103.205C185.43 103.205 184.928 103.1 184.477 102.892C184.027 102.68 183.669 102.375 183.403 101.977C183.138 101.576 183.006 101.091 183.006 100.523C183.006 100.023 183.104 99.6174 183.301 99.3068C183.498 98.9924 183.761 98.7462 184.091 98.5682C184.42 98.3902 184.784 98.2576 185.182 98.1705C185.583 98.0795 185.987 98.0076 186.392 97.9545C186.922 97.8864 187.352 97.8352 187.682 97.8011C188.015 97.7633 188.258 97.7008 188.409 97.6136C188.564 97.5265 188.642 97.375 188.642 97.1591V97.1136C188.642 96.553 188.489 96.1174 188.182 95.8068C187.879 95.4962 187.419 95.3409 186.801 95.3409C186.161 95.3409 185.659 95.4811 185.295 95.7614C184.932 96.0417 184.676 96.3409 184.528 96.6591L183.256 96.2045C183.483 95.6742 183.786 95.2614 184.165 94.9659C184.547 94.6667 184.964 94.4583 185.415 94.3409C185.869 94.2197 186.316 94.1591 186.756 94.1591C187.036 94.1591 187.358 94.1932 187.722 94.2614C188.089 94.3258 188.443 94.4602 188.784 94.6648C189.129 94.8693 189.415 95.178 189.642 95.5909C189.869 96.0038 189.983 96.5568 189.983 97.25V103H188.642V101.818H188.574C188.483 102.008 188.331 102.21 188.119 102.426C187.907 102.642 187.625 102.826 187.273 102.977C186.92 103.129 186.491 103.205 185.983 103.205ZM186.188 102C186.718 102 187.165 101.896 187.528 101.688C187.896 101.479 188.172 101.21 188.358 100.881C188.547 100.551 188.642 100.205 188.642 99.8409V98.6136C188.585 98.6818 188.46 98.7443 188.267 98.8011C188.078 98.8542 187.858 98.9015 187.608 98.9432C187.362 98.9811 187.121 99.0152 186.886 99.0455C186.655 99.072 186.468 99.0947 186.324 99.1136C185.975 99.1591 185.65 99.233 185.347 99.3352C185.047 99.4337 184.805 99.5833 184.619 99.7841C184.438 99.9811 184.347 100.25 184.347 100.591C184.347 101.057 184.519 101.409 184.864 101.648C185.212 101.883 185.653 102 186.188 102ZM198.271 98.0227V99.2727H193.453V98.0227H198.271ZM193.771 94.2727V103H192.43V94.2727H193.771ZM199.294 94.2727V103H197.953V94.2727H199.294ZM203.084 101.023L207.288 94.2727H208.834V103H207.493V96.25L203.311 103H201.743V94.2727H203.084V101.023ZM214.949 103.182C214.108 103.182 213.383 102.996 212.773 102.625C212.167 102.25 211.699 101.727 211.369 101.057C211.044 100.383 210.881 99.5985 210.881 98.7045C210.881 97.8106 211.044 97.0227 211.369 96.3409C211.699 95.6553 212.157 95.1212 212.744 94.7386C213.335 94.3523 214.025 94.1591 214.812 94.1591C215.267 94.1591 215.716 94.2348 216.159 94.3864C216.602 94.5379 217.006 94.7841 217.369 95.125C217.733 95.4621 218.023 95.9091 218.239 96.4659C218.455 97.0227 218.562 97.7083 218.562 98.5227V99.0909H211.835V97.9318H217.199C217.199 97.4394 217.1 97 216.903 96.6136C216.71 96.2273 216.434 95.9223 216.074 95.6989C215.718 95.4754 215.297 95.3636 214.812 95.3636C214.278 95.3636 213.816 95.4962 213.426 95.7614C213.04 96.0227 212.742 96.3636 212.534 96.7841C212.326 97.2045 212.222 97.6553 212.222 98.1364V98.9091C212.222 99.5682 212.335 100.127 212.562 100.585C212.794 101.04 213.114 101.386 213.523 101.625C213.932 101.86 214.407 101.977 214.949 101.977C215.301 101.977 215.619 101.928 215.903 101.83C216.191 101.727 216.439 101.576 216.648 101.375C216.856 101.17 217.017 100.917 217.131 100.614L218.426 100.977C218.29 101.417 218.061 101.803 217.739 102.136C217.417 102.466 217.019 102.723 216.545 102.909C216.072 103.091 215.54 103.182 214.949 103.182Z" fill="black"/>
<path d="M62.9216 46.477C64.519 46.477 65.814 45.182 65.814 43.5846C65.814 41.9872 64.519 40.6923 62.9216 40.6923C61.3242 40.6923 60.0293 41.9872 60.0293 43.5846C60.0293 45.182 61.3242 46.477 62.9216 46.477Z" fill="#2A5A92"/>
<path d="M29 63.2653C29 53.2123 37.1496 44.9245 47.2047 45.0606C52.279 45.1287 57.2534 46.7024 62.9211 51.3387C68.9524 46.8024 72.9273 45.5136 77.7443 45.5136C87.7973 45.5136 96 53.2123 96 63.2653C96 86.6379 62.2916 103.369 62.2916 103.369C62.2916 103.369 29 86.6379 29 63.2653ZM38.5681 72.1039C38.5681 89.3069 62.2916 100.87 62.2916 100.87C62.4341 100.8 84.9921 89.8768 85.9959 73.4544L86.0044 73.3119C86.1958 65.896 80.2368 59.6328 72.6976 59.6328C69.9903 59.6328 67.468 60.4197 65.3455 61.7808C64.2588 62.4763 63.2784 63.3227 62.4298 64.2882C61.6174 63.361 60.6795 62.5443 59.6438 61.8659C57.4958 60.4538 54.9246 59.6328 52.162 59.6328C44.625 59.6328 38.5149 65.7429 38.5149 73.28" fill="#2A5A92"/>
<path d="M80.4516 27.8705L77.3062 30.8309L74.399 30.8692L74.3331 27.9917H78.6397C78.6397 27.9917 77.4274 27.224 77.3764 26.1372C77.3275 25.0484 77.0063 23.3406 77.5019 22.2773C77.9953 21.2118 78.763 20.2228 78.763 20.2228L74.3394 20.2186L74.4054 15.174L73.7759 15.1676L73.7567 16.0758L69.6309 16.1034L70.5603 17.2497L69.6224 18.5555L73.7142 18.5342V20.2165L69.616 20.2462C68.9971 21.9497 68.0848 24.8846 69.3629 27.0326L69.3842 27.6004L68.6335 27.6217V27.9662L73.459 27.9854L73.4398 30.5417C72.57 30.3864 71.7151 30.9436 71.513 31.839H64.295L64.4353 27.7216L67.5786 27.7642L67.5595 26.9114C66.1963 25.1313 66.8577 20.2781 69.0588 19.1446L69.0397 18.6789H63.9292L63.9483 14.4509H63.3209L63.2805 15.2548H59.1228L60.0968 16.399L59.2249 17.6857L63.2593 17.7473V18.6789H58.6379V19.0319L60.1585 19.4955V19.8379C56.4963 21.6201 57.885 25.0058 58.1658 27.4707H57.8276V28.0683H62.8445V31.8602H53.5806V28.215H56.7154V27.5366C56.7154 27.5366 55.5435 27.2091 55.5435 26.3648C55.5435 25.5205 55.4521 23.3321 56.0837 22.5069C56.7154 21.6818 57.9531 20.4206 57.9531 20.4206H53.6784L53.6975 15.6696C53.991 15.576 54.1229 15.3612 54.1165 14.9614C54.1314 13.9171 52.4896 13.9171 52.5066 14.9614C52.5002 15.3676 52.6767 15.593 52.9766 15.6823L52.9489 16.6521H48.6487L49.7312 17.7346L48.5041 18.9596H52.9256V20.4206H47.7513L49.2931 21.2437C46.7411 24.1105 47.226 24.6762 47.6173 28.1193H52.5002L52.5491 31.8347L47.6173 31.8602L44.2401 27.5196C44.1465 27.7046 43.9763 27.8535 43.7105 27.9067C43.6616 27.9173 43.6169 27.9216 43.5723 27.9237L50.0715 37.8278H76.2769L77.2381 35.6755C77.2381 35.6755 75.9089 34.7589 76.2769 34.1635C76.6427 33.568 78.2462 34.0252 78.2462 34.0252L81.1045 27.9492C80.8855 28.0024 80.6451 27.979 80.4516 27.8705ZM54.2399 35.5628H51.7899V34.2762H54.2399V35.5628ZM58.2317 35.5628H55.7817V34.2762H58.2317V35.5628ZM62.2214 35.5628H59.7714V34.2762H62.2214V35.5628ZM66.2111 35.5628H63.7612V34.2762H66.2111V35.5628ZM70.2009 35.5628H67.7509V34.2762H70.2009V35.5628Z" fill="#2A5A92"/>
<path d="M64.4303 13.7832C64.4452 12.739 62.8055 12.739 62.8204 13.7832C62.8055 14.8274 64.4452 14.8274 64.4303 13.7832Z" fill="#2A5A92"/>
<path d="M74.9147 14.4297C74.9296 13.3855 73.2899 13.3855 73.3048 14.4297C73.2899 15.4739 74.9296 15.4739 74.9147 14.4297Z" fill="#2A5A92"/>
<path d="M81.6862 27.2729C81.7011 26.2287 80.0614 26.2287 80.0763 27.2729C80.0614 28.3171 81.7011 28.3171 81.6862 27.2729Z" fill="#2A5A92"/>
<path d="M44.3815 27.2028C44.3964 26.1586 42.7567 26.1586 42.7716 27.2028C42.7567 28.247 44.3964 28.247 44.3815 27.2028Z" fill="#2A5A92"/>
<path d="M50.5447 27.5839L50.0645 27.2038L46.5299 31.6697L47.0102 32.0498L50.5447 27.5839Z" fill="#2A5A92"/>
<path d="M53.0115 28.1741L52.5312 27.7939L48.9967 32.2598L49.477 32.6399L53.0115 28.1741Z" fill="#2A5A92"/>
<path d="M71.7635 27.7526L71.2832 27.3724L67.7487 31.8383L68.2289 32.2184L71.7635 27.7526Z" fill="#2A5A92"/>
<path d="M73.4314 28.0823L72.9512 27.7022L69.4166 32.1681L69.8969 32.5482L73.4314 28.0823Z" fill="#2A5A92"/>
<path d="M60.9393 28.0295L60.459 27.6494L56.9245 32.1152L57.4047 32.4954L60.9393 28.0295Z" fill="#2A5A92"/>
<path d="M62.865 28.0293L62.3848 27.6492L58.8502 32.115L59.3305 32.4952L62.865 28.0293Z" fill="#2A5A92"/>
<path d="M53.3079 29.1824L52.8184 29.5505L56.2411 34.1026L56.7307 33.7345L53.3079 29.1824Z" fill="#2A5A92"/>
<path d="M55.0833 27.3284L54.5938 27.6965L58.0165 32.2486L58.5061 31.8805L55.0833 27.3284Z" fill="#2A5A92"/>
<path d="M53.7454 27.6064L53.2559 27.9745L56.6786 32.5266L57.1682 32.1585L53.7454 27.6064Z" fill="#2A5A92"/>
<path d="M63.7884 29.19L63.2988 29.5581L66.7216 34.1102L67.2112 33.7421L63.7884 29.19Z" fill="#2A5A92"/>
<path d="M65.4251 27.1511L64.9355 27.5192L68.8031 32.6628L69.2926 32.2947L65.4251 27.1511Z" fill="#2A5A92"/>
<path d="M64.2259 27.6123L63.7363 27.9804L67.1591 32.5325L67.6486 32.1644L64.2259 27.6123Z" fill="#2A5A92"/>
<path d="M48.9194 24.434L48.5137 23.9751L44.2468 27.7475L44.6525 28.2064L48.9194 24.434Z" fill="#2A5A92"/>
</svg>
