<?xml version="1.0" encoding="UTF-8" standalone="no"?>
<!DOCTYPE svg PUBLIC "-//W3C//DTD SVG 1.1//EN" "http://www.w3.org/Graphics/SVG/1.1/DTD/svg11.dtd">
<svg xmlns="http://www.w3.org/2000/svg" version="1.1" viewBox="0.00 0.00 263.00 351.00" width="263.00" height="351.00">
<path fill="#eaa45d" d="
  M 99.27 65.66
  C 100.47 68.61 102.80 70.69 104.26 74.25
  Q 104.46 74.72 104.90 74.99
  C 107.65 76.64 110.96 76.23 113.89 75.95
  A 2.18 2.17 -76.9 0 0 115.55 74.91
  L 120.88 66.08
  A 0.68 0.68 0.0 0 0 120.31 65.04
  L 117.54 65.00
  Q 117.07 64.99 116.72 64.67
  C 113.99 62.21 112.95 59.44 111.46 56.43
  C 108.73 50.94 108.02 41.28 110.94 35.51
  C 111.72 33.98 111.99 31.71 113.04 30.68
  Q 115.06 28.71 117.38 27.14
  Q 117.80 26.86 118.30 26.86
  L 131.89 26.84
  Q 133.63 26.84 133.75 25.11
  L 133.94 22.53
  Q 134.06 21.00 132.53 21.01
  L 117.48 21.02
  Q 116.76 21.03 117.18 20.44
  C 118.33 18.79 121.40 17.31 119.37 14.91
  Q 117.91 13.19 117.32 11.58
  Q 117.11 11.00 117.72 11.00
  L 131.75 11.01
  Q 133.88 11.01 133.22 8.97
  C 132.77 7.57 131.36 6.95 132.09 4.80
  C 132.95 2.25 138.08 2.08 137.68 5.48
  C 136.90 12.26 136.99 19.04 136.98 25.72
  A 1.18 1.18 0.0 0 0 138.13 26.90
  L 148.43 27.19
  Q 149.06 27.21 148.84 27.80
  C 147.36 31.84 145.50 36.10 144.99 40.13
  C 143.87 49.13 145.89 55.53 149.59 64.59
  Q 149.78 65.06 149.27 65.05
  L 140.66 64.97
  A 0.77 0.77 0.0 0 0 140.02 66.17
  L 146.47 75.70
  A 2.63 2.63 0.0 0 0 149.76 76.61
  Q 151.72 75.70 154.07 76.26
  C 155.51 76.60 156.27 76.28 157.60 75.97
  Q 158.08 75.86 158.36 75.44
  L 164.11 66.92
  A 1.23 1.23 0.0 0 0 163.12 65.00
  C 160.78 64.94 158.18 65.74 156.71 63.10
  C 152.52 55.60 150.17 45.69 152.97 37.27
  Q 154.39 33.00 158.98 33.03
  Q 165.89 33.07 172.31 32.92
  Q 174.11 32.88 174.04 31.08
  L 173.92 28.12
  Q 173.84 26.16 171.88 26.13
  L 158.41 25.94
  A 0.69 0.69 0.0 0 1 157.90 24.80
  L 160.59 21.77
  A 0.49 0.49 0.0 0 0 160.57 21.11
  L 158.08 18.49
  A 0.85 0.85 0.0 0 1 158.69 17.06
  L 171.92 16.98
  A 1.66 1.65 74.5 0 0 173.33 14.48
  Q 171.72 11.76 173.00 8.81
  Q 173.17 8.43 173.56 8.27
  C 176.91 6.90 179.87 9.59 177.77 13.23
  Q 177.29 14.05 177.20 16.75
  Q 176.95 24.48 176.94 31.94
  A 1.05 1.05 0.0 0 0 177.99 32.99
  L 185.24 33.00
  Q 185.73 33.00 185.59 33.47
  C 184.76 36.48 183.50 39.63 183.23 42.54
  Q 182.20 53.65 187.95 63.34
  A 1.12 1.12 0.0 0 1 186.98 65.04
  L 177.76 65.02
  A 0.73 0.73 0.0 0 0 177.02 65.74
  L 176.97 71.01
  Q 176.96 71.78 177.73 71.88
  C 187.32 73.05 193.97 69.70 199.22 61.70
  Q 199.48 61.30 199.40 60.83
  C 198.98 58.39 200.37 56.04 202.93 55.89
  C 205.49 55.75 206.60 59.06 205.82 61.16
  C 205.21 62.80 202.49 63.87 201.39 66.13
  Q 197.77 73.52 194.17 80.92
  C 192.12 85.14 189.61 85.73 185.64 87.62
  A 1.69 1.68 -50.1 0 0 185.92 90.77
  L 187.00 91.06
  A 1.99 1.99 0.0 0 1 187.97 94.31
  Q 186.38 96.10 185.76 98.47
  A 2.05 2.04 7.3 0 1 183.78 99.99
  Q 139.82 100.01 96.28 100.00
  C 92.04 100.00 85.92 100.47 80.65 99.80
  Q 80.05 99.72 79.72 99.22
  L 53.59 59.59
  Q 53.32 59.19 52.85 59.11
  C 44.95 57.63 50.92 48.67 55.58 53.45
  Q 55.93 53.82 55.95 54.33
  C 56.09 58.59 56.68 59.92 59.95 62.53
  A 1.15 1.14 -44.1 0 0 61.35 62.55
  L 71.25 55.00
  A 1.22 1.22 0.0 0 0 71.69 53.73
  Q 70.13 47.83 71.61 41.72
  C 74.17 31.20 83.71 33.08 91.73 32.95
  Q 93.12 32.93 93.07 31.54
  L 92.93 27.81
  A 1.88 1.87 89.0 0 0 91.07 26.00
  L 78.45 25.97
  A 0.64 0.64 0.0 0 1 77.95 24.94
  L 79.62 22.79
  A 2.20 2.19 40.3 0 0 79.37 19.83
  L 77.16 17.82
  A 0.47 0.47 0.0 0 1 77.48 17.00
  L 91.77 17.02
  A 1.38 1.38 0.0 0 0 92.99 15.00
  C 91.19 11.58 89.92 6.87 96.33 8.12
  A 1.94 1.94 0.0 0 1 97.88 10.29
  C 96.86 17.64 96.97 24.70 96.95 32.01
  A 0.99 0.98 -0.3 0 0 97.95 32.99
  L 103.00 32.93
  A 1.13 1.12 -84.1 0 1 104.11 34.30
  C 101.86 44.20 102.01 54.25 107.01 63.18
  A 1.21 1.21 0.0 0 1 105.96 64.98
  L 99.71 65.01
  Q 99.01 65.01 99.27 65.66
  Z
  M 79.86 65.31
  C 76.44 64.84 74.52 62.63 73.76 59.37
  A 1.11 1.11 0.0 0 0 72.00 58.74
  L 63.56 65.28
  Q 63.13 65.61 63.51 65.99
  L 71.55 74.19
  Q 73.33 76.01 74.58 73.79
  Q 76.93 69.59 80.13 66.06
  A 0.45 0.45 0.0 0 0 79.86 65.31
  Z
  M 84.54 65.13
  A 1.06 1.06 0.0 0 0 83.69 65.63
  L 78.22 74.53
  A 1.06 1.06 0.0 0 0 79.11 76.15
  L 91.94 76.27
  A 1.06 1.06 0.0 0 0 93.01 75.21
  L 93.02 65.81
  A 1.06 1.06 0.0 0 0 91.90 64.75
  L 84.54 65.13
  Z
  M 130.89 76.42
  L 131.61 76.88
  Q 132.13 77.21 132.48 76.71
  C 134.35 74.04 133.96 70.20 133.70 67.12
  C 133.55 65.32 132.79 65.21 131.24 65.03
  C 128.12 64.65 126.47 64.64 124.44 67.34
  Q 121.73 70.94 119.10 74.87
  A 0.90 0.90 0.0 0 0 119.86 76.27
  L 129.88 76.13
  Q 130.43 76.12 130.89 76.42
  Z
  M 165.89 76.27
  C 168.12 73.29 169.54 72.57 172.97 71.45
  A 1.08 1.08 0.0 0 0 173.65 70.77
  C 174.62 67.77 173.98 63.71 169.67 65.14
  Q 169.28 65.27 169.04 65.61
  L 162.43 75.33
  Q 162.03 75.92 162.71 76.14
  L 164.52 76.71
  Q 165.36 76.98 165.89 76.27
  Z
  M 136.97 76.62
  A 0.34 0.34 0.0 0 0 137.40 76.95
  L 141.64 75.78
  A 0.34 0.34 0.0 0 0 141.84 75.28
  L 137.65 68.35
  A 0.34 0.34 0.0 0 0 137.02 68.52
  L 136.97 76.62
  Z
  M 98.57 70.67
  A 0.86 0.86 0.0 0 0 96.98 71.11
  L 96.91 75.80
  A 0.86 0.86 0.0 0 0 97.62 76.66
  L 99.37 76.98
  A 0.86 0.86 0.0 0 0 100.30 76.50
  L 100.92 75.15
  A 0.86 0.86 0.0 0 0 100.87 74.33
  L 98.57 70.67
  Z
  M 99.9481 87.7676
  A 2.57 2.57 0.0 0 0 97.3603 85.2156
  L 87.4805 85.2846
  A 2.57 2.57 0.0 0 0 84.9285 87.8724
  L 84.9319 88.3524
  A 2.57 2.57 0.0 0 0 87.5197 90.9044
  L 97.3995 90.8354
  A 2.57 2.57 0.0 0 0 99.9515 88.2476
  L 99.9481 87.7676
  Z
  M 118.7965 87.5257
  A 2.33 2.33 0.0 0 0 116.4503 85.2120
  L 105.5506 85.2881
  A 2.33 2.33 0.0 0 0 103.2369 87.6343
  L 103.2435 88.5743
  A 2.33 2.33 0.0 0 0 105.5897 90.8880
  L 116.4894 90.8119
  A 2.33 2.33 0.0 0 0 118.8031 88.4657
  L 118.7965 87.5257
  Z
  M 136.8409 88.1579
  A 2.66 2.66 0.0 0 0 134.2371 85.4428
  L 124.4793 85.2384
  A 2.66 2.66 0.0 0 0 121.7642 87.8421
  L 121.7591 88.0821
  A 2.66 2.66 0.0 0 0 124.3629 90.7972
  L 134.1207 91.0016
  A 2.66 2.66 0.0 0 0 136.8358 88.3979
  L 136.8409 88.1579
  Z
  M 155.0080 87.8389
  A 2.62 2.62 0.0 0 0 152.3562 85.2511
  L 142.6769 85.3693
  A 2.62 2.62 0.0 0 0 140.0891 88.0211
  L 140.0920 88.2611
  A 2.62 2.62 0.0 0 0 142.7438 90.8489
  L 152.4231 90.7307
  A 2.62 2.62 0.0 0 0 155.0109 88.0789
  L 155.0080 87.8389
  Z
  M 173.8492 87.9588
  A 2.66 2.66 0.0 0 0 171.1753 85.3128
  L 160.7755 85.3673
  A 2.66 2.66 0.0 0 0 158.1294 88.0412
  L 158.1308 88.3012
  A 2.66 2.66 0.0 0 0 160.8047 90.9472
  L 171.2045 90.8927
  A 2.66 2.66 0.0 0 0 173.8506 88.2188
  L 173.8492 87.9588
  Z"
/>
<path fill="#eaa45d" d="
  M 129.86 142.49
  Q 133.95 139.27 138.17 136.23
  C 157.26 122.51 182.34 117.11 205.68 122.93
  C 234.60 130.14 254.09 159.79 255.94 188.33
  Q 256.58 198.15 255.36 208.00
  Q 255.01 210.86 252.29 220.27
  Q 248.05 234.92 236.76 252.02
  Q 222.00 274.38 201.90 292.10
  Q 198.08 295.46 194.29 298.88
  C 183.61 308.52 171.90 316.81 159.00 325.49
  C 143.28 336.08 127.25 340.26 109.41 330.96
  Q 101.88 327.03 93.49 321.02
  C 54.69 293.18 16.54 259.15 4.85 211.64
  C 0.92 195.70 4.07 175.81 10.66 160.89
  C 21.30 136.81 42.57 121.72 69.09 120.76
  Q 93.58 119.88 115.45 132.04
  Q 119.69 134.40 129.08 142.48
  Q 129.46 142.81 129.86 142.49
  Z
  M 128.70 185.03
  C 126.86 183.87 124.96 181.89 123.51 180.84
  Q 117.33 176.39 110.23 173.65
  C 107.32 172.52 104.16 171.99 101.00 171.29
  C 85.95 167.96 71.95 170.76 59.84 180.29
  C 47.42 190.07 41.75 206.68 41.19 222.00
  C 40.79 232.62 45.23 244.12 50.70 255.52
  Q 53.76 261.89 62.67 272.58
  C 73.21 285.21 87.97 298.83 102.79 308.66
  Q 112.92 315.38 120.02 317.29
  Q 137.37 321.95 153.50 310.76
  C 177.62 294.03 202.43 272.40 213.64 244.43
  C 222.66 221.94 217.86 194.31 197.83 179.18
  C 176.85 163.34 149.30 169.32 129.97 184.95
  A 1.09 1.08 -48.4 0 1 128.70 185.03
  Z"
/>
</svg>
