<svg width="263" height="351" viewBox="0 0 263 351" fill="none" xmlns="http://www.w3.org/2000/svg">
<path d="M99.2699 65.66C100.47 68.61 102.8 70.69 104.26 74.25C104.393 74.5634 104.607 74.81 104.9 74.99C107.65 76.64 110.96 76.23 113.89 75.95C114.228 75.9189 114.554 75.8087 114.843 75.628C115.131 75.4474 115.373 75.2015 115.55 74.91L120.88 66.08C120.944 65.9776 120.979 65.8599 120.983 65.7392C120.986 65.6185 120.957 65.4991 120.899 65.3932C120.841 65.2873 120.756 65.1987 120.653 65.1367C120.549 65.0746 120.431 65.0412 120.31 65.04L117.54 65C117.227 64.9934 116.953 64.8834 116.72 64.67C113.99 62.21 112.95 59.44 111.46 56.43C108.73 50.94 108.02 41.28 110.94 35.51C111.72 33.98 111.99 31.71 113.04 30.68C114.387 29.3667 115.833 28.1867 117.38 27.14C117.66 26.9534 117.967 26.86 118.3 26.86L131.89 26.84C133.05 26.84 133.67 26.2634 133.75 25.11L133.94 22.53C134.02 21.51 133.55 21.0034 132.53 21.01L117.48 21.02C117 21.0267 116.9 20.8334 117.18 20.44C118.33 18.79 121.4 17.31 119.37 14.91C118.397 13.7634 117.713 12.6534 117.32 11.58C117.18 11.1934 117.313 11 117.72 11L131.75 11.01C133.17 11.01 133.66 10.33 133.22 8.97002C132.77 7.57002 131.36 6.95002 132.09 4.80002C132.95 2.25002 138.08 2.08002 137.68 5.48002C136.9 12.26 136.99 19.04 136.98 25.72C136.98 26.0278 137.1 26.3235 137.315 26.544C137.53 26.7644 137.822 26.8922 138.13 26.9L148.43 27.19C148.85 27.2034 148.987 27.4067 148.84 27.8C147.36 31.84 145.5 36.1 144.99 40.13C143.87 49.13 145.89 55.53 149.59 64.59C149.717 64.9034 149.61 65.0567 149.27 65.05L140.66 64.97C140.52 64.9698 140.383 65.0076 140.263 65.0794C140.143 65.1512 140.045 65.2543 139.979 65.3777C139.914 65.501 139.883 65.6399 139.89 65.7795C139.897 65.9191 139.942 66.0541 140.02 66.17L146.47 75.7C146.82 76.2182 147.344 76.5945 147.947 76.7613C148.55 76.9281 149.193 76.8744 149.76 76.61C151.067 76.0034 152.503 75.8867 154.07 76.26C155.51 76.6 156.27 76.28 157.6 75.97C157.92 75.8967 158.173 75.72 158.36 75.44L164.11 66.92C164.234 66.737 164.306 66.524 164.32 66.3033C164.333 66.0827 164.286 65.8625 164.185 65.666C164.084 65.4695 163.931 65.304 163.744 65.1868C163.557 65.0696 163.341 65.0051 163.12 65C160.78 64.94 158.18 65.74 156.71 63.1C152.52 55.6 150.17 45.69 152.97 37.27C153.917 34.4234 155.92 33.01 158.98 33.03C163.587 33.0567 168.03 33.02 172.31 32.92C173.51 32.8934 174.087 32.28 174.04 31.08L173.92 28.12C173.867 26.8134 173.187 26.15 171.88 26.13L158.41 25.94C158.279 25.9376 158.151 25.8979 158.042 25.8256C157.933 25.7533 157.847 25.6515 157.793 25.5319C157.74 25.4124 157.721 25.28 157.74 25.1504C157.759 25.0208 157.814 24.8993 157.9 24.8L160.59 21.77C160.669 21.6773 160.712 21.5582 160.708 21.4361C160.704 21.3141 160.655 21.1977 160.57 21.11L158.08 18.49C157.968 18.3697 157.893 18.2192 157.864 18.0571C157.836 17.8949 157.855 17.7279 157.919 17.5764C157.984 17.425 158.091 17.2955 158.228 17.2039C158.365 17.1122 158.525 17.0622 158.69 17.06L171.92 16.98C172.21 16.9791 172.495 16.9011 172.745 16.7541C172.996 16.607 173.203 16.3961 173.346 16.1425C173.489 15.8889 173.563 15.6017 173.56 15.3098C173.557 15.0179 173.478 14.7317 173.33 14.48C172.257 12.6667 172.147 10.7767 173 8.81002C173.113 8.55669 173.3 8.37669 173.56 8.27002C176.91 6.90002 179.87 9.59002 177.77 13.23C177.45 13.7767 177.26 14.95 177.2 16.75C177.033 21.9034 176.947 26.9667 176.94 31.94C176.94 32.2185 177.051 32.4856 177.247 32.6825C177.444 32.8794 177.711 32.99 177.99 32.99L185.24 33C185.567 33 185.683 33.1567 185.59 33.47C184.76 36.48 183.5 39.63 183.23 42.54C182.543 49.9467 184.117 56.88 187.95 63.34C188.053 63.5108 188.109 63.706 188.112 63.9056C188.114 64.1052 188.064 64.3018 187.965 64.4751C187.866 64.6485 187.722 64.7923 187.549 64.8916C187.376 64.9909 187.18 65.0421 186.98 65.04L177.76 65.02C177.664 65.0187 177.569 65.0363 177.48 65.0717C177.391 65.1072 177.31 65.1599 177.241 65.2267C177.172 65.2936 177.117 65.3733 177.079 65.4614C177.041 65.5495 177.021 65.6442 177.02 65.74L176.97 71.01C176.963 71.5234 177.217 71.8134 177.73 71.88C187.32 73.05 193.97 69.7 199.22 61.7C199.393 61.4334 199.453 61.1434 199.4 60.83C198.98 58.39 200.37 56.04 202.93 55.89C205.49 55.75 206.6 59.06 205.82 61.16C205.21 62.8 202.49 63.87 201.39 66.13C198.977 71.0567 196.57 75.9867 194.17 80.92C192.12 85.14 189.61 85.73 185.64 87.62C185.328 87.7692 185.07 88.0102 184.898 88.3105C184.727 88.6107 184.652 88.9558 184.682 89.2992C184.713 89.6426 184.848 89.9677 185.069 90.2307C185.29 90.4937 185.587 90.6819 185.92 90.77L187 91.06C187.329 91.1477 187.629 91.3181 187.873 91.5551C188.118 91.7921 188.297 92.0877 188.394 92.4137C188.491 92.7397 188.503 93.0851 188.429 93.4171C188.355 93.7491 188.197 94.0565 187.97 94.31C186.91 95.5034 186.173 96.89 185.76 98.47C185.645 98.9056 185.389 99.2909 185.03 99.5659C184.672 99.8408 184.233 99.99 183.78 99.99C154.473 100.003 125.307 100.007 96.2799 100C92.0399 100 85.9199 100.47 80.6499 99.8C80.2499 99.7467 79.9399 99.5534 79.7199 99.22L53.5899 59.59C53.4099 59.3234 53.1633 59.1634 52.8499 59.11C44.9499 57.63 50.9199 48.67 55.5799 53.45C55.8133 53.6967 55.9366 53.99 55.9499 54.33C56.0899 58.59 56.6799 59.92 59.9499 62.53C60.1468 62.6878 60.3911 62.7753 60.6444 62.7789C60.8978 62.7825 61.1459 62.702 61.3499 62.55L71.2499 55C71.4396 54.8547 71.5824 54.6568 71.6606 54.4311C71.7388 54.2053 71.749 53.9615 71.6899 53.73C70.6499 49.7967 70.6233 45.7934 71.6099 41.72C74.1699 31.2 83.7099 33.08 91.7299 32.95C92.6566 32.9367 93.1033 32.4667 93.0699 31.54L92.9299 27.81C92.9119 27.3254 92.7083 26.8666 92.3617 26.5293C92.0151 26.192 91.5523 26.0024 91.0699 26L78.4499 25.97C78.3311 25.9686 78.2149 25.9342 78.1146 25.8705C78.0142 25.8069 77.9335 25.7165 77.8816 25.6096C77.8297 25.5026 77.8086 25.3833 77.8207 25.2651C77.8327 25.1468 77.8775 25.0343 77.9499 24.94L79.6199 22.79C79.9569 22.3568 80.1182 21.8121 80.0719 21.2639C80.0256 20.7158 79.7751 20.204 79.3699 19.83L77.1599 17.82C77.0887 17.7562 77.0386 17.6721 77.0164 17.579C76.9942 17.4859 77.0009 17.3883 77.0357 17.2991C77.0705 17.21 77.1317 17.1336 77.2111 17.0801C77.2905 17.0267 77.3843 16.9987 77.4799 17L91.7699 17.02C92.0071 17.0196 92.2402 16.958 92.4466 16.8412C92.6531 16.7245 92.826 16.5565 92.9486 16.3535C93.0712 16.1504 93.1394 15.9192 93.1467 15.6822C93.1539 15.4451 93.0999 15.2102 92.9899 15C91.1899 11.58 89.9199 6.87002 96.3299 8.12002C96.8167 8.21505 97.2486 8.4929 97.5369 8.89648C97.8252 9.30007 97.9479 9.79874 97.8799 10.29C96.8599 17.64 96.9699 24.7 96.9499 32.01C96.9499 32.1396 96.9758 32.2678 97.0262 32.3874C97.0766 32.5069 97.1504 32.6154 97.2434 32.7065C97.3364 32.7977 97.4467 32.8697 97.568 32.9183C97.6893 32.967 97.8191 32.9913 97.9499 32.99L103 32.93C103.169 32.9273 103.336 32.9631 103.489 33.0347C103.642 33.1064 103.777 33.212 103.884 33.3438C103.99 33.4755 104.066 33.63 104.105 33.7956C104.145 33.9612 104.146 34.1336 104.11 34.3C101.86 44.2 102.01 54.25 107.01 63.18C107.113 63.3637 107.165 63.571 107.163 63.7814C107.162 63.9918 107.105 64.198 106.999 64.3797C106.893 64.5615 106.741 64.7124 106.559 64.8177C106.377 64.923 106.17 64.9789 105.96 64.98L99.7099 65.01C99.2433 65.01 99.0966 65.2267 99.2699 65.66ZM79.8599 65.31C76.4399 64.84 74.5199 62.63 73.7599 59.37C73.7182 59.1886 73.6316 59.0206 73.5079 58.8814C73.3842 58.7422 73.2275 58.6364 73.0522 58.5737C72.877 58.5109 72.6887 58.4933 72.5048 58.5223C72.3209 58.5514 72.1473 58.6263 71.9999 58.74L63.5599 65.28C63.2733 65.5 63.2566 65.7367 63.5099 65.99L71.5499 74.19C72.7366 75.4034 73.7466 75.27 74.5799 73.79C76.1466 70.99 77.9966 68.4134 80.1299 66.06C80.1854 65.9995 80.2233 65.925 80.2395 65.8445C80.2557 65.764 80.2496 65.6806 80.2218 65.6034C80.194 65.5261 80.1455 65.4579 80.0818 65.4062C80.018 65.3545 79.9413 65.3213 79.8599 65.31ZM84.5399 65.13C84.3684 65.1382 84.2013 65.1881 84.0533 65.2752C83.9052 65.3623 83.7805 65.484 83.6899 65.63L78.2199 74.53C78.1205 74.6898 78.0654 74.8732 78.0603 75.0613C78.0552 75.2494 78.1003 75.4355 78.1909 75.6005C78.2815 75.7654 78.4144 75.9032 78.5759 75.9998C78.7374 76.0964 78.9218 76.1483 79.1099 76.15L91.9399 76.27C92.08 76.2713 92.2189 76.2449 92.3487 76.1922C92.4784 76.1395 92.5965 76.0617 92.6959 75.9631C92.7954 75.8645 92.8744 75.7472 92.9283 75.618C92.9822 75.4887 93.01 75.3501 93.0099 75.21L93.0199 65.81C93.0202 65.6656 92.9909 65.5227 92.9339 65.39C92.8769 65.2573 92.7934 65.1377 92.6886 65.0385C92.5837 64.9392 92.4597 64.8624 92.324 64.8128C92.1884 64.7632 92.0441 64.7418 91.8999 64.75L84.5399 65.13ZM130.89 76.42L131.61 76.88C131.957 77.1 132.247 77.0434 132.48 76.71C134.35 74.04 133.96 70.2 133.7 67.12C133.55 65.32 132.79 65.21 131.24 65.03C128.12 64.65 126.47 64.64 124.44 67.34C122.633 69.74 120.853 72.25 119.1 74.87C119.009 75.0064 118.957 75.165 118.949 75.3288C118.942 75.4926 118.979 75.6554 119.057 75.7995C119.135 75.9436 119.252 76.0636 119.393 76.1465C119.535 76.2295 119.696 76.2722 119.86 76.27L129.88 76.13C130.247 76.1234 130.583 76.22 130.89 76.42ZM165.89 76.27C168.12 73.29 169.54 72.57 172.97 71.45C173.128 71.3969 173.272 71.3079 173.39 71.1899C173.508 71.0719 173.597 70.9282 173.65 70.77C174.62 67.77 173.98 63.71 169.67 65.14C169.41 65.2267 169.2 65.3834 169.04 65.61L162.43 75.33C162.163 75.7234 162.257 75.9934 162.71 76.14L164.52 76.71C165.08 76.89 165.537 76.7434 165.89 76.27ZM136.97 76.62C136.97 76.6725 136.981 76.7244 137.005 76.7716C137.028 76.8187 137.061 76.8599 137.103 76.8919C137.145 76.9238 137.193 76.9457 137.245 76.9558C137.296 76.9659 137.349 76.9639 137.4 76.95L141.64 75.78C141.69 75.7658 141.736 75.7403 141.775 75.7055C141.813 75.6707 141.844 75.6275 141.863 75.5792C141.882 75.5309 141.89 75.4788 141.886 75.4269C141.882 75.3751 141.866 75.3248 141.84 75.28L137.65 68.35C137.612 68.2873 137.554 68.2387 137.486 68.2115C137.417 68.1843 137.342 68.18 137.271 68.1991C137.2 68.2183 137.138 68.2599 137.092 68.3177C137.047 68.3756 137.022 68.4466 137.02 68.52L136.97 76.62ZM98.5699 70.67C98.4718 70.5124 98.3254 70.3908 98.1524 70.3233C97.9795 70.2558 97.7894 70.2461 97.6105 70.2956C97.4315 70.3451 97.2734 70.4512 97.1598 70.598C97.0462 70.7448 96.9831 70.9244 96.9799 71.11L96.9099 75.8C96.9068 76.0044 96.9765 76.2031 97.1066 76.3607C97.2367 76.5183 97.4187 76.6244 97.6199 76.66L99.3699 76.98C99.5562 77.0135 99.7482 76.9846 99.9164 76.8978C100.084 76.811 100.219 76.6712 100.3 76.5L100.92 75.15C100.981 75.02 101.008 74.8769 100.999 74.7337C100.99 74.5904 100.946 74.4517 100.87 74.33L98.5699 70.67ZM99.948 87.7676C99.9433 87.086 99.668 86.4343 99.1827 85.9557C98.6974 85.4771 98.0418 85.2109 97.3602 85.2156L87.4804 85.2846C86.7989 85.2894 86.1471 85.5647 85.6685 86.05C85.1899 86.5353 84.9237 87.1908 84.9284 87.8724L84.9318 88.3524C84.9366 89.034 85.2119 89.6858 85.6972 90.1644C86.1825 90.643 86.8381 90.9092 87.5196 90.9044L97.3994 90.8354C98.081 90.8307 98.7328 90.5553 99.2114 90.07C99.69 89.5847 99.9562 88.9292 99.9514 88.2476L99.948 87.7676ZM118.796 87.5257C118.794 87.2198 118.732 86.9172 118.613 86.6353C118.494 86.3535 118.32 86.0978 118.103 85.883C117.885 85.6681 117.627 85.4983 117.343 85.3832C117.06 85.268 116.756 85.2099 116.45 85.212L105.551 85.2881C105.245 85.2903 104.942 85.3526 104.66 85.4717C104.378 85.5908 104.123 85.7642 103.908 85.982C103.693 86.1999 103.523 86.458 103.408 86.7415C103.293 87.025 103.235 87.3283 103.237 87.6343L103.243 88.5743C103.246 88.8803 103.308 89.1829 103.427 89.4647C103.546 89.7466 103.719 90.0022 103.937 90.2171C104.155 90.4319 104.413 90.6018 104.697 90.7169C104.98 90.832 105.284 90.8902 105.59 90.888L116.489 90.8119C116.795 90.8098 117.098 90.7474 117.38 90.6283C117.662 90.5093 117.917 90.3359 118.132 90.118C118.347 89.9001 118.517 89.6421 118.632 89.3586C118.747 89.0751 118.805 88.7717 118.803 88.4657L118.796 87.5257ZM136.841 88.1579C136.848 87.8087 136.787 87.4614 136.66 87.136C136.533 86.8105 136.343 86.5132 136.101 86.2611C135.859 86.009 135.57 85.8069 135.251 85.6665C134.931 85.5261 134.586 85.4501 134.237 85.4428L124.479 85.2384C123.774 85.2237 123.092 85.4897 122.582 85.978C122.073 86.4662 121.779 87.1368 121.764 87.8421L121.759 88.0821C121.752 88.4314 121.813 88.7786 121.94 89.1041C122.067 89.4295 122.257 89.7268 122.499 89.979C122.74 90.2311 123.029 90.4331 123.349 90.5735C123.669 90.7139 124.014 90.7899 124.363 90.7972L134.121 91.0016C134.826 91.0164 135.508 90.7504 136.017 90.2621C136.527 89.7738 136.821 89.1032 136.836 88.3979L136.841 88.1579ZM155.008 87.8389C154.999 87.1441 154.715 86.4811 154.218 85.9958C153.721 85.5105 153.051 85.2426 152.356 85.2511L142.677 85.3693C141.982 85.3778 141.319 85.662 140.834 86.1593C140.348 86.6566 140.081 87.3263 140.089 88.0211L140.092 88.2611C140.1 88.9559 140.385 89.6189 140.882 90.1042C141.379 90.5895 142.049 90.8574 142.744 90.8489L152.423 90.7307C153.118 90.7222 153.781 90.4381 154.266 89.9408C154.751 89.4435 155.019 88.7737 155.011 88.0789L155.008 87.8389ZM173.849 87.9588C173.845 87.2534 173.562 86.5783 173.06 86.082C172.559 85.5858 171.881 85.3091 171.175 85.3128L160.775 85.3673C160.426 85.3691 160.081 85.4397 159.759 85.5751C159.437 85.7105 159.144 85.9079 158.899 86.1562C158.653 86.4045 158.458 86.6988 158.326 87.0222C158.195 87.3457 158.128 87.6919 158.129 88.0412L158.131 88.3012C158.134 89.0067 158.418 89.6818 158.92 90.178C159.421 90.6742 160.099 90.9509 160.805 90.9472L171.204 90.8927C171.554 90.8909 171.899 90.8203 172.221 90.6849C172.543 90.5496 172.836 90.3521 173.081 90.1038C173.327 89.8555 173.521 89.5613 173.653 89.2378C173.785 88.9144 173.852 88.5681 173.851 88.2188L173.849 87.9588Z" fill="white"/>
<path d="M129.86 142.49C132.587 140.343 135.357 138.257 138.17 136.23C157.26 122.51 182.34 117.11 205.68 122.93C234.6 130.14 254.09 159.79 255.94 188.33C256.367 194.877 256.173 201.433 255.36 208C255.127 209.907 254.103 213.997 252.29 220.27C249.463 230.037 244.287 240.62 236.76 252.02C226.92 266.927 215.3 280.287 201.9 292.1C199.353 294.34 196.817 296.6 194.29 298.88C183.61 308.52 171.9 316.81 159 325.49C143.28 336.08 127.25 340.26 109.41 330.96C104.39 328.34 99.0834 325.027 93.49 321.02C54.69 293.18 16.54 259.15 4.85003 211.64C0.920034 195.7 4.07003 175.81 10.66 160.89C21.3 136.81 42.57 121.72 69.09 120.76C85.4167 120.173 100.87 123.933 115.45 132.04C118.277 133.613 122.82 137.093 129.08 142.48C129.333 142.7 129.593 142.703 129.86 142.49ZM128.7 185.03C126.86 183.87 124.96 181.89 123.51 180.84C119.39 177.873 114.963 175.477 110.23 173.65C107.32 172.52 104.16 171.99 101 171.29C85.95 167.96 71.95 170.76 59.84 180.29C47.42 190.07 41.75 206.68 41.19 222C40.79 232.62 45.23 244.12 50.7 255.52C52.74 259.767 56.73 265.453 62.67 272.58C73.21 285.21 87.97 298.83 102.79 308.66C109.543 313.14 115.287 316.017 120.02 317.29C131.587 320.397 142.747 318.22 153.5 310.76C177.62 294.03 202.43 272.4 213.64 244.43C222.66 221.94 217.86 194.31 197.83 179.18C176.85 163.34 149.3 169.32 129.97 184.95C129.793 185.095 129.574 185.181 129.346 185.196C129.118 185.21 128.892 185.152 128.7 185.03Z" fill="white"/>
</svg>
