<svg width="225" height="304" viewBox="0 0 225 304" fill="none" xmlns="http://www.w3.org/2000/svg">
<path d="M113.914 112.423C119.279 112.423 123.627 108.074 123.627 102.71C123.627 97.3454 119.279 92.9967 113.914 92.9967C108.55 92.9967 104.201 97.3454 104.201 102.71C104.201 108.074 108.55 112.423 113.914 112.423Z" fill="white"/>
<path d="M0 168.802C0 135.042 27.3679 107.209 61.1351 107.667C78.1758 107.895 94.8808 113.18 113.914 128.75C134.169 113.516 147.517 109.188 163.693 109.188C197.453 109.188 225 135.042 225 168.802C225 247.292 111.8 303.477 111.8 303.477C111.8 303.477 0 247.292 0 168.802ZM32.1316 198.484C32.1316 256.255 111.8 295.086 111.8 295.086C112.279 294.85 188.033 258.169 191.404 203.019L191.433 202.54C192.076 177.636 172.064 156.603 146.746 156.603C137.654 156.603 129.184 159.246 122.056 163.817C118.406 166.152 115.114 168.994 112.264 172.237C109.536 169.123 106.386 166.381 102.908 164.102C95.695 159.36 87.0604 156.603 77.783 156.603C52.4719 156.603 31.9531 177.122 31.9531 202.433" fill="white"/>
<path d="M172.786 49.9383L162.223 59.8799L152.46 60.0085L152.238 50.3454H166.701C166.701 50.3454 162.63 47.7672 162.459 44.1176C162.294 40.461 161.216 34.726 162.88 31.155C164.537 27.5769 167.115 24.2559 167.115 24.2559L152.26 24.2416L152.481 7.30088L150.367 7.27946L150.303 10.3291L136.448 10.4219L139.569 14.2714L136.419 18.6566L150.16 18.5852V24.2344L136.398 24.3344C134.319 30.0551 131.255 39.911 135.548 47.1244L135.619 49.0313L133.098 49.1027V50.2597L149.303 50.324L149.239 58.9086C146.318 58.3873 143.447 60.2584 142.768 63.2652H118.528L119 49.4384L129.556 49.5812L129.491 46.7173C124.913 40.7395 127.135 24.4416 134.526 20.6349L134.462 19.0708H117.3L117.364 4.87262H115.257L115.122 7.57227H101.159L104.43 11.4146L101.502 15.7355L115.05 15.9426V19.0708H99.5309V20.2564L104.637 21.8133V22.9632C92.3389 28.9481 97.0026 40.3181 97.9454 48.5956H96.8098V50.6025H113.658V63.3366H82.5473V51.0953H93.0746V48.817C93.0746 48.817 89.1394 47.7172 89.1394 44.8818C89.1394 42.0465 88.8322 34.6974 90.9534 31.9263C93.0746 29.1553 97.2312 24.9201 97.2312 24.9201H82.8759L82.9401 8.96496C83.9257 8.65071 84.3685 7.92937 84.3471 6.58669C84.3971 3.07999 78.8835 3.07999 78.9407 6.58669C78.9192 7.9508 79.512 8.70785 80.519 9.00781L80.4262 12.2645H65.9851L69.6204 15.8998L65.4995 20.0135H80.3476V24.9201H62.9712L68.1492 27.684C59.5788 37.3114 61.2072 39.2111 62.5213 50.7739H78.9192L79.0835 63.2509L62.5213 63.3366L51.1799 48.7599C50.8656 49.3812 50.2943 49.8812 49.4015 50.0597C49.2373 50.0954 49.0873 50.1097 48.9373 50.1169L70.7631 83.3769H158.766L161.994 76.1493C161.994 76.1493 157.531 73.0711 158.766 71.0714C159.995 69.0716 165.38 70.6071 165.38 70.6071L174.978 50.2026C174.243 50.3811 173.436 50.3026 172.786 49.9383ZM84.7613 75.7708H76.5338V71.4499H84.7613V75.7708ZM98.1668 75.7708H89.9393V71.4499H98.1668V75.7708ZM111.565 75.7708H103.338V71.4499H111.565V75.7708ZM124.963 75.7708H116.736V71.4499H124.963V75.7708ZM138.362 75.7708H130.134V71.4499H138.362V75.7708Z" fill="white"/>
<path d="M118.978 2.63002C119.028 -0.876674 113.522 -0.876674 113.572 2.63002C113.522 6.13672 119.028 6.13672 118.978 2.63002Z" fill="white"/>
<path d="M154.189 4.80117C154.239 1.29447 148.732 1.29447 148.782 4.80117C148.732 8.30786 154.239 8.30786 154.189 4.80117Z" fill="white"/>
<path d="M176.928 47.9314C176.978 44.4247 171.472 44.4247 171.522 47.9314C171.472 51.4381 176.978 51.4381 176.928 47.9314Z" fill="white"/>
<path d="M51.6512 47.6959C51.7012 44.1892 46.1948 44.1892 46.2448 47.6959C46.1948 51.2026 51.7012 51.2026 51.6512 47.6959Z" fill="white"/>
<path d="M72.3513 48.9758L70.7385 47.6993L58.8688 62.6967L60.4816 63.9732L72.3513 48.9758Z" fill="white"/>
<path d="M80.635 50.9577L79.0222 49.6812L67.1525 64.6785L68.7653 65.955L80.635 50.9577Z" fill="white"/>
<path d="M143.606 49.5421L141.993 48.2656L130.124 63.2629L131.736 64.5395L143.606 49.5421Z" fill="white"/>
<path d="M149.21 50.6497L147.597 49.3732L135.727 64.3705L137.34 65.647L149.21 50.6497Z" fill="white"/>
<path d="M107.252 50.4722L105.639 49.1957L93.7695 64.193L95.3823 65.4695L107.252 50.4722Z" fill="white"/>
<path d="M113.724 50.4716L112.111 49.1951L100.241 64.1924L101.854 65.4689L113.724 50.4716Z" fill="white"/>
<path d="M81.6273 54.3439L79.9833 55.5801L91.4777 70.8669L93.1217 69.6308L81.6273 54.3439Z" fill="white"/>
<path d="M87.5932 48.1177L85.9492 49.3539L97.4436 64.6407L99.0876 63.4046L87.5932 48.1177Z" fill="white"/>
<path d="M83.1009 49.0513L81.4569 50.2875L92.9513 65.5743L94.5953 64.3382L83.1009 49.0513Z" fill="white"/>
<path d="M116.824 54.3696L115.18 55.6057L126.675 70.8926L128.319 69.6564L116.824 54.3696Z" fill="white"/>
<path d="M122.324 47.5223L120.68 48.7584L133.668 66.0318L135.312 64.7956L122.324 47.5223Z" fill="white"/>
<path d="M118.293 49.0711L116.649 50.3073L128.144 65.5941L129.788 64.358L118.293 49.0711Z" fill="white"/>
<path d="M66.8929 38.3978L65.5305 36.8568L51.2014 49.5252L52.5638 51.0662L66.8929 38.3978Z" fill="white"/>
</svg>
