<?xml version="1.0" encoding="UTF-8"?> <svg xmlns="http://www.w3.org/2000/svg" width="300" height="307" viewBox="0 0 300 307" fill="none"><path d="M47.3 143.49C49.05 141.75 51.41 140.77 53.88 140.78H128.79C133.46 140.78 137.25 136.99 137.25 132.32V101.97C137.25 99.52 138.23 97.17 139.96 95.44C141.71 93.7 144.07 92.73 146.54 92.73H176.86C181.53 92.73 185.32 88.94 185.32 84.27V56.56C185.32 51.89 181.53 48.1 176.86 48.1H146.6C141.46 48.1 137.29 43.93 137.28 38.78V8.46C137.28 3.79 133.49 0 128.82 0H8.6C3.85 0 0 3.85 0 8.6V35.99C0 40.74 3.85 44.59 8.6 44.59H131.45C136.61 44.59 140.79 48.77 140.79 53.93V86.92C140.79 89.38 139.81 91.75 138.07 93.49C136.33 95.23 133.96 96.2 131.5 96.2H56.56C51.89 96.2 48.1 99.99 48.1 104.66V135.01C48.1 137.47 47.13 139.83 45.39 141.57C43.65 143.31 41.29 144.28 38.83 144.28H8.46C3.79 144.29 0 148.07 0 152.74V180.41C0 185.08 3.79 188.87 8.46 188.87H38.84C41.3 188.87 43.66 189.84 45.4 191.58C47.14 193.32 48.11 195.68 48.11 198.14V228.51C48.11 233.18 51.9 236.97 56.57 236.97H176.79C181.54 236.97 185.39 233.12 185.39 228.37V200.99C185.39 196.24 181.54 192.39 176.79 192.39H53.91C51.44 192.39 49.08 191.42 47.33 189.68C45.59 187.95 44.62 185.6 44.62 183.15V150.09C44.6 147.63 45.56 145.26 47.3 143.51V143.49Z" fill="white"></path><path d="M279.83 135.82C279.64 135.62 279.37 135.51 279.1 135.51H274.84C274.56 135.51 274.3 135.62 274.11 135.82L274.03 135.9C273.83 136.09 273.72 136.36 273.72 136.63V152.08C273.72 152.36 273.83 152.62 274.03 152.81L274.11 152.89C274.3 153.09 274.57 153.2 274.84 153.2H279.1C279.38 153.2 279.64 153.09 279.83 152.89L279.91 152.81C280.11 152.62 280.22 152.35 280.22 152.08V136.63C280.22 136.35 280.11 136.09 279.91 135.9L279.83 135.82Z" fill="white"></path><path d="M279.89 207.62C279.69 207.42 279.42 207.31 279.14 207.31H274.9C274.62 207.31 274.35 207.42 274.15 207.62L274.08 207.69C273.88 207.89 273.77 208.16 273.77 208.44V212.67C273.77 212.95 273.88 213.22 274.08 213.42L274.15 213.49C274.35 213.69 274.62 213.8 274.9 213.8H279.16C279.44 213.8 279.71 213.69 279.91 213.49C280.14 213.29 280.26 213 280.26 212.7V208.45C280.26 208.17 280.15 207.9 279.95 207.7L279.88 207.63L279.89 207.62Z" fill="white"></path><path d="M291.51 48.15H261.25C258.77 48.15 256.4 47.14 254.66 45.38C252.91 43.63 251.93 41.26 251.94 38.79V8.50001C251.93 3.81001 248.13 0.0100098 243.44 0.0100098H215.83C211.14 0.0100098 207.34 3.81001 207.34 8.50001V36.1C207.34 40.79 211.14 44.59 215.83 44.59H246.1C248.57 44.59 250.94 45.57 252.69 47.31C254.44 49.06 255.42 51.43 255.41 53.9V228.47C255.41 233.16 259.21 236.96 263.9 236.96H291.5C296.19 236.96 299.99 233.16 299.99 228.47V56.64C299.99 51.95 296.19 48.15 291.5 48.15H291.51ZM285.77 229.53C285.77 230.11 285.3 230.58 284.72 230.58H281.23C280.65 230.58 280.18 230.11 280.18 229.53V213.6L280.04 213.74C279.84 213.94 279.73 214.21 279.73 214.49V218.34C279.73 218.92 279.26 219.39 278.68 219.39H275.19C274.61 219.39 274.14 218.92 274.14 218.34V214.47C274.14 214.19 274.03 213.92 273.83 213.72L273.69 213.58V229.58C273.69 230.16 273.22 230.63 272.64 230.63H269.2C268.62 230.63 268.15 230.16 268.15 229.58V208.84C268.15 208.26 268.62 207.79 269.2 207.79H273.08C273.36 207.79 273.63 207.68 273.83 207.48L273.89 207.42C274.09 207.22 274.2 206.95 274.2 206.67V202.8C274.2 202.22 274.67 201.75 275.25 201.75H278.74C279.32 201.75 279.79 202.22 279.79 202.8V206.67C279.79 206.95 279.9 207.22 280.1 207.42L280.16 207.48C280.36 207.68 280.63 207.79 280.91 207.8H284.73C285.31 207.8 285.78 208.27 285.78 208.85V229.53H285.77ZM285.8 193.64C285.8 194.26 285.29 194.77 284.67 194.77H281.28C280.66 194.77 280.15 194.26 280.15 193.64V172.58C280.15 172.29 280.03 172.02 279.83 171.81C279.62 171.61 279.35 171.5 279.06 171.49H274.85C274.56 171.49 274.29 171.61 274.08 171.81C273.88 172.02 273.77 172.29 273.76 172.58V193.63C273.76 194.25 273.25 194.76 272.63 194.76H269.24C268.62 194.76 268.11 194.25 268.11 193.63V172.96C268.11 172.34 268.62 171.83 269.24 171.83H273.03C273.32 171.83 273.59 171.71 273.8 171.51C274 171.3 274.11 171.03 274.12 170.74V166.93C274.12 166.31 274.63 165.8 275.25 165.8H278.64C279.26 165.8 279.77 166.31 279.77 166.93V170.74C279.77 171.03 279.88 171.31 280.08 171.52C280.29 171.72 280.56 171.83 280.85 171.84H284.67C285.29 171.84 285.8 172.35 285.8 172.97V193.64ZM285.82 151.7C285.82 152.27 285.36 152.73 284.79 152.73H280.89C280.61 152.73 280.35 152.84 280.16 153.04L280.08 153.12C279.88 153.31 279.77 153.58 279.77 153.85V157.75C279.77 158.32 279.31 158.78 278.74 158.78H275.2C274.63 158.78 274.17 158.32 274.17 157.75V153.85C274.17 153.57 274.06 153.31 273.86 153.12L273.78 153.04C273.59 152.84 273.32 152.73 273.05 152.73H269.15C268.58 152.73 268.12 152.27 268.12 151.7V137C268.12 136.43 268.58 135.97 269.15 135.97H273.05C273.33 135.97 273.59 135.86 273.78 135.66L273.86 135.58C274.06 135.39 274.17 135.12 274.17 134.85V130.95C274.17 130.38 274.63 129.92 275.2 129.92H278.74C279.31 129.92 279.77 130.38 279.77 130.95V134.85C279.77 135.13 279.88 135.39 280.08 135.58L280.16 135.66C280.35 135.86 280.62 135.97 280.89 135.97H284.79C285.36 135.97 285.82 136.43 285.82 137V151.7ZM274.9 105.65H278.89C279.16 105.65 279.41 105.54 279.6 105.36L279.7 105.26C279.87 105.06 279.96 104.81 279.95 104.55V95.44C279.95 94.88 280.4 94.43 280.96 94.43H284.57C285.13 94.43 285.58 94.88 285.58 95.44V104.2C285.58 104.76 285.13 105.21 284.57 105.21H280.62C280.35 105.21 280.1 105.32 279.91 105.5L279.81 105.6C279.62 105.79 279.52 106.05 279.52 106.31V110.59C279.52 110.86 279.63 111.11 279.81 111.3L279.91 111.4C280.1 111.59 280.36 111.69 280.62 111.69H284.57C285.13 111.69 285.58 112.14 285.58 112.7V121.9C285.58 122.46 285.13 122.91 284.57 122.91H280.96C280.4 122.91 279.95 122.46 279.95 121.9V112.35C279.95 112.08 279.84 111.83 279.66 111.64L279.56 111.54C279.37 111.35 279.11 111.25 278.85 111.25H274.9C274.34 111.25 273.89 111.7 273.89 112.26V121.9C273.89 122.46 273.44 122.91 272.88 122.91H269.27C268.71 122.91 268.26 122.46 268.26 121.9V95.45C268.26 94.89 268.71 94.44 269.27 94.44H272.88C273.44 94.44 273.89 94.89 273.89 95.45V104.65C273.89 105.21 274.34 105.66 274.9 105.66V105.65ZM291.89 80.24C291.89 80.86 291.38 81.37 290.76 81.37H286.93C286.65 81.37 286.38 81.49 286.17 81.69C285.97 81.9 285.86 82.17 285.85 82.46V86.24C285.85 86.86 285.34 87.37 284.72 87.37H281.33C280.71 87.37 280.2 86.86 280.2 86.24V82.41C280.2 82.13 280.08 81.86 279.88 81.65C279.67 81.45 279.4 81.34 279.11 81.33H274.89C274.56 81.32 274.24 81.45 274.02 81.69C273.82 81.9 273.71 82.17 273.7 82.46V86.35C273.7 86.97 273.19 87.48 272.57 87.48H269.18C268.56 87.48 268.05 86.97 268.05 86.35V82.52C268.05 82.23 267.93 81.96 267.73 81.75C267.53 81.55 267.26 81.44 266.97 81.43H263.34C262.72 81.43 262.21 80.92 262.21 80.3V60.04C262.21 59.42 262.72 58.91 263.34 58.91H266.73C267.35 58.91 267.86 59.42 267.86 60.04V80.67C267.86 80.96 267.98 81.23 268.18 81.44C268.38 81.64 268.65 81.75 268.94 81.76H273.16C273.44 81.76 273.71 81.64 273.92 81.44C274.12 81.24 274.23 80.97 274.24 80.68V60.04C274.24 59.42 274.75 58.91 275.37 58.91H278.76C279.38 58.91 279.89 59.42 279.89 60.04V80.68C279.89 80.96 280.01 81.23 280.21 81.44C280.41 81.64 280.68 81.75 280.97 81.76H285.19C285.47 81.76 285.74 81.64 285.95 81.44C286.14 81.23 286.24 80.96 286.24 80.68V60.04C286.24 59.42 286.75 58.91 287.37 58.91H290.76C291.38 58.91 291.89 59.42 291.89 60.04V80.24Z" fill="white"></path><path d="M265.58 275.22L271.73 270.69H251.14V297.91H271.73V293.38H257.02V286.41H269.56V281.88H257.02V275.22H265.58Z" fill="white"></path><path d="M235.6 281.3H228.45V275.22H239.86L246.01 270.69H222.57V297.92H234.84C241.72 297.92 245.67 294.8 245.67 289.37C245.67 283.94 242.09 281.31 235.6 281.31V281.3ZM234.58 293.38H228.45V285.83H234.58C238.31 285.83 240.05 287.09 240.05 289.6C240.05 292.11 238.21 293.37 234.58 293.37V293.38Z" fill="white"></path><path d="M288.4 270.69H277.19V297.92H283.06V290.21H288.39C295.54 290.21 299.99 286.45 299.99 280.44C299.99 274.43 295.55 270.7 288.39 270.7L288.4 270.69ZM288.27 285.67H283.06V275.22H288.27C292.03 275.22 294.11 277.08 294.11 280.44C294.11 283.8 292.04 285.66 288.27 285.66V285.67Z" fill="white"></path><path d="M212.5 292.02C210.99 292.85 209.24 293.29 207.43 293.29C202.13 293.29 198.29 289.51 198.29 284.3C198.29 279.09 202.13 275.31 207.43 275.31C209.43 275.31 211.23 275.87 212.77 276.98L216.98 273.87L216.7 273.63C214.24 271.47 210.95 270.33 207.19 270.33C203.11 270.33 199.41 271.7 196.77 274.2C194.11 276.71 192.65 280.24 192.65 284.15C192.65 288.06 194.11 291.66 196.76 294.25C199.42 296.85 203.11 298.28 207.16 298.28C211.21 298.28 215.09 296.8 217.6 294.12C215.67 292.69 213.8 291.32 213.8 291.32L212.5 292.03V292.02Z" fill="white"></path><path d="M179.04 284.3C179.04 282.92 178.92 281.56 178.68 280.25L173.81 283.84C173.81 283.99 173.81 284.15 173.81 284.3C173.81 293.89 166.01 301.7 156.41 301.7C146.81 301.7 139.01 293.9 139.01 284.3C139.01 274.7 146.81 266.9 156.41 266.9C160.05 266.9 163.42 268.02 166.22 269.94L170.62 266.7C166.74 263.56 161.79 261.68 156.41 261.68C143.92 261.68 133.79 271.81 133.79 284.3C133.79 296.79 143.92 306.92 156.41 306.92C168.9 306.92 179.03 296.79 179.03 284.3H179.04Z" fill="white"></path><path d="M174.32 270.47C175.39 271.85 176.3 273.36 177.03 274.97L156.42 290.16L147.81 284.76V278.26L156.42 283.66L174.32 270.47Z" fill="white"></path></svg> 