<svg width="235" height="290" viewBox="0 0 235 290" fill="none" xmlns="http://www.w3.org/2000/svg">
<path fill-rule="evenodd" clip-rule="evenodd" d="M183.59 3.18804V0H199.53V3.18804H189.966H183.59Z" fill="white"/>
<path fill-rule="evenodd" clip-rule="evenodd" d="M180.402 6.37505V3.18701H183.59V6.37505H180.402Z" fill="white"/>
<path fill-rule="evenodd" clip-rule="evenodd" d="M199.528 3.18701H202.716V6.37505H199.528V3.18701Z" fill="white"/>
<path fill-rule="evenodd" clip-rule="evenodd" d="M180.403 6.37378V15.9379H177.215H174.026H170.838V19.1259H167.65V12.7499H170.838H174.026H177.215V9.56182V6.37378H180.403Z" fill="white"/>
<path fill-rule="evenodd" clip-rule="evenodd" d="M202.721 9.56182V6.37378H205.909V9.56182H202.721Z" fill="white"/>
<path fill-rule="evenodd" clip-rule="evenodd" d="M205.907 9.56543H209.095V12.7535V15.9415V19.1296H205.907V12.7535V9.56543Z" fill="white"/>
<path fill-rule="evenodd" clip-rule="evenodd" d="M170.837 19.125H177.213V22.313H174.025H170.837V19.125Z" fill="white"/>
<path fill-rule="evenodd" clip-rule="evenodd" d="M183.592 19.1251H186.78V22.3132V25.5012H183.592H180.404V28.6892H177.216V22.3132H180.404H183.592V19.1251Z" fill="white"/>
<path fill-rule="evenodd" clip-rule="evenodd" d="M205.909 19.1251V22.3132H209.097H215.473H218.661H221.849V41.4414H218.661V28.6892V25.5012H215.473H212.285H209.097H205.909H202.721V22.3132V19.1251H205.909Z" fill="white"/>
<path fill-rule="evenodd" clip-rule="evenodd" d="M177.212 28.6909V31.879V35.067H174.024V31.879V28.6909H177.212Z" fill="white"/>
<path fill-rule="evenodd" clip-rule="evenodd" d="M174.025 35.0708V44.6349H170.837V41.4469V38.2588V35.0708H174.025Z" fill="white"/>
<path fill-rule="evenodd" clip-rule="evenodd" d="M183.59 12.7535V9.56543H186.778V12.7535H183.59Z" fill="white"/>
<path fill-rule="evenodd" clip-rule="evenodd" d="M215.469 28.6909V31.879V35.067H212.28V31.879H209.092H205.904H202.716V35.067V38.255H199.528V35.067V31.879V28.6909H202.716H205.904H215.469Z" fill="white"/>
<path fill-rule="evenodd" clip-rule="evenodd" d="M209.095 38.2588V35.0708H212.283V38.2588H209.095Z" fill="white"/>
<path fill-rule="evenodd" clip-rule="evenodd" d="M202.721 38.2563H209.097V41.4444H205.909H202.721V38.2563Z" fill="white"/>
<path fill-rule="evenodd" clip-rule="evenodd" d="M215.473 44.6324V41.4443H218.661V44.6324H215.473Z" fill="white"/>
<path fill-rule="evenodd" clip-rule="evenodd" d="M174.024 44.6313H177.212V47.8194H174.024V44.6313Z" fill="white"/>
<path fill-rule="evenodd" clip-rule="evenodd" d="M212.281 47.8194V44.6313H215.469V47.8194H212.281Z" fill="white"/>
<path fill-rule="evenodd" clip-rule="evenodd" d="M177.216 51.0099V47.8219H183.592H196.344H202.72H212.284V51.0099H202.72H196.344H193.156H183.592H177.216Z" fill="white"/>
<path d="M23.8764 77.6385C23.4485 76.9824 22.8922 76.3406 22.2076 75.713C21.5515 75.0854 20.7956 74.5291 19.9398 74.0442C19.1125 73.5593 18.1997 73.1742 17.2013 72.8889C16.2314 72.6036 15.1902 72.461 14.0777 72.461C11.9667 72.4895 10.4406 72.8033 9.49921 73.4024C8.58637 74.0014 8.12995 74.8144 8.12995 75.8413C8.12995 76.6116 8.37243 77.2391 8.85737 77.7241C9.37084 78.209 10.0269 78.6084 10.8257 78.9222C11.6244 79.236 12.5372 79.5212 13.5642 79.778C14.5911 80.0062 15.6466 80.2629 16.7306 80.5482C17.8146 80.8334 18.87 81.19 19.897 81.6179C20.9239 82.0173 21.8368 82.545 22.6355 83.2011C23.4342 83.8572 24.0761 84.6845 24.561 85.6829C25.0745 86.6813 25.3312 87.9079 25.3312 89.3627C25.3312 90.6179 25.103 91.8017 24.6466 92.9143C24.1902 94.0268 23.477 94.9967 22.5071 95.8239C21.5372 96.6226 20.3106 97.2645 18.8273 97.7494C17.3724 98.2059 15.6466 98.4341 13.6498 98.4341C12.3376 98.4341 11.0967 98.32 9.9271 98.0917C8.78605 97.8635 7.74485 97.5783 6.80349 97.236C5.86212 96.8651 5.03487 96.4658 4.32171 96.0379C3.63708 95.5814 3.09509 95.125 2.69572 94.6686V88.0791C3.15214 88.8493 3.73693 89.5624 4.45008 90.2185C5.16323 90.8746 5.97623 91.4452 6.88907 91.9301C7.83043 92.415 8.87163 92.8001 10.0127 93.0854C11.1537 93.3707 12.3803 93.5133 13.6926 93.5133C15.8035 93.5133 17.3582 93.171 18.3566 92.4864C19.355 91.8017 19.8542 90.8461 19.8542 89.6195C19.8542 88.564 19.4263 87.7795 18.5705 87.2661C17.7433 86.7241 16.6878 86.2819 15.4041 85.9396C14.1204 85.5973 12.7369 85.255 11.2536 84.9127C9.79873 84.5704 8.42948 84.0711 7.1458 83.415C5.86212 82.7589 4.79239 81.8604 3.93661 80.7193C3.10935 79.5497 2.69572 77.9665 2.69572 75.9697C2.69572 73.2883 3.69414 71.2201 5.69097 69.7653C7.6878 68.2819 10.4834 67.5402 14.0777 67.5402C16.3883 67.5688 18.3851 67.8683 20.0681 68.4388C21.7512 68.9808 23.0206 69.5799 23.8764 70.236V77.6385ZM55.0467 94.6686C54.6758 95.125 54.1481 95.5814 53.4635 96.0379C52.8074 96.4658 52.0229 96.8651 51.1101 97.236C50.1972 97.5783 49.1703 97.8635 48.0292 98.0917C46.9167 98.32 45.7186 98.4341 44.4349 98.4341C41.9817 98.4341 39.7566 98.0775 37.7598 97.3643C35.763 96.6512 34.0514 95.6385 32.6251 94.3263C31.2273 92.9856 30.1291 91.3596 29.3303 89.4483C28.5601 87.5371 28.175 85.3691 28.175 82.9444C28.175 80.6908 28.5601 78.6226 29.3303 76.7399C30.1005 74.8572 31.1988 73.2312 32.6251 71.862C34.0514 70.4927 35.763 69.4372 37.7598 68.6955C39.7852 67.9253 42.0387 67.5402 44.5205 67.5402C46.8882 67.5402 48.9135 67.8398 50.5966 68.4388C52.2796 69.0093 53.5633 69.6084 54.4476 70.236V77.6813C53.9912 77.0252 53.4207 76.3833 52.736 75.7558C52.0799 75.1282 51.324 74.5719 50.4682 74.087C49.641 73.602 48.7139 73.2169 47.6869 72.9317C46.6885 72.6179 45.633 72.461 44.5205 72.461C42.8945 72.461 41.4254 72.7177 40.1132 73.2312C38.801 73.7447 37.6885 74.4578 36.7757 75.3707C35.8628 76.2835 35.1639 77.396 34.679 78.7082C34.194 79.9919 33.9516 81.4182 33.9516 82.9871C33.9516 84.442 34.1655 85.8112 34.5934 87.0949C35.0498 88.3501 35.7059 89.4483 36.5617 90.3897C37.446 91.331 38.5443 92.087 39.8565 92.6575C41.1687 93.1995 42.6806 93.4848 44.3921 93.5133C45.7044 93.5133 46.9024 93.3707 47.9864 93.0854C49.099 92.8001 50.0974 92.415 50.9817 91.9301C51.8945 91.4452 52.6933 90.8746 53.3779 90.2185C54.0625 89.5624 54.6188 88.8493 55.0467 88.0791V94.6686ZM81.0211 84.9982H64.6328V97.9634H59.2841V68.0109H64.6328V80.0775H81.0211V68.0109H86.3697V97.9634H81.0211V84.9982ZM90.7526 82.9444C90.7526 80.6908 91.1234 78.6226 91.8651 76.7399C92.6353 74.8572 93.7193 73.2312 95.1171 71.862C96.5149 70.4927 98.1979 69.4372 100.166 68.6955C102.135 67.9253 104.345 67.5402 106.799 67.5402C109.195 67.5402 111.377 67.8968 113.345 68.61C115.342 69.3231 117.039 70.3501 118.437 71.6908C119.835 73.003 120.919 74.6147 121.689 76.526C122.459 78.4372 122.845 80.6052 122.845 83.0299C122.845 85.2835 122.459 87.3517 121.689 89.2344C120.948 91.1171 119.878 92.7431 118.48 94.1123C117.082 95.4816 115.385 96.5513 113.388 97.3215C111.42 98.0632 109.223 98.4341 106.799 98.4341C104.402 98.4341 102.206 98.0917 100.209 97.4071C98.2407 96.694 96.5577 95.6813 95.1599 94.3691C93.7621 93.0284 92.6781 91.4024 91.9079 89.4911C91.1377 87.5513 90.7526 85.3691 90.7526 82.9444ZM96.4008 82.9871C96.4008 84.442 96.6147 85.8112 97.0426 87.0949C97.499 88.3786 98.1694 89.4911 99.0537 90.4325C99.938 91.3738 101.022 92.1298 102.306 92.7003C103.618 93.2423 105.13 93.5133 106.841 93.5133C108.439 93.5133 109.865 93.2566 111.12 92.7431C112.404 92.2296 113.488 91.5165 114.372 90.6036C115.285 89.6908 115.984 88.5925 116.469 87.3089C116.954 85.9967 117.196 84.5561 117.196 82.9871C117.196 81.5323 116.968 80.1631 116.512 78.8794C116.084 77.5957 115.428 76.4832 114.543 75.5418C113.659 74.6005 112.561 73.8588 111.249 73.3168C109.965 72.7463 108.467 72.461 106.756 72.461C105.158 72.461 103.718 72.7177 102.434 73.2312C101.15 73.7447 100.052 74.4721 99.1393 75.4135C98.255 76.3263 97.5703 77.4246 97.0854 78.7082C96.629 79.9919 96.4008 81.4182 96.4008 82.9871ZM125.029 82.9444C125.029 80.6908 125.4 78.6226 126.142 76.7399C126.912 74.8572 127.996 73.2312 129.394 71.862C130.791 70.4927 132.474 69.4372 134.443 68.6955C136.411 67.9253 138.622 67.5402 141.075 67.5402C143.471 67.5402 145.654 67.8968 147.622 68.61C149.619 69.3231 151.316 70.3501 152.714 71.6908C154.112 73.003 155.196 74.6147 155.966 76.526C156.736 78.4372 157.121 80.6052 157.121 83.0299C157.121 85.2835 156.736 87.3517 155.966 89.2344C155.224 91.1171 154.154 92.7431 152.757 94.1123C151.359 95.4816 149.661 96.5513 147.665 97.3215C145.696 98.0632 143.5 98.4341 141.075 98.4341C138.679 98.4341 136.482 98.0917 134.486 97.4071C132.517 96.694 130.834 95.6813 129.436 94.3691C128.039 93.0284 126.955 91.4024 126.184 89.4911C125.414 87.5513 125.029 85.3691 125.029 82.9444ZM130.677 82.9871C130.677 84.442 130.891 85.8112 131.319 87.0949C131.776 88.3786 132.446 89.4911 133.33 90.4325C134.215 91.3738 135.299 92.1298 136.582 92.7003C137.894 93.2423 139.406 93.5133 141.118 93.5133C142.715 93.5133 144.142 93.2566 145.397 92.7431C146.68 92.2296 147.764 91.5165 148.649 90.6036C149.562 89.6908 150.26 88.5925 150.745 87.3089C151.23 85.9967 151.473 84.5561 151.473 82.9871C151.473 81.5323 151.245 80.1631 150.788 78.8794C150.36 77.5957 149.704 76.4832 148.82 75.5418C147.936 74.6005 146.837 73.8588 145.525 73.3168C144.241 72.7463 142.744 72.461 141.032 72.461C139.435 72.461 137.994 72.7177 136.711 73.2312C135.427 73.7447 134.329 74.4721 133.416 75.4135C132.531 76.3263 131.847 77.4246 131.362 78.7082C130.905 79.9919 130.677 81.4182 130.677 82.9871ZM166.794 93.0426H183.054V97.9634H161.445V68.0109H166.794V93.0426ZM194.565 97.9634V94.2835C197.674 91.6306 200.17 89.4198 202.053 87.6512C203.936 85.854 205.376 84.3279 206.375 83.0727C207.402 81.8176 208.072 80.7621 208.386 79.9063C208.728 79.0505 208.899 78.2375 208.899 77.4673C208.899 75.984 208.443 74.8429 207.53 74.0442C206.617 73.2455 205.348 72.8461 203.722 72.8461C202.01 72.8176 200.456 73.1028 199.058 73.7019C197.689 74.3009 196.505 75.171 195.506 76.312V70.6211C195.877 70.2502 196.348 69.8936 196.918 69.5513C197.517 69.1805 198.202 68.8524 198.972 68.5672C199.742 68.2819 200.584 68.0537 201.497 67.8826C202.438 67.7114 203.437 67.6258 204.492 67.6258C207.658 67.6543 210.055 68.4531 211.681 70.022C213.335 71.591 214.162 73.7019 214.162 76.3548C214.162 77.5814 213.977 78.7653 213.606 79.9063C213.264 81.0474 212.693 82.2169 211.895 83.415C211.096 84.6131 210.04 85.8683 208.728 87.1805C207.444 88.4927 205.861 89.9475 203.979 91.545L202.224 93.0426H214.975V97.9634H194.565ZM224.857 73.9586L218.439 77.938V72.6749L226.141 67.7114H229.863V97.9634H224.857V73.9586Z" fill="white"/>
<path d="M23.8764 113.923C23.4485 113.267 22.8922 112.625 22.2076 111.997C21.5515 111.37 20.7956 110.813 19.9398 110.328C19.1125 109.843 18.1997 109.458 17.2013 109.173C16.2314 108.888 15.1902 108.745 14.0777 108.745C11.9667 108.774 10.4406 109.087 9.49921 109.687C8.58637 110.286 8.12995 111.099 8.12995 112.126C8.12995 112.896 8.37243 113.523 8.85737 114.008C9.37084 114.493 10.0269 114.893 10.8257 115.206C11.6244 115.52 12.5372 115.805 13.5642 116.062C14.5911 116.29 15.6466 116.547 16.7306 116.832C17.8146 117.118 18.87 117.474 19.897 117.902C20.9239 118.301 21.8368 118.829 22.6355 119.485C23.4342 120.141 24.0761 120.969 24.561 121.967C25.0745 122.965 25.3312 124.192 25.3312 125.647C25.3312 126.902 25.103 128.086 24.6466 129.198C24.1902 130.311 23.477 131.281 22.5071 132.108C21.5372 132.907 20.3106 133.549 18.8273 134.034C17.3724 134.49 15.6466 134.718 13.6498 134.718C12.3376 134.718 11.0967 134.604 9.9271 134.376C8.78605 134.148 7.74485 133.862 6.80349 133.52C5.86212 133.149 5.03487 132.75 4.32171 132.322C3.63708 131.866 3.09509 131.409 2.69572 130.953V124.363C3.15214 125.133 3.73693 125.847 4.45008 126.503C5.16323 127.159 5.97623 127.729 6.88907 128.214C7.83043 128.699 8.87163 129.084 10.0127 129.37C11.1537 129.655 12.3803 129.797 13.6926 129.797C15.8035 129.797 17.3582 129.455 18.3566 128.771C19.355 128.086 19.8542 127.13 19.8542 125.904C19.8542 124.848 19.4263 124.064 18.5705 123.55C17.7433 123.008 16.6878 122.566 15.4041 122.224C14.1204 121.881 12.7369 121.539 11.2536 121.197C9.79873 120.855 8.42948 120.355 7.1458 119.699C5.86212 119.043 4.79239 118.145 3.93661 117.004C3.10935 115.834 2.69572 114.251 2.69572 112.254C2.69572 109.572 3.69414 107.504 5.69097 106.049C7.6878 104.566 10.4834 103.824 14.0777 103.824C16.3883 103.853 18.3851 104.152 20.0681 104.723C21.7512 105.265 23.0206 105.864 23.8764 106.52V113.923ZM55.0467 130.953C54.6758 131.409 54.1481 131.866 53.4635 132.322C52.8074 132.75 52.0229 133.149 51.1101 133.52C50.1972 133.862 49.1703 134.148 48.0292 134.376C46.9167 134.604 45.7186 134.718 44.4349 134.718C41.9817 134.718 39.7566 134.362 37.7598 133.649C35.763 132.935 34.0514 131.923 32.6251 130.61C31.2273 129.27 30.1291 127.644 29.3303 125.733C28.5601 123.821 28.175 121.653 28.175 119.229C28.175 116.975 28.5601 114.907 29.3303 113.024C30.1005 111.141 31.1988 109.515 32.6251 108.146C34.0514 106.777 35.763 105.721 37.7598 104.98C39.7852 104.21 42.0387 103.824 44.5205 103.824C46.8882 103.824 48.9135 104.124 50.5966 104.723C52.2796 105.294 53.5633 105.893 54.4476 106.52V113.965C53.9912 113.309 53.4207 112.668 52.736 112.04C52.0799 111.412 51.324 110.856 50.4682 110.371C49.641 109.886 48.7139 109.501 47.6869 109.216C46.6885 108.902 45.633 108.745 44.5205 108.745C42.8945 108.745 41.4254 109.002 40.1132 109.515C38.801 110.029 37.6885 110.742 36.7757 111.655C35.8628 112.568 35.1639 113.68 34.679 114.992C34.194 116.276 33.9516 117.702 33.9516 119.271C33.9516 120.726 34.1655 122.095 34.5934 123.379C35.0498 124.634 35.7059 125.733 36.5617 126.674C37.446 127.615 38.5443 128.371 39.8565 128.942C41.1687 129.484 42.6806 129.769 44.3921 129.797C45.7044 129.797 46.9024 129.655 47.9864 129.37C49.099 129.084 50.0974 128.699 50.9817 128.214C51.8945 127.729 52.6933 127.159 53.3779 126.503C54.0625 125.847 54.6188 125.133 55.0467 124.363V130.953ZM81.0211 121.282H64.6328V134.248H59.2841V104.295H64.6328V116.362H81.0211V104.295H86.3697V134.248H81.0211V121.282ZM90.7526 119.229C90.7526 116.975 91.1234 114.907 91.8651 113.024C92.6353 111.141 93.7193 109.515 95.1171 108.146C96.5149 106.777 98.1979 105.721 100.166 104.98C102.135 104.21 104.345 103.824 106.799 103.824C109.195 103.824 111.377 104.181 113.345 104.894C115.342 105.607 117.039 106.634 118.437 107.975C119.835 109.287 120.919 110.899 121.689 112.81C122.459 114.721 122.845 116.889 122.845 119.314C122.845 121.568 122.459 123.636 121.689 125.519C120.948 127.401 119.878 129.027 118.48 130.397C117.082 131.766 115.385 132.836 113.388 133.606C111.42 134.347 109.223 134.718 106.799 134.718C104.402 134.718 102.206 134.376 100.209 133.691C98.2407 132.978 96.5577 131.965 95.1599 130.653C93.7621 129.313 92.6781 127.687 91.9079 125.775C91.1377 123.836 90.7526 121.653 90.7526 119.229ZM96.4008 119.271C96.4008 120.726 96.6147 122.095 97.0426 123.379C97.499 124.663 98.1694 125.775 99.0537 126.717C99.938 127.658 101.022 128.414 102.306 128.984C103.618 129.526 105.13 129.797 106.841 129.797C108.439 129.797 109.865 129.541 111.12 129.027C112.404 128.514 113.488 127.801 114.372 126.888C115.285 125.975 115.984 124.877 116.469 123.593C116.954 122.281 117.196 120.84 117.196 119.271C117.196 117.816 116.968 116.447 116.512 115.164C116.084 113.88 115.428 112.767 114.543 111.826C113.659 110.885 112.561 110.143 111.249 109.601C109.965 109.03 108.467 108.745 106.756 108.745C105.158 108.745 103.718 109.002 102.434 109.515C101.15 110.029 100.052 110.756 99.1393 111.698C98.255 112.61 97.5703 113.709 97.0854 114.992C96.629 116.276 96.4008 117.702 96.4008 119.271ZM125.029 119.229C125.029 116.975 125.4 114.907 126.142 113.024C126.912 111.141 127.996 109.515 129.394 108.146C130.791 106.777 132.474 105.721 134.443 104.98C136.411 104.21 138.622 103.824 141.075 103.824C143.471 103.824 145.654 104.181 147.622 104.894C149.619 105.607 151.316 106.634 152.714 107.975C154.112 109.287 155.196 110.899 155.966 112.81C156.736 114.721 157.121 116.889 157.121 119.314C157.121 121.568 156.736 123.636 155.966 125.519C155.224 127.401 154.154 129.027 152.757 130.397C151.359 131.766 149.661 132.836 147.665 133.606C145.696 134.347 143.5 134.718 141.075 134.718C138.679 134.718 136.482 134.376 134.486 133.691C132.517 132.978 130.834 131.965 129.436 130.653C128.039 129.313 126.955 127.687 126.184 125.775C125.414 123.836 125.029 121.653 125.029 119.229ZM130.677 119.271C130.677 120.726 130.891 122.095 131.319 123.379C131.776 124.663 132.446 125.775 133.33 126.717C134.215 127.658 135.299 128.414 136.582 128.984C137.894 129.526 139.406 129.797 141.118 129.797C142.715 129.797 144.142 129.541 145.397 129.027C146.68 128.514 147.764 127.801 148.649 126.888C149.562 125.975 150.26 124.877 150.745 123.593C151.23 122.281 151.473 120.84 151.473 119.271C151.473 117.816 151.245 116.447 150.788 115.164C150.36 113.88 149.704 112.767 148.82 111.826C147.936 110.885 146.837 110.143 145.525 109.601C144.241 109.03 142.744 108.745 141.032 108.745C139.435 108.745 137.994 109.002 136.711 109.515C135.427 110.029 134.329 110.756 133.416 111.698C132.531 112.61 131.847 113.709 131.362 114.992C130.905 116.276 130.677 117.702 130.677 119.271ZM166.794 129.327H183.054V134.248H161.445V104.295H166.794V129.327ZM194.565 134.248V130.568C197.674 127.915 200.17 125.704 202.053 123.935C203.936 122.138 205.376 120.612 206.375 119.357C207.402 118.102 208.072 117.046 208.386 116.191C208.728 115.335 208.899 114.522 208.899 113.752C208.899 112.268 208.443 111.127 207.53 110.328C206.617 109.53 205.348 109.13 203.722 109.13C202.01 109.102 200.456 109.387 199.058 109.986C197.689 110.585 196.505 111.455 195.506 112.596V106.905C195.877 106.534 196.348 106.178 196.918 105.836C197.517 105.465 198.202 105.137 198.972 104.851C199.742 104.566 200.584 104.338 201.497 104.167C202.438 103.996 203.437 103.91 204.492 103.91C207.658 103.939 210.055 104.737 211.681 106.306C213.335 107.875 214.162 109.986 214.162 112.639C214.162 113.866 213.977 115.049 213.606 116.191C213.264 117.332 212.693 118.501 211.895 119.699C211.096 120.897 210.04 122.152 208.728 123.465C207.444 124.777 205.861 126.232 203.979 127.829L202.224 129.327H214.975V134.248H194.565ZM224.857 110.243L218.439 114.222V108.959L226.141 103.996H229.863V134.248H224.857V110.243Z" fill="white"/>
<path d="M23.8764 150.207C23.4485 149.551 22.8922 148.909 22.2076 148.281C21.5515 147.654 20.7956 147.097 19.9398 146.612C19.1125 146.127 18.1997 145.742 17.2013 145.457C16.2314 145.172 15.1902 145.029 14.0777 145.029C11.9667 145.058 10.4406 145.371 9.49921 145.97C8.58637 146.57 8.12995 147.383 8.12995 148.409C8.12995 149.18 8.37243 149.807 8.85737 150.292C9.37084 150.777 10.0269 151.177 10.8257 151.49C11.6244 151.804 12.5372 152.089 13.5642 152.346C14.5911 152.574 15.6466 152.831 16.7306 153.116C17.8146 153.402 18.87 153.758 19.897 154.186C20.9239 154.585 21.8368 155.113 22.6355 155.769C23.4342 156.425 24.0761 157.253 24.561 158.251C25.0745 159.249 25.3312 160.476 25.3312 161.931C25.3312 163.186 25.103 164.37 24.6466 165.482C24.1902 166.595 23.477 167.565 22.5071 168.392C21.5372 169.191 20.3106 169.833 18.8273 170.318C17.3724 170.774 15.6466 171.002 13.6498 171.002C12.3376 171.002 11.0967 170.888 9.9271 170.66C8.78605 170.432 7.74485 170.146 6.80349 169.804C5.86212 169.433 5.03487 169.034 4.32171 168.606C3.63708 168.15 3.09509 167.693 2.69572 167.237V160.647C3.15214 161.417 3.73693 162.131 4.45008 162.787C5.16323 163.443 5.97623 164.013 6.88907 164.498C7.83043 164.983 8.87163 165.368 10.0127 165.654C11.1537 165.939 12.3803 166.081 13.6926 166.081C15.8035 166.081 17.3582 165.739 18.3566 165.054C19.355 164.37 19.8542 163.414 19.8542 162.188C19.8542 161.132 19.4263 160.348 18.5705 159.834C17.7433 159.292 16.6878 158.85 15.4041 158.508C14.1204 158.165 12.7369 157.823 11.2536 157.481C9.79873 157.138 8.42948 156.639 7.1458 155.983C5.86212 155.327 4.79239 154.428 3.93661 153.287C3.10935 152.118 2.69572 150.535 2.69572 148.538C2.69572 145.856 3.69414 143.788 5.69097 142.333C7.6878 140.85 10.4834 140.108 14.0777 140.108C16.3883 140.137 18.3851 140.436 20.0681 141.007C21.7512 141.549 23.0206 142.148 23.8764 142.804V150.207ZM55.0467 167.237C54.6758 167.693 54.1481 168.15 53.4635 168.606C52.8074 169.034 52.0229 169.433 51.1101 169.804C50.1972 170.146 49.1703 170.432 48.0292 170.66C46.9167 170.888 45.7186 171.002 44.4349 171.002C41.9817 171.002 39.7566 170.646 37.7598 169.932C35.763 169.219 34.0514 168.207 32.6251 166.894C31.2273 165.554 30.1291 163.928 29.3303 162.016C28.5601 160.105 28.175 157.937 28.175 155.512C28.175 153.259 28.5601 151.191 29.3303 149.308C30.1005 147.425 31.1988 145.799 32.6251 144.43C34.0514 143.061 35.763 142.005 37.7598 141.264C39.7852 140.493 42.0387 140.108 44.5205 140.108C46.8882 140.108 48.9135 140.408 50.5966 141.007C52.2796 141.577 53.5633 142.177 54.4476 142.804V150.249C53.9912 149.593 53.4207 148.951 52.736 148.324C52.0799 147.696 51.324 147.14 50.4682 146.655C49.641 146.17 48.7139 145.785 47.6869 145.5C46.6885 145.186 45.633 145.029 44.5205 145.029C42.8945 145.029 41.4254 145.286 40.1132 145.799C38.801 146.313 37.6885 147.026 36.7757 147.939C35.8628 148.852 35.1639 149.964 34.679 151.276C34.194 152.56 33.9516 153.986 33.9516 155.555C33.9516 157.01 34.1655 158.379 34.5934 159.663C35.0498 160.918 35.7059 162.016 36.5617 162.958C37.446 163.899 38.5443 164.655 39.8565 165.226C41.1687 165.768 42.6806 166.053 44.3921 166.081C45.7044 166.081 46.9024 165.939 47.9864 165.654C49.099 165.368 50.0974 164.983 50.9817 164.498C51.8945 164.013 52.6933 163.443 53.3779 162.787C54.0625 162.131 54.6188 161.417 55.0467 160.647V167.237ZM81.0211 157.566H64.6328V170.531H59.2841V140.579H64.6328V152.646H81.0211V140.579H86.3697V170.531H81.0211V157.566ZM90.7526 155.512C90.7526 153.259 91.1234 151.191 91.8651 149.308C92.6353 147.425 93.7193 145.799 95.1171 144.43C96.5149 143.061 98.1979 142.005 100.166 141.264C102.135 140.493 104.345 140.108 106.799 140.108C109.195 140.108 111.377 140.465 113.345 141.178C115.342 141.891 117.039 142.918 118.437 144.259C119.835 145.571 120.919 147.183 121.689 149.094C122.459 151.005 122.845 153.173 122.845 155.598C122.845 157.852 122.459 159.92 121.689 161.802C120.948 163.685 119.878 165.311 118.48 166.68C117.082 168.05 115.385 169.119 113.388 169.89C111.42 170.631 109.223 171.002 106.799 171.002C104.402 171.002 102.206 170.66 100.209 169.975C98.2407 169.262 96.5577 168.249 95.1599 166.937C93.7621 165.596 92.6781 163.97 91.9079 162.059C91.1377 160.119 90.7526 157.937 90.7526 155.512ZM96.4008 155.555C96.4008 157.01 96.6147 158.379 97.0426 159.663C97.499 160.947 98.1694 162.059 99.0537 163.001C99.938 163.942 101.022 164.698 102.306 165.268C103.618 165.81 105.13 166.081 106.841 166.081C108.439 166.081 109.865 165.825 111.12 165.311C112.404 164.798 113.488 164.085 114.372 163.172C115.285 162.259 115.984 161.161 116.469 159.877C116.954 158.565 117.196 157.124 117.196 155.555C117.196 154.1 116.968 152.731 116.512 151.448C116.084 150.164 115.428 149.051 114.543 148.11C113.659 147.169 112.561 146.427 111.249 145.885C109.965 145.314 108.467 145.029 106.756 145.029C105.158 145.029 103.718 145.286 102.434 145.799C101.15 146.313 100.052 147.04 99.1393 147.982C98.255 148.894 97.5703 149.993 97.0854 151.276C96.629 152.56 96.4008 153.986 96.4008 155.555ZM125.029 155.512C125.029 153.259 125.4 151.191 126.142 149.308C126.912 147.425 127.996 145.799 129.394 144.43C130.791 143.061 132.474 142.005 134.443 141.264C136.411 140.493 138.622 140.108 141.075 140.108C143.471 140.108 145.654 140.465 147.622 141.178C149.619 141.891 151.316 142.918 152.714 144.259C154.112 145.571 155.196 147.183 155.966 149.094C156.736 151.005 157.121 153.173 157.121 155.598C157.121 157.852 156.736 159.92 155.966 161.802C155.224 163.685 154.154 165.311 152.757 166.68C151.359 168.05 149.661 169.119 147.665 169.89C145.696 170.631 143.5 171.002 141.075 171.002C138.679 171.002 136.482 170.66 134.486 169.975C132.517 169.262 130.834 168.249 129.436 166.937C128.039 165.596 126.955 163.97 126.184 162.059C125.414 160.119 125.029 157.937 125.029 155.512ZM130.677 155.555C130.677 157.01 130.891 158.379 131.319 159.663C131.776 160.947 132.446 162.059 133.33 163.001C134.215 163.942 135.299 164.698 136.582 165.268C137.894 165.81 139.406 166.081 141.118 166.081C142.715 166.081 144.142 165.825 145.397 165.311C146.68 164.798 147.764 164.085 148.649 163.172C149.562 162.259 150.26 161.161 150.745 159.877C151.23 158.565 151.473 157.124 151.473 155.555C151.473 154.1 151.245 152.731 150.788 151.448C150.36 150.164 149.704 149.051 148.82 148.11C147.936 147.169 146.837 146.427 145.525 145.885C144.241 145.314 142.744 145.029 141.032 145.029C139.435 145.029 137.994 145.286 136.711 145.799C135.427 146.313 134.329 147.04 133.416 147.982C132.531 148.894 131.847 149.993 131.362 151.276C130.905 152.56 130.677 153.986 130.677 155.555ZM166.794 165.611H183.054V170.531H161.445V140.579H166.794V165.611ZM194.565 170.531V166.852C197.674 164.199 200.17 161.988 202.053 160.219C203.936 158.422 205.376 156.896 206.375 155.641C207.402 154.386 208.072 153.33 208.386 152.474C208.728 151.619 208.899 150.806 208.899 150.035C208.899 148.552 208.443 147.411 207.53 146.612C206.617 145.814 205.348 145.414 203.722 145.414C202.01 145.386 200.456 145.671 199.058 146.27C197.689 146.869 196.505 147.739 195.506 148.88V143.189C195.877 142.818 196.348 142.462 196.918 142.119C197.517 141.749 198.202 141.421 198.972 141.135C199.742 140.85 200.584 140.622 201.497 140.451C202.438 140.28 203.437 140.194 204.492 140.194C207.658 140.222 210.055 141.021 211.681 142.59C213.335 144.159 214.162 146.27 214.162 148.923C214.162 150.15 213.977 151.333 213.606 152.474C213.264 153.615 212.693 154.785 211.895 155.983C211.096 157.181 210.04 158.436 208.728 159.749C207.444 161.061 205.861 162.516 203.979 164.113L202.224 165.611H214.975V170.531H194.565ZM224.857 146.527L218.439 150.506V145.243L226.141 140.28H229.863V170.531H224.857V146.527Z" fill="white"/>
<path d="M23.8764 186.491C23.4485 185.835 22.8922 185.193 22.2076 184.565C21.5515 183.938 20.7956 183.381 19.9398 182.896C19.1125 182.411 18.1997 182.026 17.2013 181.741C16.2314 181.456 15.1902 181.313 14.0777 181.313C11.9667 181.342 10.4406 181.655 9.49921 182.255C8.58637 182.854 8.12995 183.667 8.12995 184.694C8.12995 185.464 8.37243 186.091 8.85737 186.576C9.37084 187.061 10.0269 187.461 10.8257 187.774C11.6244 188.088 12.5372 188.373 13.5642 188.63C14.5911 188.858 15.6466 189.115 16.7306 189.4C17.8146 189.686 18.87 190.042 19.897 190.47C20.9239 190.869 21.8368 191.397 22.6355 192.053C23.4342 192.709 24.0761 193.537 24.561 194.535C25.0745 195.533 25.3312 196.76 25.3312 198.215C25.3312 199.47 25.103 200.654 24.6466 201.766C24.1902 202.879 23.477 203.849 22.5071 204.676C21.5372 205.475 20.3106 206.117 18.8273 206.602C17.3724 207.058 15.6466 207.286 13.6498 207.286C12.3376 207.286 11.0967 207.172 9.9271 206.944C8.78605 206.716 7.74485 206.43 6.80349 206.088C5.86212 205.717 5.03487 205.318 4.32171 204.89C3.63708 204.434 3.09509 203.977 2.69572 203.521V196.931C3.15214 197.701 3.73693 198.415 4.45008 199.071C5.16323 199.727 5.97623 200.297 6.88907 200.782C7.83043 201.267 8.87163 201.652 10.0127 201.938C11.1537 202.223 12.3803 202.365 13.6926 202.365C15.8035 202.365 17.3582 202.023 18.3566 201.339C19.355 200.654 19.8542 199.698 19.8542 198.472C19.8542 197.416 19.4263 196.632 18.5705 196.118C17.7433 195.576 16.6878 195.134 15.4041 194.792C14.1204 194.449 12.7369 194.107 11.2536 193.765C9.79873 193.423 8.42948 192.923 7.1458 192.267C5.86212 191.611 4.79239 190.713 3.93661 189.571C3.10935 188.402 2.69572 186.819 2.69572 184.822C2.69572 182.14 3.69414 180.072 5.69097 178.617C7.6878 177.134 10.4834 176.392 14.0777 176.392C16.3883 176.421 18.3851 176.72 20.0681 177.291C21.7512 177.833 23.0206 178.432 23.8764 179.088V186.491ZM55.0467 203.521C54.6758 203.977 54.1481 204.434 53.4635 204.89C52.8074 205.318 52.0229 205.717 51.1101 206.088C50.1972 206.43 49.1703 206.716 48.0292 206.944C46.9167 207.172 45.7186 207.286 44.4349 207.286C41.9817 207.286 39.7566 206.93 37.7598 206.217C35.763 205.503 34.0514 204.491 32.6251 203.178C31.2273 201.838 30.1291 200.212 29.3303 198.3C28.5601 196.389 28.175 194.221 28.175 191.797C28.175 189.543 28.5601 187.475 29.3303 185.592C30.1005 183.709 31.1988 182.083 32.6251 180.714C34.0514 179.345 35.763 178.289 37.7598 177.548C39.7852 176.778 42.0387 176.392 44.5205 176.392C46.8882 176.392 48.9135 176.692 50.5966 177.291C52.2796 177.862 53.5633 178.461 54.4476 179.088V186.533C53.9912 185.877 53.4207 185.236 52.736 184.608C52.0799 183.98 51.324 183.424 50.4682 182.939C49.641 182.454 48.7139 182.069 47.6869 181.784C46.6885 181.47 45.633 181.313 44.5205 181.313C42.8945 181.313 41.4254 181.57 40.1132 182.083C38.801 182.597 37.6885 183.31 36.7757 184.223C35.8628 185.136 35.1639 186.248 34.679 187.56C34.194 188.844 33.9516 190.27 33.9516 191.839C33.9516 193.294 34.1655 194.663 34.5934 195.947C35.0498 197.202 35.7059 198.3 36.5617 199.242C37.446 200.183 38.5443 200.939 39.8565 201.51C41.1687 202.052 42.6806 202.337 44.3921 202.365C45.7044 202.365 46.9024 202.223 47.9864 201.938C49.099 201.652 50.0974 201.267 50.9817 200.782C51.8945 200.297 52.6933 199.727 53.3779 199.071C54.0625 198.415 54.6188 197.701 55.0467 196.931V203.521ZM81.0211 193.85H64.6328V206.816H59.2841V176.863H64.6328V188.93H81.0211V176.863H86.3697V206.816H81.0211V193.85ZM90.7526 191.797C90.7526 189.543 91.1234 187.475 91.8651 185.592C92.6353 183.709 93.7193 182.083 95.1171 180.714C96.5149 179.345 98.1979 178.289 100.166 177.548C102.135 176.778 104.345 176.392 106.799 176.392C109.195 176.392 111.377 176.749 113.345 177.462C115.342 178.175 117.039 179.202 118.437 180.543C119.835 181.855 120.919 183.467 121.689 185.378C122.459 187.289 122.845 189.457 122.845 191.882C122.845 194.136 122.459 196.204 121.689 198.087C120.948 199.969 119.878 201.595 118.48 202.965C117.082 204.334 115.385 205.404 113.388 206.174C111.42 206.915 109.223 207.286 106.799 207.286C104.402 207.286 102.206 206.944 100.209 206.259C98.2407 205.546 96.5577 204.533 95.1599 203.221C93.7621 201.881 92.6781 200.255 91.9079 198.343C91.1377 196.404 90.7526 194.221 90.7526 191.797ZM96.4008 191.839C96.4008 193.294 96.6147 194.663 97.0426 195.947C97.499 197.231 98.1694 198.343 99.0537 199.285C99.938 200.226 101.022 200.982 102.306 201.552C103.618 202.094 105.13 202.365 106.841 202.365C108.439 202.365 109.865 202.109 111.12 201.595C112.404 201.082 113.488 200.369 114.372 199.456C115.285 198.543 115.984 197.445 116.469 196.161C116.954 194.849 117.196 193.408 117.196 191.839C117.196 190.384 116.968 189.015 116.512 187.732C116.084 186.448 115.428 185.335 114.543 184.394C113.659 183.453 112.561 182.711 111.249 182.169C109.965 181.598 108.467 181.313 106.756 181.313C105.158 181.313 103.718 181.57 102.434 182.083C101.15 182.597 100.052 183.324 99.1393 184.266C98.255 185.178 97.5703 186.277 97.0854 187.56C96.629 188.844 96.4008 190.27 96.4008 191.839ZM125.029 191.797C125.029 189.543 125.4 187.475 126.142 185.592C126.912 183.709 127.996 182.083 129.394 180.714C130.791 179.345 132.474 178.289 134.443 177.548C136.411 176.778 138.622 176.392 141.075 176.392C143.471 176.392 145.654 176.749 147.622 177.462C149.619 178.175 151.316 179.202 152.714 180.543C154.112 181.855 155.196 183.467 155.966 185.378C156.736 187.289 157.121 189.457 157.121 191.882C157.121 194.136 156.736 196.204 155.966 198.087C155.224 199.969 154.154 201.595 152.757 202.965C151.359 204.334 149.661 205.404 147.665 206.174C145.696 206.915 143.5 207.286 141.075 207.286C138.679 207.286 136.482 206.944 134.486 206.259C132.517 205.546 130.834 204.533 129.436 203.221C128.039 201.881 126.955 200.255 126.184 198.343C125.414 196.404 125.029 194.221 125.029 191.797ZM130.677 191.839C130.677 193.294 130.891 194.663 131.319 195.947C131.776 197.231 132.446 198.343 133.33 199.285C134.215 200.226 135.299 200.982 136.582 201.552C137.894 202.094 139.406 202.365 141.118 202.365C142.715 202.365 144.142 202.109 145.397 201.595C146.68 201.082 147.764 200.369 148.649 199.456C149.562 198.543 150.26 197.445 150.745 196.161C151.23 194.849 151.473 193.408 151.473 191.839C151.473 190.384 151.245 189.015 150.788 187.732C150.36 186.448 149.704 185.335 148.82 184.394C147.936 183.453 146.837 182.711 145.525 182.169C144.241 181.598 142.744 181.313 141.032 181.313C139.435 181.313 137.994 181.57 136.711 182.083C135.427 182.597 134.329 183.324 133.416 184.266C132.531 185.178 131.847 186.277 131.362 187.56C130.905 188.844 130.677 190.27 130.677 191.839ZM166.794 201.895H183.054V206.816H161.445V176.863H166.794V201.895ZM194.565 206.816V203.136C197.674 200.483 200.17 198.272 202.053 196.503C203.936 194.706 205.376 193.18 206.375 191.925C207.402 190.67 208.072 189.614 208.386 188.758C208.728 187.903 208.899 187.09 208.899 186.32C208.899 184.836 208.443 183.695 207.53 182.896C206.617 182.098 205.348 181.698 203.722 181.698C202.01 181.67 200.456 181.955 199.058 182.554C197.689 183.153 196.505 184.023 195.506 185.164V179.473C195.877 179.102 196.348 178.746 196.918 178.404C197.517 178.033 198.202 177.705 198.972 177.419C199.742 177.134 200.584 176.906 201.497 176.735C202.438 176.564 203.437 176.478 204.492 176.478C207.658 176.507 210.055 177.305 211.681 178.874C213.335 180.443 214.162 182.554 214.162 185.207C214.162 186.434 213.977 187.617 213.606 188.758C213.264 189.9 212.693 191.069 211.895 192.267C211.096 193.465 210.04 194.72 208.728 196.033C207.444 197.345 205.861 198.8 203.979 200.397L202.224 201.895H214.975V206.816H194.565ZM224.857 182.811L218.439 186.79V181.527L226.141 176.564H229.863V206.816H224.857V182.811Z" fill="white"/>
<path d="M23.8764 222.775C23.4485 222.119 22.8922 221.477 22.2076 220.849C21.5515 220.222 20.7956 219.665 19.9398 219.18C19.1125 218.695 18.1997 218.31 17.2013 218.025C16.2314 217.74 15.1902 217.597 14.0777 217.597C11.9667 217.626 10.4406 217.94 9.49921 218.539C8.58637 219.138 8.12995 219.951 8.12995 220.978C8.12995 221.748 8.37243 222.375 8.85737 222.86C9.37084 223.345 10.0269 223.745 10.8257 224.058C11.6244 224.372 12.5372 224.657 13.5642 224.914C14.5911 225.142 15.6466 225.399 16.7306 225.684C17.8146 225.97 18.87 226.326 19.897 226.754C20.9239 227.153 21.8368 227.681 22.6355 228.337C23.4342 228.993 24.0761 229.821 24.561 230.819C25.0745 231.818 25.3312 233.044 25.3312 234.499C25.3312 235.754 25.103 236.938 24.6466 238.05C24.1902 239.163 23.477 240.133 22.5071 240.96C21.5372 241.759 20.3106 242.401 18.8273 242.886C17.3724 243.342 15.6466 243.57 13.6498 243.57C12.3376 243.57 11.0967 243.456 9.9271 243.228C8.78605 243 7.74485 242.715 6.80349 242.372C5.86212 242.001 5.03487 241.602 4.32171 241.174C3.63708 240.718 3.09509 240.261 2.69572 239.805V233.215C3.15214 233.986 3.73693 234.699 4.45008 235.355C5.16323 236.011 5.97623 236.581 6.88907 237.066C7.83043 237.551 8.87163 237.936 10.0127 238.222C11.1537 238.507 12.3803 238.65 13.6926 238.65C15.8035 238.65 17.3582 238.307 18.3566 237.623C19.355 236.938 19.8542 235.982 19.8542 234.756C19.8542 233.7 19.4263 232.916 18.5705 232.402C17.7433 231.86 16.6878 231.418 15.4041 231.076C14.1204 230.734 12.7369 230.391 11.2536 230.049C9.79873 229.707 8.42948 229.207 7.1458 228.551C5.86212 227.895 4.79239 226.997 3.93661 225.856C3.10935 224.686 2.69572 223.103 2.69572 221.106C2.69572 218.424 3.69414 216.356 5.69097 214.902C7.6878 213.418 10.4834 212.676 14.0777 212.676C16.3883 212.705 18.3851 213.005 20.0681 213.575C21.7512 214.117 23.0206 214.716 23.8764 215.372V222.775ZM55.0467 239.805C54.6758 240.261 54.1481 240.718 53.4635 241.174C52.8074 241.602 52.0229 242.001 51.1101 242.372C50.1972 242.715 49.1703 243 48.0292 243.228C46.9167 243.456 45.7186 243.57 44.4349 243.57C41.9817 243.57 39.7566 243.214 37.7598 242.501C35.763 241.787 34.0514 240.775 32.6251 239.463C31.2273 238.122 30.1291 236.496 29.3303 234.585C28.5601 232.673 28.175 230.505 28.175 228.081C28.175 225.827 28.5601 223.759 29.3303 221.876C30.1005 219.993 31.1988 218.367 32.6251 216.998C34.0514 215.629 35.763 214.573 37.7598 213.832C39.7852 213.062 42.0387 212.676 44.5205 212.676C46.8882 212.676 48.9135 212.976 50.5966 213.575C52.2796 214.146 53.5633 214.745 54.4476 215.372V222.818C53.9912 222.161 53.4207 221.52 52.736 220.892C52.0799 220.264 51.324 219.708 50.4682 219.223C49.641 218.738 48.7139 218.353 47.6869 218.068C46.6885 217.754 45.633 217.597 44.5205 217.597C42.8945 217.597 41.4254 217.854 40.1132 218.367C38.801 218.881 37.6885 219.594 36.7757 220.507C35.8628 221.42 35.1639 222.532 34.679 223.844C34.194 225.128 33.9516 226.554 33.9516 228.123C33.9516 229.578 34.1655 230.947 34.5934 232.231C35.0498 233.486 35.7059 234.585 36.5617 235.526C37.446 236.467 38.5443 237.223 39.8565 237.794C41.1687 238.336 42.6806 238.621 44.3921 238.65C45.7044 238.65 46.9024 238.507 47.9864 238.222C49.099 237.936 50.0974 237.551 50.9817 237.066C51.8945 236.581 52.6933 236.011 53.3779 235.355C54.0625 234.699 54.6188 233.986 55.0467 233.215V239.805ZM81.0211 230.134H64.6328V243.1H59.2841V213.147H64.6328V225.214H81.0211V213.147H86.3697V243.1H81.0211V230.134ZM90.7526 228.081C90.7526 225.827 91.1234 223.759 91.8651 221.876C92.6353 219.993 93.7193 218.367 95.1171 216.998C96.5149 215.629 98.1979 214.573 100.166 213.832C102.135 213.062 104.345 212.676 106.799 212.676C109.195 212.676 111.377 213.033 113.345 213.746C115.342 214.459 117.039 215.486 118.437 216.827C119.835 218.139 120.919 219.751 121.689 221.662C122.459 223.573 122.845 225.741 122.845 228.166C122.845 230.42 122.459 232.488 121.689 234.371C120.948 236.253 119.878 237.879 118.48 239.249C117.082 240.618 115.385 241.688 113.388 242.458C111.42 243.199 109.223 243.57 106.799 243.57C104.402 243.57 102.206 243.228 100.209 242.543C98.2407 241.83 96.5577 240.818 95.1599 239.505C93.7621 238.165 92.6781 236.539 91.9079 234.627C91.1377 232.688 90.7526 230.505 90.7526 228.081ZM96.4008 228.123C96.4008 229.578 96.6147 230.947 97.0426 232.231C97.499 233.515 98.1694 234.627 99.0537 235.569C99.938 236.51 101.022 237.266 102.306 237.837C103.618 238.379 105.13 238.65 106.841 238.65C108.439 238.65 109.865 238.393 111.12 237.879C112.404 237.366 113.488 236.653 114.372 235.74C115.285 234.827 115.984 233.729 116.469 232.445C116.954 231.133 117.196 229.692 117.196 228.123C117.196 226.669 116.968 225.299 116.512 224.016C116.084 222.732 115.428 221.619 114.543 220.678C113.659 219.737 112.561 218.995 111.249 218.453C109.965 217.882 108.467 217.597 106.756 217.597C105.158 217.597 103.718 217.854 102.434 218.367C101.15 218.881 100.052 219.608 99.1393 220.55C98.255 221.463 97.5703 222.561 97.0854 223.844C96.629 225.128 96.4008 226.554 96.4008 228.123ZM125.029 228.081C125.029 225.827 125.4 223.759 126.142 221.876C126.912 219.993 127.996 218.367 129.394 216.998C130.791 215.629 132.474 214.573 134.443 213.832C136.411 213.062 138.622 212.676 141.075 212.676C143.471 212.676 145.654 213.033 147.622 213.746C149.619 214.459 151.316 215.486 152.714 216.827C154.112 218.139 155.196 219.751 155.966 221.662C156.736 223.573 157.121 225.741 157.121 228.166C157.121 230.42 156.736 232.488 155.966 234.371C155.224 236.253 154.154 237.879 152.757 239.249C151.359 240.618 149.661 241.688 147.665 242.458C145.696 243.199 143.5 243.57 141.075 243.57C138.679 243.57 136.482 243.228 134.486 242.543C132.517 241.83 130.834 240.818 129.436 239.505C128.039 238.165 126.955 236.539 126.184 234.627C125.414 232.688 125.029 230.505 125.029 228.081ZM130.677 228.123C130.677 229.578 130.891 230.947 131.319 232.231C131.776 233.515 132.446 234.627 133.33 235.569C134.215 236.51 135.299 237.266 136.582 237.837C137.894 238.379 139.406 238.65 141.118 238.65C142.715 238.65 144.142 238.393 145.397 237.879C146.68 237.366 147.764 236.653 148.649 235.74C149.562 234.827 150.26 233.729 150.745 232.445C151.23 231.133 151.473 229.692 151.473 228.123C151.473 226.669 151.245 225.299 150.788 224.016C150.36 222.732 149.704 221.619 148.82 220.678C147.936 219.737 146.837 218.995 145.525 218.453C144.241 217.882 142.744 217.597 141.032 217.597C139.435 217.597 137.994 217.854 136.711 218.367C135.427 218.881 134.329 219.608 133.416 220.55C132.531 221.463 131.847 222.561 131.362 223.844C130.905 225.128 130.677 226.554 130.677 228.123ZM166.794 238.179H183.054V243.1H161.445V213.147H166.794V238.179ZM194.565 243.1V239.42C197.674 236.767 200.17 234.556 202.053 232.787C203.936 230.99 205.376 229.464 206.375 228.209C207.402 226.954 208.072 225.898 208.386 225.043C208.728 224.187 208.899 223.374 208.899 222.604C208.899 221.12 208.443 219.979 207.53 219.18C206.617 218.382 205.348 217.982 203.722 217.982C202.01 217.954 200.456 218.239 199.058 218.838C197.689 219.437 196.505 220.307 195.506 221.448V215.757C195.877 215.386 196.348 215.03 196.918 214.688C197.517 214.317 198.202 213.989 198.972 213.703C199.742 213.418 200.584 213.19 201.497 213.019C202.438 212.848 203.437 212.762 204.492 212.762C207.658 212.791 210.055 213.589 211.681 215.158C213.335 216.727 214.162 218.838 214.162 221.491C214.162 222.718 213.977 223.902 213.606 225.043C213.264 226.184 212.693 227.353 211.895 228.551C211.096 229.749 210.04 231.005 208.728 232.317C207.444 233.629 205.861 235.084 203.979 236.681L202.224 238.179H214.975V243.1H194.565ZM224.857 219.095L218.439 223.074V217.811L226.141 212.848H229.863V243.1H224.857V219.095Z" fill="white"/>
<path d="M23.8764 259.059C23.4485 258.403 22.8922 257.761 22.2076 257.133C21.5515 256.506 20.7956 255.949 19.9398 255.464C19.1125 254.98 18.1997 254.594 17.2013 254.309C16.2314 254.024 15.1902 253.881 14.0777 253.881C11.9667 253.91 10.4406 254.224 9.49921 254.823C8.58637 255.422 8.12995 256.235 8.12995 257.262C8.12995 258.032 8.37243 258.659 8.85737 259.144C9.37084 259.629 10.0269 260.029 10.8257 260.342C11.6244 260.656 12.5372 260.942 13.5642 261.198C14.5911 261.426 15.6466 261.683 16.7306 261.968C17.8146 262.254 18.87 262.61 19.897 263.038C20.9239 263.438 21.8368 263.965 22.6355 264.621C23.4342 265.277 24.0761 266.105 24.561 267.103C25.0745 268.102 25.3312 269.328 25.3312 270.783C25.3312 272.038 25.103 273.222 24.6466 274.335C24.1902 275.447 23.477 276.417 22.5071 277.244C21.5372 278.043 20.3106 278.685 18.8273 279.17C17.3724 279.626 15.6466 279.854 13.6498 279.854C12.3376 279.854 11.0967 279.74 9.9271 279.512C8.78605 279.284 7.74485 278.999 6.80349 278.656C5.86212 278.285 5.03487 277.886 4.32171 277.458C3.63708 277.002 3.09509 276.545 2.69572 276.089V269.499C3.15214 270.27 3.73693 270.983 4.45008 271.639C5.16323 272.295 5.97623 272.865 6.88907 273.35C7.83043 273.835 8.87163 274.22 10.0127 274.506C11.1537 274.791 12.3803 274.934 13.6926 274.934C15.8035 274.934 17.3582 274.591 18.3566 273.907C19.355 273.222 19.8542 272.266 19.8542 271.04C19.8542 269.984 19.4263 269.2 18.5705 268.686C17.7433 268.144 16.6878 267.702 15.4041 267.36C14.1204 267.018 12.7369 266.675 11.2536 266.333C9.79873 265.991 8.42948 265.491 7.1458 264.835C5.86212 264.179 4.79239 263.281 3.93661 262.14C3.10935 260.97 2.69572 259.387 2.69572 257.39C2.69572 254.709 3.69414 252.64 5.69097 251.186C7.6878 249.702 10.4834 248.961 14.0777 248.961C16.3883 248.989 18.3851 249.289 20.0681 249.859C21.7512 250.401 23.0206 251 23.8764 251.656V259.059ZM55.0467 276.089C54.6758 276.545 54.1481 277.002 53.4635 277.458C52.8074 277.886 52.0229 278.285 51.1101 278.656C50.1972 278.999 49.1703 279.284 48.0292 279.512C46.9167 279.74 45.7186 279.854 44.4349 279.854C41.9817 279.854 39.7566 279.498 37.7598 278.785C35.763 278.071 34.0514 277.059 32.6251 275.747C31.2273 274.406 30.1291 272.78 29.3303 270.869C28.5601 268.957 28.175 266.789 28.175 264.365C28.175 262.111 28.5601 260.043 29.3303 258.16C30.1005 256.277 31.1988 254.651 32.6251 253.282C34.0514 251.913 35.763 250.858 37.7598 250.116C39.7852 249.346 42.0387 248.961 44.5205 248.961C46.8882 248.961 48.9135 249.26 50.5966 249.859C52.2796 250.43 53.5633 251.029 54.4476 251.656V259.102C53.9912 258.445 53.4207 257.804 52.736 257.176C52.0799 256.548 51.324 255.992 50.4682 255.507C49.641 255.022 48.7139 254.637 47.6869 254.352C46.6885 254.038 45.633 253.881 44.5205 253.881C42.8945 253.881 41.4254 254.138 40.1132 254.651C38.801 255.165 37.6885 255.878 36.7757 256.791C35.8628 257.704 35.1639 258.816 34.679 260.129C34.194 261.412 33.9516 262.838 33.9516 264.407C33.9516 265.862 34.1655 267.232 34.5934 268.515C35.0498 269.77 35.7059 270.869 36.5617 271.81C37.446 272.751 38.5443 273.507 39.8565 274.078C41.1687 274.62 42.6806 274.905 44.3921 274.934C45.7044 274.934 46.9024 274.791 47.9864 274.506C49.099 274.22 50.0974 273.835 50.9817 273.35C51.8945 272.865 52.6933 272.295 53.3779 271.639C54.0625 270.983 54.6188 270.27 55.0467 269.499V276.089ZM81.0211 266.419H64.6328V279.384H59.2841V249.431H64.6328V261.498H81.0211V249.431H86.3697V279.384H81.0211V266.419ZM90.7526 264.365C90.7526 262.111 91.1234 260.043 91.8651 258.16C92.6353 256.277 93.7193 254.651 95.1171 253.282C96.5149 251.913 98.1979 250.858 100.166 250.116C102.135 249.346 104.345 248.961 106.799 248.961C109.195 248.961 111.377 249.317 113.345 250.03C115.342 250.743 117.039 251.77 118.437 253.111C119.835 254.423 120.919 256.035 121.689 257.946C122.459 259.858 122.845 262.026 122.845 264.45C122.845 266.704 122.459 268.772 121.689 270.655C120.948 272.537 119.878 274.163 118.48 275.533C117.082 276.902 115.385 277.972 113.388 278.742C111.42 279.484 109.223 279.854 106.799 279.854C104.402 279.854 102.206 279.512 100.209 278.827C98.2407 278.114 96.5577 277.102 95.1599 275.789C93.7621 274.449 92.6781 272.823 91.9079 270.911C91.1377 268.972 90.7526 266.789 90.7526 264.365ZM96.4008 264.407C96.4008 265.862 96.6147 267.232 97.0426 268.515C97.499 269.799 98.1694 270.911 99.0537 271.853C99.938 272.794 101.022 273.55 102.306 274.121C103.618 274.663 105.13 274.934 106.841 274.934C108.439 274.934 109.865 274.677 111.12 274.163C112.404 273.65 113.488 272.937 114.372 272.024C115.285 271.111 115.984 270.013 116.469 268.729C116.954 267.417 117.196 265.976 117.196 264.407C117.196 262.953 116.968 261.583 116.512 260.3C116.084 259.016 115.428 257.903 114.543 256.962C113.659 256.021 112.561 255.279 111.249 254.737C109.965 254.167 108.467 253.881 106.756 253.881C105.158 253.881 103.718 254.138 102.434 254.651C101.15 255.165 100.052 255.892 99.1393 256.834C98.255 257.747 97.5703 258.845 97.0854 260.129C96.629 261.412 96.4008 262.838 96.4008 264.407ZM125.029 264.365C125.029 262.111 125.4 260.043 126.142 258.16C126.912 256.277 127.996 254.651 129.394 253.282C130.791 251.913 132.474 250.858 134.443 250.116C136.411 249.346 138.622 248.961 141.075 248.961C143.471 248.961 145.654 249.317 147.622 250.03C149.619 250.743 151.316 251.77 152.714 253.111C154.112 254.423 155.196 256.035 155.966 257.946C156.736 259.858 157.121 262.026 157.121 264.45C157.121 266.704 156.736 268.772 155.966 270.655C155.224 272.537 154.154 274.163 152.757 275.533C151.359 276.902 149.661 277.972 147.665 278.742C145.696 279.484 143.5 279.854 141.075 279.854C138.679 279.854 136.482 279.512 134.486 278.827C132.517 278.114 130.834 277.102 129.436 275.789C128.039 274.449 126.955 272.823 126.184 270.911C125.414 268.972 125.029 266.789 125.029 264.365ZM130.677 264.407C130.677 265.862 130.891 267.232 131.319 268.515C131.776 269.799 132.446 270.911 133.33 271.853C134.215 272.794 135.299 273.55 136.582 274.121C137.894 274.663 139.406 274.934 141.118 274.934C142.715 274.934 144.142 274.677 145.397 274.163C146.68 273.65 147.764 272.937 148.649 272.024C149.562 271.111 150.26 270.013 150.745 268.729C151.23 267.417 151.473 265.976 151.473 264.407C151.473 262.953 151.245 261.583 150.788 260.3C150.36 259.016 149.704 257.903 148.82 256.962C147.936 256.021 146.837 255.279 145.525 254.737C144.241 254.167 142.744 253.881 141.032 253.881C139.435 253.881 137.994 254.138 136.711 254.651C135.427 255.165 134.329 255.892 133.416 256.834C132.531 257.747 131.847 258.845 131.362 260.129C130.905 261.412 130.677 262.838 130.677 264.407ZM166.794 274.463H183.054V279.384H161.445V249.431H166.794V274.463ZM194.565 279.384V275.704C197.674 273.051 200.17 270.84 202.053 269.071C203.936 267.274 205.376 265.748 206.375 264.493C207.402 263.238 208.072 262.182 208.386 261.327C208.728 260.471 208.899 259.658 208.899 258.888C208.899 257.404 208.443 256.263 207.53 255.464C206.617 254.666 205.348 254.266 203.722 254.266C202.01 254.238 200.456 254.523 199.058 255.122C197.689 255.721 196.505 256.591 195.506 257.732V252.041C195.877 251.671 196.348 251.314 196.918 250.972C197.517 250.601 198.202 250.273 198.972 249.987C199.742 249.702 200.584 249.474 201.497 249.303C202.438 249.132 203.437 249.046 204.492 249.046C207.658 249.075 210.055 249.873 211.681 251.442C213.335 253.011 214.162 255.122 214.162 257.775C214.162 259.002 213.977 260.186 213.606 261.327C213.264 262.468 212.693 263.637 211.895 264.835C211.096 266.033 210.04 267.289 208.728 268.601C207.444 269.913 205.861 271.368 203.979 272.965L202.224 274.463H214.975V279.384H194.565ZM224.857 255.379L218.439 259.358V254.095L226.141 249.132H229.863V279.384H224.857V255.379Z" fill="white"/>
</svg>
