<svg width="460" height="76" viewBox="0 0 460 76" fill="none" xmlns="http://www.w3.org/2000/svg">
<g filter="url(#filter0_d_28_3)">
<path d="M42.4 9.6H13.6V0H42.4V9.6ZM13.6 28.8H4V9.6H13.6V28.8ZM52 19.2H42.4V9.6H52V19.2ZM42.4 38.4H13.6V28.8H42.4V38.4ZM52 57.6H42.4V38.4H52V57.6ZM13.6 57.6H4V48H13.6V57.6ZM42.4 67.2H13.6V57.6H42.4V67.2ZM100.009 9.6H71.2094V0H100.009V9.6ZM71.2094 57.6H61.6094V9.6H71.2094V57.6ZM109.609 19.2H100.009V9.6H109.609V19.2ZM109.609 57.6H100.009V48H109.609V57.6ZM100.009 67.2H71.2094V57.6H100.009V67.2ZM128.819 67.2H119.219V0H128.819V28.8H157.619V0H167.219V67.2H157.619V38.4H128.819V67.2ZM215.228 9.6H186.428V0H215.228V9.6ZM186.428 57.6H176.828V9.6H186.428V57.6ZM224.828 57.6H215.228V9.6H224.828V57.6ZM215.228 67.2H186.428V57.6H215.228V67.2ZM272.838 9.6H244.038V0H272.838V9.6ZM244.038 57.6H234.438V9.6H244.038V57.6ZM282.438 57.6H272.838V9.6H282.438V57.6ZM272.838 67.2H244.038V57.6H272.838V67.2ZM340.047 67.2H292.047V0H301.647V57.6H340.047V67.2ZM388.056 9.6H359.256V0H388.056V9.6ZM359.256 19.2H349.656V9.6H359.256V19.2ZM397.656 28.8H388.056V9.6H397.656V28.8ZM388.056 38.4H368.856V28.8H388.056V38.4ZM368.856 48H359.256V38.4H368.856V48ZM397.656 67.2H349.656V48H359.256V57.6H397.656V67.2ZM416.866 9.6H426.466V0H436.066V57.6H455.266V67.2H407.266V57.6H426.466V19.2H416.866V9.6Z" fill="black"/>
</g>
<defs>
<filter id="filter0_d_28_3" x="0" y="0" width="459.266" height="75.2" filterUnits="userSpaceOnUse" color-interpolation-filters="sRGB">
<feFlood flood-opacity="0" result="BackgroundImageFix"/>
<feColorMatrix in="SourceAlpha" type="matrix" values="0 0 0 0 0 0 0 0 0 0 0 0 0 0 0 0 0 0 127 0" result="hardAlpha"/>
<feOffset dy="4"/>
<feGaussianBlur stdDeviation="2"/>
<feComposite in2="hardAlpha" operator="out"/>
<feColorMatrix type="matrix" values="0 0 0 0 0 0 0 0 0 0 0 0 0 0 0 0 0 0 0.25 0"/>
<feBlend mode="normal" in2="BackgroundImageFix" result="effect1_dropShadow_28_3"/>
<feBlend mode="normal" in="SourceGraphic" in2="effect1_dropShadow_28_3" result="shape"/>
</filter>
</defs>
</svg>
